# Blender 5.2.1 LTS
# www.blender.org
o RenderMesh_140242362964055
v 1.875984 0.099909 0.001020 0 0 0
v 1.868856 0.100259 0.002428 0 0 0
v 1.870060 0.099822 0.001761 0 0 0
v 1.863417 0.098696 0.001269 0 0 0
v 1.867758 0.098599 0.000458 0 0 0
v 1.869258 0.100820 -0.022105 0 0 0
v 1.876342 0.100443 -0.020809 0 0 0
v 1.870468 0.100350 -0.021457 0 0 0
v 1.874280 0.100779 -0.021473 0 0 0
v 1.760687 0.034251 -0.023997 0 0 0
v 1.747952 0.019727 -0.024539 0 0 0
v 1.738754 0.010215 -0.023914 0 0 0
v 1.733995 0.005688 -0.023048 0 0 0
v 1.730683 0.001647 -0.023530 0 0 0
v 1.736083 0.008566 -0.022274 0 0 0
v 1.748747 0.021675 -0.023400 0 0 0
v 1.754249 0.028348 -0.022675 0 0 0
v 1.765098 0.039758 -0.023310 0 0 0
v 1.703574 -0.007321 -0.001170 0 0 0
v 1.834280 0.088418 0.003232 0 0 0
v 1.728335 -0.001977 -0.001242 0 0 0
v 0.529223 -0.305234 -0.004755 0 0 0
v 0.523199 -0.305353 -0.005435 0 0 0
v 1.696571 -0.007847 -0.001844 0 0 0
v 0.518085 -0.305324 -0.006239 0 0 0
v 1.747473 0.019482 -0.000514 0 0 0
v 1.738283 0.009934 -0.001689 0 0 0
v 1.690628 -0.008165 -0.002647 0 0 0
v 1.686651 -0.008208 -0.003503 0 0 0
v 1.721926 -0.003732 -0.002036 0 0 0
v 1.715796 -0.004203 -0.002692 0 0 0
v 1.713867 -0.004033 -0.003392 0 0 0
v 1.711543 -0.003876 -0.004256 0 0 0
v 1.730223 0.001346 -0.002552 0 0 0
v 1.733557 0.005416 -0.002853 0 0 0
v 1.735687 0.008342 -0.003529 0 0 0
v 1.736083 0.008566 -0.022274 0 0 0
v 1.754249 0.028348 -0.022675 0 0 0
v 1.753847 0.028196 -0.002076 0 0 0
v 1.748303 0.021455 -0.001635 0 0 0
v 1.764692 0.039671 -0.000807 0 0 0
v 1.765098 0.039758 -0.023310 0 0 0
v 1.760240 0.034093 -0.000334 0 0 0
v 1.747473 0.019482 -0.000514 0 0 0
v 1.873928 0.100204 0.001701 0 0 0
v 1.868856 0.100259 0.002428 0 0 0
v 1.874280 0.100779 -0.021473 0 0 0
v 1.876342 0.100443 -0.020809 0 0 0
v 1.760687 0.034251 -0.023997 0 0 0
v 1.748747 0.021675 -0.023400 0 0 0
v 1.738754 0.010215 -0.023914 0 0 0
v 1.733995 0.005688 -0.023048 0 0 0
v 1.868123 0.099096 -0.020226 0 0 0
v 1.863827 0.099199 -0.020957 0 0 0
v 1.870468 0.100350 -0.021457 0 0 0
v 1.857197 0.098839 -0.021383 0 0 0
v 1.858580 0.099407 -0.021842 0 0 0
v 1.855044 0.099686 -0.022512 0 0 0
v 1.869258 0.100820 -0.022105 0 0 0
v 1.747952 0.019727 -0.024539 0 0 0
v 1.748303 0.021455 -0.001635 0 0 0
v 1.735687 0.008342 -0.003529 0 0 0
v 1.733557 0.005416 -0.002853 0 0 0
v 1.738283 0.009934 -0.001689 0 0 0
v -1.847827 -0.340355 0.019099 0 0 0
v -1.866220 -0.340872 0.018964 0 0 0
v -1.852928 -0.339492 0.019370 0 0 0
v -1.710719 -0.378814 0.043605 0 0 0
v -1.847247 -0.363791 0.019785 0 0 0
v -1.082571 -0.354945 0.022943 0 0 0
v -1.082599 -0.358489 0.044036 0 0 0
v -1.082292 -0.357835 0.045201 0 0 0
v -1.082217 -0.354288 0.022349 0 0 0
v -1.068761 -0.353858 0.022389 0 0 0
v -1.846889 -0.363165 0.019195 0 0 0
v -1.067686 -0.353024 0.021730 0 0 0
v -1.081142 -0.353453 0.021690 0 0 0
v -0.424541 -0.340115 -0.027921 0 0 0
v -1.845802 -0.362442 0.018545 0 0 0
v -0.425459 -0.340901 -0.026958 0 0 0
v -1.870932 -0.363645 0.018415 0 0 0
v -1.069116 -0.354514 0.022983 0 0 0
v -1.082599 -0.358489 0.044036 0 0 0
v -0.425757 -0.341548 -0.026089 0 0 0
v -1.069144 -0.358052 0.044047 0 0 0
v -1.873140 -0.364572 0.018946 0 0 0
v -1.884421 -0.365019 0.018352 0 0 0
v -1.890146 -0.366064 0.018669 0 0 0
v -1.872916 -0.365273 0.019567 0 0 0
v -1.893811 -0.367090 0.019175 0 0 0
v -1.846931 -0.369372 0.034441 0 0 0
v -1.872576 -0.371087 0.034609 0 0 0
v -1.893811 -0.367090 0.019175 0 0 0
v -1.835903 -0.369829 0.037843 0 0 0
v -1.893422 -0.373357 0.034909 0 0 0
v -1.860315 -0.368978 0.038294 0 0 0
v -1.906878 -0.367807 0.018617 0 0 0
v -1.808165 -0.371659 0.040420 0 0 0
v -1.766569 -0.374887 0.042356 0 0 0
v -1.712999 -0.378136 0.044804 0 0 0
v -1.776599 -0.373304 0.043378 0 0 0
v -1.826935 -0.369471 0.041154 0 0 0
v -1.879921 -0.370847 0.039167 0 0 0
v -1.906415 -0.374750 0.035251 0 0 0
v -1.842054 -0.367505 0.042017 0 0 0
v -1.784315 -0.371793 0.044463 0 0 0
v -1.714157 -0.377265 0.046020 0 0 0
v -1.892101 -0.371815 0.040109 0 0 0
v -1.081253 -0.357028 0.046378 0 0 0
v -1.714029 -0.376255 0.047156 0 0 0
v -1.068836 -0.357400 0.045210 0 0 0
v -1.079649 -0.356131 0.047472 0 0 0
v -1.067798 -0.356596 0.046386 0 0 0
v -0.425916 -0.340984 -0.004278 0 0 0
v -1.788552 -0.370509 0.045534 0 0 0
v -1.712639 -0.375198 0.048128 0 0 0
v -1.788668 -0.369587 0.046519 0 0 0
v -1.758041 -0.346227 0.045468 0 0 0
v -1.682366 -0.348631 0.046384 0 0 0
v -1.754010 -0.345939 0.044632 0 0 0
v -1.851228 -0.365993 0.042964 0 0 0
v -1.788668 -0.369587 0.046519 0 0 0
v -1.853057 -0.365182 0.043943 0 0 0
v -1.895006 -0.371699 0.041036 0 0 0
v -1.853057 -0.365182 0.043943 0 0 0
v -1.865776 -0.335667 0.039968 0 0 0
v -1.822708 -0.339296 0.043362 0 0 0
v -1.758041 -0.346227 0.045468 0 0 0
v -1.816922 -0.339268 0.042527 0 0 0
v -1.858950 -0.334625 0.039247 0 0 0
v -1.804417 -0.339874 0.041656 0 0 0
v -1.746481 -0.345951 0.043669 0 0 0
v -1.843162 -0.335245 0.038628 0 0 0
v -1.787097 -0.341002 0.040824 0 0 0
v -1.679909 -0.347866 0.045533 0 0 0
v -1.676806 -0.347048 0.044513 0 0 0
v -1.873526 -0.335166 0.034867 0 0 0
v -1.736606 -0.346242 0.042660 0 0 0
v -1.767605 -0.342434 0.040087 0 0 0
v -1.673535 -0.346277 0.043408 0 0 0
v -1.795487 -0.339290 0.037839 0 0 0
v -1.725893 -0.346721 0.041683 0 0 0
v -1.820854 -0.337096 0.038164 0 0 0
v -1.857150 -0.333338 0.034620 0 0 0
v -1.833541 -0.335327 0.034666 0 0 0
v -1.670598 -0.345622 0.042310 0 0 0
v -1.806626 -0.337816 0.034808 0 0 0
v -1.856254 -0.338716 0.019883 0 0 0
v -1.872579 -0.341003 0.019458 0 0 0
v -1.832679 -0.340406 0.020571 0 0 0
v -1.852928 -0.339492 0.019370 0 0 0
v -1.856254 -0.338716 0.019883 0 0 0
v -1.805783 -0.342740 0.021105 0 0 0
v -1.866220 -0.340872 0.018964 0 0 0
v -1.833735 -0.340972 0.019903 0 0 0
v -1.847827 -0.340355 0.019099 0 0 0
v -1.806098 -0.343323 0.020478 0 0 0
v -1.833210 -0.341643 0.019354 0 0 0
v -1.807152 -0.343977 0.019776 0 0 0
v -1.854330 -0.340235 0.018619 0 0 0
v -1.874416 -0.342488 0.018424 0 0 0
v -1.859658 -0.341373 0.018039 0 0 0
v -1.890346 -0.364198 0.017401 0 0 0
v -1.879659 -0.342483 0.018879 0 0 0
v -1.905011 -0.366168 0.017634 0 0 0
v -1.888750 -0.364942 0.017973 0 0 0
v -1.900738 -0.366608 0.018227 0 0 0
v -1.884421 -0.365019 0.018352 0 0 0
v -1.890146 -0.366064 0.018669 0 0 0
v -1.893811 -0.367090 0.019175 0 0 0
v -1.910133 -0.367262 0.017980 0 0 0
v -1.909576 -0.375048 0.035612 0 0 0
v -1.895006 -0.371699 0.041036 0 0 0
v -1.880678 -0.335984 0.035123 0 0 0
v -1.865776 -0.335667 0.039968 0 0 0
v 0.365618 -0.349886 -0.030377 0 0 0
v 0.152861 -0.328127 -0.005750 0 0 0
v 0.153286 -0.328197 -0.027608 0 0 0
v 0.365205 -0.349868 -0.004555 0 0 0
v 0.364759 -0.349114 -0.031170 0 0 0
v 0.152853 -0.327459 -0.028448 0 0 0
v 0.362417 -0.348301 -0.032029 0 0 0
v 0.151696 -0.326477 -0.029326 0 0 0
v 0.633170 -0.202277 -0.024429 0 0 0
v 0.632003 -0.202379 -0.025275 0 0 0
v 0.364759 -0.349114 -0.031170 0 0 0
v 0.629210 -0.207916 -0.026396 0 0 0
v 0.362417 -0.348301 -0.032029 0 0 0
v 0.632768 -0.202447 -0.005396 0 0 0
v 0.631646 -0.203393 -0.004539 0 0 0
v 1.827153 0.078156 0.000766 0 0 0
v 1.828819 0.079807 -0.020440 0 0 0
v 1.828494 0.078953 -0.000110 0 0 0
v 1.849371 0.096926 0.000990 0 0 0
v 1.827520 0.079062 -0.021324 0 0 0
v 0.632003 -0.202379 -0.025275 0 0 0
v 1.823886 0.075896 -0.022394 0 0 0
v 0.629210 -0.207916 -0.026396 0 0 0
v 1.845231 0.097477 -0.021317 0 0 0
v 1.849786 0.097412 -0.020639 0 0 0
v 1.863827 0.099199 -0.020957 0 0 0
v 1.857197 0.098839 -0.021383 0 0 0
v 1.868123 0.099096 -0.020226 0 0 0
v 1.850878 0.096903 -0.019793 0 0 0
v 1.850510 0.096431 0.000075 0 0 0
v 1.868123 0.099096 -0.020226 0 0 0
v 1.867758 0.098599 0.000458 0 0 0
v 1.863417 0.098696 0.001269 0 0 0
v 1.875984 0.099909 0.001020 0 0 0
v 1.844785 0.096979 0.001727 0 0 0
v 1.856762 0.098332 0.001750 0 0 0
v 1.870060 0.099822 0.001761 0 0 0
v 1.841398 0.095355 0.002435 0 0 0
v 1.858138 0.098885 0.002226 0 0 0
v 1.854601 0.099140 0.002934 0 0 0
v 1.818038 0.069901 0.002571 0 0 0
v 1.823485 0.074946 0.001687 0 0 0
v 1.854601 0.099140 0.002934 0 0 0
v 1.811633 0.063871 0.003346 0 0 0
v 0.619700 -0.227684 -0.001668 0 0 0
v -0.152120 -0.291163 -0.004784 0 0 0
v 0.149490 -0.325640 -0.003173 0 0 0
v -0.151910 -0.290480 -0.003983 0 0 0
v -0.152229 -0.291792 -0.005639 0 0 0
v 0.147515 -0.324875 -0.002446 0 0 0
v -0.151636 -0.289827 -0.003310 0 0 0
v 0.151187 -0.326433 -0.004016 0 0 0
v -0.426166 -0.341632 -0.005104 0 0 0
v -0.152217 -0.292309 -0.006462 0 0 0
v -0.151811 -0.292166 -0.024732 0 0 0
v -0.151776 -0.291638 -0.025546 0 0 0
v -0.425459 -0.340901 -0.026958 0 0 0
v -0.151628 -0.290999 -0.026391 0 0 0
v -0.424541 -0.340115 -0.027921 0 0 0
v 0.152381 -0.327383 -0.004906 0 0 0
v 0.361919 -0.348299 -0.002949 0 0 0
v -0.151811 -0.292166 -0.024732 0 0 0
v 0.153286 -0.328197 -0.027608 0 0 0
v 0.152853 -0.327459 -0.028448 0 0 0
v -0.151776 -0.291638 -0.025546 0 0 0
v 0.151696 -0.326477 -0.029326 0 0 0
v -0.151628 -0.290999 -0.026391 0 0 0
v 0.364299 -0.349105 -0.003779 0 0 0
v 0.358416 -0.347488 -0.002163 0 0 0
v 0.628822 -0.209002 -0.003572 0 0 0
v 0.624631 -0.217567 -0.002588 0 0 0
v 1.823485 0.074946 0.001687 0 0 0
v 0.354314 -0.346709 -0.001490 0 0 0
v 0.529223 -0.305234 -0.004755 0 0 0
v 0.114444 -0.305154 -0.002413 0 0 0
v -0.148166 -0.269202 0.000838 0 0 0
v 0.285978 -0.323201 -0.004463 0 0 0
v 0.112474 -0.304359 -0.003157 0 0 0
v -0.147950 -0.267942 0.000166 0 0 0
v 0.110777 -0.303348 -0.003999 0 0 0
v 0.281826 -0.321896 -0.005107 0 0 0
v -0.147775 -0.266723 -0.000619 0 0 0
v 0.278300 -0.320647 -0.005883 0 0 0
v -1.064270 -0.354815 0.048404 0 0 0
v -1.033995 -0.328270 0.046508 0 0 0
v -1.047469 -0.328522 0.047547 0 0 0
v -1.077726 -0.355240 0.048397 0 0 0
v -1.682366 -0.348631 0.046384 0 0 0
v -1.712639 -0.375198 0.048128 0 0 0
v -1.045537 -0.327657 0.046470 0 0 0
v -1.066193 -0.355702 0.047479 0 0 0
v -1.043905 -0.326780 0.045251 0 0 0
v -1.042827 -0.325985 0.043993 0 0 0
v -1.032064 -0.327399 0.045434 0 0 0
v -1.030433 -0.326517 0.044218 0 0 0
v -1.029355 -0.325718 0.042965 0 0 0
v -0.392426 -0.309928 -0.004313 0 0 0
v -0.392147 -0.309109 -0.005143 0 0 0
v -0.393310 -0.311025 -0.003437 0 0 0
v -0.394655 -0.312302 -0.002606 0 0 0
v -0.396252 -0.313630 -0.001890 0 0 0
v -0.422032 -0.338476 -0.002131 0 0 0
v -0.148166 -0.269202 0.000838 0 0 0
v -0.151636 -0.289827 -0.003310 0 0 0
v -0.423672 -0.339330 -0.002725 0 0 0
v -0.425037 -0.340196 -0.003459 0 0 0
v 0.109619 -0.302353 -0.004878 0 0 0
v 0.275935 -0.319618 -0.006724 0 0 0
v 0.514661 -0.305133 -0.007092 0 0 0
v -0.147677 -0.265636 -0.001446 0 0 0
v 0.109185 -0.301602 -0.005717 0 0 0
v -0.147680 -0.264755 -0.002210 0 0 0
v -0.147251 -0.264925 -0.028974 0 0 0
v -0.391741 -0.309023 -0.028455 0 0 0
v -0.391974 -0.309833 -0.029289 0 0 0
v -0.147201 -0.265805 -0.029720 0 0 0
v -0.147251 -0.264925 -0.028974 0 0 0
v -0.392820 -0.310922 -0.030176 0 0 0
v 0.109608 -0.301664 -0.027919 0 0 0
v 0.110091 -0.302422 -0.028762 0 0 0
v -0.147259 -0.266891 -0.030529 0 0 0
v -0.394139 -0.312195 -0.031023 0 0 0
v 0.111289 -0.303424 -0.029652 0 0 0
v -0.147410 -0.268106 -0.031298 0 0 0
v -0.395729 -0.313520 -0.031758 0 0 0
v -1.033071 -0.331774 0.018490 0 0 0
v -1.064136 -0.351143 0.020521 0 0 0
v -0.147617 -0.269359 -0.031954 0 0 0
v -0.421500 -0.338409 -0.029743 0 0 0
v -1.066061 -0.352089 0.021086 0 0 0
v -0.423150 -0.339256 -0.028880 0 0 0
v -0.151113 -0.289649 -0.027849 0 0 0
v -0.151395 -0.290308 -0.027183 0 0 0
v -0.424541 -0.340115 -0.027921 0 0 0
v -0.151628 -0.290999 -0.026391 0 0 0
v 0.148049 -0.324838 -0.030920 0 0 0
v 0.114977 -0.305114 -0.031226 0 0 0
v -0.147617 -0.269359 -0.031954 0 0 0
v 0.112999 -0.304320 -0.030497 0 0 0
v 0.150014 -0.325604 -0.030176 0 0 0
v -0.151628 -0.290999 -0.026391 0 0 0
v 0.151696 -0.326477 -0.029326 0 0 0
v 0.358940 -0.347485 -0.032852 0 0 0
v 0.362417 -0.348301 -0.032029 0 0 0
v 0.151696 -0.326477 -0.029326 0 0 0
v 0.354846 -0.346702 -0.033565 0 0 0
v 0.114977 -0.305114 -0.031226 0 0 0
v 0.286524 -0.323247 -0.030373 0 0 0
v 0.282365 -0.321944 -0.029682 0 0 0
v 0.278813 -0.320694 -0.028864 0 0 0
v 0.276407 -0.319660 -0.027993 0 0 0
v 0.275508 -0.318958 -0.027156 0 0 0
v 0.109608 -0.301664 -0.027919 0 0 0
v 0.275083 -0.318922 -0.007548 0 0 0
v 0.513443 -0.304774 -0.007908 0 0 0
v 0.513860 -0.304720 -0.025794 0 0 0
v 0.275508 -0.318958 -0.027156 0 0 0
v 0.515124 -0.305074 -0.026601 0 0 0
v 1.685675 -0.008052 -0.022126 0 0 0
v 1.685239 -0.007936 -0.004329 0 0 0
v 0.518588 -0.305261 -0.027427 0 0 0
v 1.687134 -0.008324 -0.022922 0 0 0
v 1.711979 -0.003995 -0.022115 0 0 0
v 1.691151 -0.008284 -0.023744 0 0 0
v 1.714352 -0.004152 -0.022946 0 0 0
v 1.697121 -0.007973 -0.024512 0 0 0
v 1.733995 0.005688 -0.023048 0 0 0
v 1.730683 0.001647 -0.023530 0 0 0
v 1.716314 -0.004326 -0.023623 0 0 0
v 1.691151 -0.008284 -0.023744 0 0 0
v 1.722465 -0.003861 -0.024245 0 0 0
v 1.738754 0.010215 -0.023914 0 0 0
v 1.728834 -0.001649 -0.024929 0 0 0
v 1.747952 0.019727 -0.024539 0 0 0
v 1.855044 0.099686 -0.022512 0 0 0
v 1.834699 0.089434 -0.023226 0 0 0
v 1.858580 0.099407 -0.021842 0 0 0
v 1.704134 -0.007458 -0.025152 0 0 0
v 0.523727 -0.305288 -0.028191 0 0 0
v 0.286524 -0.323247 -0.030373 0 0 0
v 0.529760 -0.305170 -0.028822 0 0 0
v 1.812063 0.064854 -0.024636 0 0 0
v 0.620115 -0.226550 -0.028832 0 0 0
v 0.358940 -0.347485 -0.032852 0 0 0
v 1.818461 0.070879 -0.023537 0 0 0
v 0.625039 -0.216438 -0.027622 0 0 0
v 0.362417 -0.348301 -0.032029 0 0 0
v 0.629210 -0.207916 -0.026396 0 0 0
v 1.823886 0.075896 -0.022394 0 0 0
v 0.629210 -0.207916 -0.026396 0 0 0
v 1.845231 0.097477 -0.021317 0 0 0
v 1.841810 0.096352 -0.022061 0 0 0
v 1.857197 0.098839 -0.021383 0 0 0
v -1.029001 -0.325062 0.041784 0 0 0
v -1.041677 -0.328767 0.021655 0 0 0
v -1.042473 -0.325334 0.042805 0 0 0
v -1.028212 -0.328431 0.020578 0 0 0
v -1.041983 -0.329421 0.021084 0 0 0
v -1.042473 -0.325334 0.042805 0 0 0
v -1.043018 -0.330247 0.020507 0 0 0
v -1.807152 -0.343977 0.019776 0 0 0
v -1.028519 -0.329087 0.020003 0 0 0
v -0.391741 -0.309023 -0.028455 0 0 0
v -1.029001 -0.325062 0.041784 0 0 0
v -1.808780 -0.344653 0.019082 0 0 0
v -1.029554 -0.329914 0.019422 0 0 0
v -1.031154 -0.330840 0.018903 0 0 0
v -1.044619 -0.331171 0.019992 0 0 0
v -1.046536 -0.332102 0.019581 0 0 0
v -1.064136 -0.351143 0.020521 0 0 0
v -1.077593 -0.351569 0.020482 0 0 0
v -1.810730 -0.345294 0.018464 0 0 0
v -1.077593 -0.351569 0.020482 0 0 0
v -1.079517 -0.352516 0.021047 0 0 0
v -1.067686 -0.353024 0.021730 0 0 0
v -1.081142 -0.353453 0.021690 0 0 0
v -0.424541 -0.340115 -0.027921 0 0 0
v -1.842211 -0.360930 0.017366 0 0 0
v -1.079517 -0.352516 0.021047 0 0 0
v -1.845802 -0.362442 0.018545 0 0 0
v -1.837242 -0.342826 0.018115 0 0 0
v -1.844157 -0.361677 0.017915 0 0 0
v -1.870932 -0.363645 0.018415 0 0 0
v -1.868375 -0.361622 0.017279 0 0 0
v -1.870973 -0.362882 0.017881 0 0 0
v -1.884421 -0.365019 0.018352 0 0 0
v -1.888750 -0.364942 0.017973 0 0 0
v -1.890346 -0.364198 0.017401 0 0 0
v -1.859658 -0.341373 0.018039 0 0 0
v -1.854330 -0.340235 0.018619 0 0 0
v -1.835912 -0.342080 0.018760 0 0 0
v -1.833210 -0.341643 0.019354 0 0 0
v -1.807152 -0.343977 0.019776 0 0 0
vn 0.0894 -0.8036 0.5885
vn 0.0827 -0.7413 0.6661
vn 0.0861 -0.7725 0.6292
vn 0.0884 -0.7941 0.6013
vn 0.0918 -0.8257 0.5565
vn 0.0776 -0.7131 -0.6968
vn 0.0847 -0.7767 -0.6242
vn 0.0813 -0.7462 -0.6607
vn 0.0812 -0.7457 -0.6613
vn -0.0824 0.7391 -0.6685
vn -0.0816 0.7315 -0.6769
vn -0.0863 0.7745 -0.6267
vn -0.0908 0.8162 -0.5706
vn -0.0863 0.7745 -0.6267
vn -0.0892 0.8012 -0.5917
vn -0.0936 0.8420 -0.5313
vn -0.0873 0.7835 -0.6152
vn -0.0897 0.8065 -0.5843
vn -0.0853 0.7653 -0.6380
vn -0.0814 0.7475 0.6593
vn 0.0766 -0.6857 0.7238
vn -0.0822 0.7548 0.6507
vn -0.0805 0.7392 0.6687
vn -0.0840 0.7701 0.6324
vn -0.0848 0.7780 0.6225
vn -0.0877 0.8035 0.5888
vn -0.0815 0.7481 0.6586
vn -0.0860 0.7886 0.6088
vn -0.0885 0.8109 0.5784
vn -0.0921 0.8422 0.5312
vn -0.0860 0.7881 0.6095
vn -0.0889 0.8143 0.5736
vn -0.0918 0.8399 0.5348
vn -0.0950 0.8682 0.4871
vn -0.0888 0.8137 0.5745
vn -0.0905 0.8289 0.5521
vn -0.0934 0.8546 0.5108
vn -0.0897 0.8065 -0.5843
vn -0.0899 0.8231 0.5607
vn -0.0872 0.7992 0.5947
vn -0.0857 0.7855 0.6129
vn -0.0860 0.7886 0.6088
vn -0.0826 0.7581 0.6469
vn -0.0815 0.7481 0.6586
vn 0.0863 -0.7749 0.6261
vn 0.0827 -0.7413 0.6661
vn 0.0812 -0.7457 -0.6613
vn 0.0847 -0.7767 -0.6242
vn -0.0824 0.7391 -0.6685
vn -0.0873 0.7835 -0.6152
vn 0.0847 -0.7767 -0.6242
vn 0.0874 -0.8008 -0.5925
vn 0.0839 -0.7692 -0.6335
vn 0.0813 -0.7462 -0.6607
vn 0.0816 -0.7489 -0.6577
vn 0.0790 -0.7261 -0.6831
vn 0.0749 -0.6894 -0.7205
vn 0.0776 -0.7131 -0.6968
vn -0.0905 0.8289 0.5521
vn -0.0710 0.6337 -0.7703
vn -0.0706 0.6305 -0.7730
vn -0.0734 0.6556 -0.7516
vn 0.0957 -0.8621 0.4976
vn 0.0737 -0.6787 -0.7307
vn 0.0750 -0.6904 -0.7196
vn 0.0984 -0.8864 0.4523
vn 0.0945 -0.8508 0.5170
vn 0.0711 -0.6546 -0.7526
vn 0.0696 -0.6417 -0.7638
vn 0.0662 -0.6113 -0.7886
vn 0.0793 -0.7285 -0.6804
vn 0.0645 -0.5954 -0.8008
vn 0.0840 -0.7708 -0.6315
vn 0.0640 -0.5910 -0.8041
vn 0.0880 -0.8063 -0.5849
vn 0.0984 -0.8869 0.4514
vn 0.0681 -0.6286 -0.7748
vn 0.0633 -0.5848 -0.8087
vn 0.0658 -0.6076 -0.7915
vn 0.0726 -0.6684 -0.7403
vn 0.0696 -0.6417 -0.7638
vn 0.1093 -0.9905 0.0837
vn 0.1092 -0.9894 0.0954
vn 0.1060 -0.9585 0.2646
vn 0.1090 -0.9879 0.1104
vn 0.1049 -0.9478 0.3011
vn 0.0652 -0.6020 -0.7958
vn 0.1016 -0.9163 0.3874
vn 0.0977 -0.8802 0.4645
vn 0.0912 -0.8204 0.5644
vn 0.0938 -0.8437 0.5285
vn 0.0989 -0.8916 0.4419
vn 0.1032 -0.9318 0.3480
vn 0.1088 -0.9857 0.1283
vn 0.0955 -0.8602 0.5008
vn 0.0890 -0.7993 0.5944
vn 0.0858 -0.7701 0.6321
vn 0.1010 -0.9112 0.3994
vn 0.0899 -0.8080 0.5823
vn 0.0798 -0.7144 0.6952
vn 0.0848 -0.7613 0.6428
vn 0.0863 -0.7748 0.6262
vn 0.0835 -0.7493 0.6569
vn 0.0737 -0.6584 0.7490
vn 0.0780 -0.6982 0.7116
vn -0.0843 0.7731 0.6287
vn -0.0825 0.7568 0.6485
vn -0.0885 0.8104 0.5792
vn 0.0916 -0.8233 0.5601
vn 0.0780 -0.6982 0.7116
vn 0.0872 -0.7833 0.6155
vn 0.0985 -0.8873 0.4506
vn 0.0872 -0.7833 0.6155
vn -0.1001 0.9137 0.3939
vn -0.0900 0.8243 0.5590
vn -0.0843 0.7731 0.6287
vn -0.0936 0.8561 0.5083
vn -0.1019 0.9295 0.3544
vn -0.0971 0.8874 0.4507
vn -0.0928 0.8490 0.5202
vn -0.1037 0.9448 0.3108
vn -0.1002 0.9146 0.3918
vn -0.0867 0.7946 0.6009
vn -0.0911 0.8342 0.5439
vn -0.1087 0.9880 0.1099
vn -0.0968 0.8843 0.4568
vn -0.1027 0.9361 0.3365
vn -0.0953 0.8709 0.4822
vn -0.1062 0.9669 0.2320
vn -0.1001 0.9134 0.3946
vn -0.1051 0.9575 0.2686
vn -0.1089 0.9893 0.0975
vn -0.1091 0.9905 0.0835
vn -0.0988 0.9017 0.4208
vn -0.1092 0.9914 0.0717
vn -0.0769 0.6885 -0.7211
vn -0.0740 0.6617 -0.7461
vn -0.0793 0.7100 -0.6997
vn -0.0734 0.6556 -0.7516
vn -0.0769 0.6885 -0.7211
vn -0.0803 0.7195 -0.6898
vn -0.0706 0.6305 -0.7730
vn -0.0752 0.6728 -0.7360
vn -0.0710 0.6337 -0.7703
vn -0.0766 0.6852 -0.7244
vn -0.0714 0.6378 -0.7669
vn -0.0720 0.6429 -0.7625
vn -0.0680 0.6065 -0.7922
vn -0.0664 0.5914 -0.8037
vn -0.0633 0.5632 -0.8239
vn 0.0543 -0.5040 -0.8620
vn -0.0698 0.6233 -0.7788
vn 0.0564 -0.5234 -0.8502
vn 0.0599 -0.5544 -0.8301
vn 0.0620 -0.5733 -0.8170
vn 0.0658 -0.6076 -0.7915
vn 0.0696 -0.6417 -0.7638
vn 0.0597 -0.5524 -0.8314
vn 0.1086 -0.9830 0.1481
vn 0.0985 -0.8873 0.4506
vn -0.1085 0.9864 0.1236
vn -0.1001 0.9137 0.3939
vn 0.0755 -0.6945 -0.7156
vn 0.0880 -0.7899 0.6068
vn 0.0862 -0.7898 -0.6073
vn 0.0772 -0.6907 0.7191
vn 0.0702 -0.6468 -0.7595
vn 0.0819 -0.7519 -0.6541
vn 0.0636 -0.5876 -0.8066
vn 0.0769 -0.7068 -0.7032
vn 0.0919 -0.8408 -0.5334
vn 0.0884 -0.8099 -0.5799
vn 0.0702 -0.6468 -0.7595
vn 0.0835 -0.7661 -0.6372
vn 0.0941 -0.8465 0.5240
vn 0.0906 -0.8147 0.5728
vn 0.0886 -0.7956 0.5993
vn 0.0883 -0.8087 -0.5816
vn 0.0924 -0.8310 0.5485
vn 0.0897 -0.8063 0.5846
vn 0.0843 -0.7731 -0.6287
vn 0.0791 -0.7270 -0.6821
vn 0.0818 -0.7512 -0.6550
vn 0.0853 -0.7824 -0.6169
vn 0.0839 -0.7692 -0.6335
vn 0.0816 -0.7489 -0.6577
vn 0.0892 -0.8169 -0.5699
vn 0.0934 -0.8404 0.5339
vn 0.0884 -0.7941 0.6013
vn 0.0864 -0.7757 0.6252
vn 0.0862 -0.7739 0.6274
vn 0.0861 -0.7725 0.6292
vn 0.0825 -0.7399 0.6676
vn 0.0838 -0.7518 0.6540
vn 0.0800 -0.7164 0.6931
vn 0.0827 -0.7413 0.6661
vn 0.0777 -0.6951 0.7148
vn 0.0836 -0.7496 0.6566
vn 0.0712 -0.6358 0.7685
vn 0.0731 -0.6534 0.7535
vn 0.0887 -0.7967 0.5978
vn 0.0735 -0.6573 0.7500
vn 0.0849 -0.7618 0.6423
vn 0.0923 -0.8298 0.5504
vn 0.0682 -0.6081 0.7909
vn 0.0814 -0.7291 0.6796
vn 0.0790 -0.7070 0.7028
vn 0.0902 -0.8104 0.5789
vn 0.0953 -0.8580 0.5047
vn 0.0935 -0.8548 -0.5105
vn 0.0903 -0.8265 -0.5557
vn 0.0866 -0.7933 -0.6027
vn 0.0839 -0.7522 0.6536
vn 0.0656 -0.5841 0.8090
vn 0.0862 -0.7898 -0.6073
vn 0.0720 -0.6431 0.7624
vn 0.0583 -0.5179 0.8535
vn 0.0859 -0.7706 0.6315
vn 0.0799 -0.7159 0.6936
vn 0.0836 -0.7496 0.6566
vn 0.0509 -0.4496 0.8918
vn -0.0805 0.7392 0.6687
vn -0.0645 0.5957 0.8006
vn -0.0441 0.4122 0.9100
vn -0.0749 0.6888 0.7210
vn -0.0701 0.6465 0.7597
vn -0.0522 0.4853 0.8728
vn -0.0758 0.6972 0.7128
vn -0.0789 0.7252 0.6840
vn -0.0600 0.5556 0.8293
vn -0.0833 0.7640 0.6398
vn 0.0800 -0.7166 0.6929
vn -0.0773 0.7109 0.6990
vn 0.0799 -0.7155 0.6940
vn -0.0828 0.7597 0.6449
vn -0.0880 0.8062 0.5850
vn -0.0928 0.8489 0.5204
vn -0.0877 0.8035 0.5888
vn -0.0779 0.7158 0.6940
vn -0.0825 0.7574 0.6477
vn -0.0723 0.6655 0.7429
vn -0.0661 0.6101 0.7895
vn -0.0599 0.5548 0.8298
vn 0.0717 -0.6408 0.7643
vn 0.0767 -0.6860 0.7235
vn 0.0817 -0.7323 0.6761
vn -0.0810 0.7436 0.6637
vn -0.0874 0.8009 0.5923
vn -0.0913 0.8352 0.5423
vn -0.0670 0.6179 0.7834
vn -0.0853 0.7823 0.6170
vn -0.0725 0.6676 0.7410
vn -0.0741 0.6621 -0.7458
vn -0.0844 0.7574 -0.6475
vn -0.0799 0.7158 -0.6937
vn -0.0687 0.6128 -0.7873
vn -0.0744 0.6654 -0.7427
vn -0.0872 0.7827 -0.6163
vn -0.0830 0.7440 -0.6630
vn -0.0619 0.5509 -0.8323
vn -0.0684 0.6101 -0.7894
vn -0.0779 0.6977 -0.7122
vn -0.0543 0.4810 -0.8750
vn -0.0624 0.5548 -0.8297
vn -0.0581 0.5155 -0.8549
vn 0.0554 -0.5136 -0.8562
vn -0.0463 0.4084 -0.9116
vn 0.0692 -0.6378 -0.7671
vn 0.0608 -0.5625 -0.8246
vn 0.0742 -0.6826 -0.7270
vn 0.0789 -0.7253 -0.6839
vn 0.0826 -0.7582 -0.6468
vn 0.0793 -0.7285 -0.6804
vn 0.0659 -0.6081 -0.7911
vn -0.0669 0.5959 -0.8003
vn -0.0724 0.6467 -0.7593
vn 0.0713 -0.6573 -0.7503
vn 0.0562 -0.5212 -0.8516
vn 0.0636 -0.5876 -0.8066
vn 0.0486 -0.4528 -0.8903
vn -0.0669 0.5959 -0.8003
vn -0.0773 0.6915 -0.7182
vn -0.0812 0.7277 -0.6811
vn -0.0854 0.7663 -0.6368
vn -0.0894 0.8031 -0.5891
vn -0.0928 0.8347 -0.5429
vn -0.0910 0.8326 0.5463
vn -0.0943 0.8625 0.4972
vn -0.0958 0.8627 -0.4966
vn -0.0929 0.8354 -0.5417
vn -0.0954 0.8588 -0.5033
vn -0.0951 0.8691 0.4855
vn -0.0894 0.8036 -0.5884
vn -0.0925 0.8316 -0.5477
vn -0.0953 0.8578 -0.5051
vn -0.0890 0.7997 -0.5937
vn -0.0922 0.8291 -0.5515
vn -0.0854 0.7662 -0.6369
vn -0.0908 0.8162 -0.5706
vn -0.0894 0.8030 -0.5893
vn -0.0865 0.7763 -0.6244
vn -0.0863 0.7745 -0.6267
vn -0.0827 0.7413 -0.6661
vn -0.0816 0.7315 -0.6769
vn 0.0749 -0.6894 -0.7205
vn 0.0718 -0.6610 -0.7469
vn -0.0820 0.7350 -0.6731
vn -0.0858 0.7702 -0.6320
vn -0.0773 0.6915 -0.7182
vn -0.0824 0.7392 -0.6685
vn 0.0665 -0.6135 -0.7869
vn 0.0706 -0.6502 -0.7565
vn 0.0730 -0.6725 -0.7365
vn 0.0774 -0.7119 -0.6980
vn 0.0835 -0.7661 -0.6372
vn 0.0791 -0.7270 -0.6821
vn 0.0835 -0.7661 -0.6372
vn 0.0779 -0.7156 -0.6941
vn -0.0966 0.8822 0.4608
vn -0.0774 0.6932 -0.7166
vn -0.0968 0.8845 0.4564
vn -0.0776 0.6945 -0.7153
vn -0.0735 0.6573 -0.7500
vn -0.0687 0.6129 -0.7872
vn -0.0720 0.6429 -0.7625
vn -0.0669 0.5965 -0.7998
vn -0.0635 0.5648 -0.8228
vn 0.0554 -0.5136 -0.8562
vn -0.0619 0.5503 -0.8326
vn 0.0662 -0.6113 -0.7886
vn 0.0529 -0.4918 -0.8691
vn 0.0645 -0.5954 -0.8008
vn -0.0619 0.5504 -0.8326
vn 0.0587 -0.5439 -0.8371
vn 0.0640 -0.5910 -0.8041
vn 0.0533 -0.4955 -0.8670
vn 0.0593 -0.5489 -0.8338
vn 0.0633 -0.5848 -0.8087
vn 0.0599 -0.5544 -0.8301
vn 0.0543 -0.5040 -0.8620
vn -0.0633 0.5632 -0.8239
vn -0.0672 0.5992 -0.7978
vn -0.0710 0.6337 -0.7703
vn -0.0720 0.6429 -0.7625
vt 1.000000 0.249715
vt 1.000000 0.271997
vt 1.000000 0.258285
vt 1.000000 0.232354
vt 1.000000 0.221884
vt 1.000000 0.098814
vt 1.000000 0.074864
vt 1.000000 0.065137
vt 1.000000 0.106013
vt 1.000000 0.651186
vt 1.000000 0.659389
vt 1.000000 0.693127
vt 1.000000 0.732354
vt 0.999082 0.750295
vt 1.000000 0.721884
vt 1.000000 0.684862
vt 1.000000 0.675136
vt 1.000000 0.643987
vt 0.993516 0.469795
vt 0.996025 0.280204
vt 0.996000 0.469796
vt 0.875000 0.469773
vt 0.875000 0.481340
vt 0.993508 0.481353
vt 0.875000 0.500000
vt 1.000000 0.469796
vt 1.000000 0.481042
vt 0.993485 0.500000
vt 0.993485 0.517356
vt 0.996058 0.481644
vt 0.995911 0.500000
vt 0.996040 0.517087
vt 0.995978 0.528116
vt 0.999082 0.499705
vt 1.000000 0.517646
vt 1.000000 0.528116
vt 1.000000 0.500285
vt 1.000000 0.491715
vt 1.000000 0.485204
vt 1.000000 0.478003
vt 1.000000 0.264796
vt 1.000000 0.028116
vt 1.000000 0.017646
vt 1.000000 0.038301
vt 1.000000 0.056872
vt 1.000000 0.090611
vt 0.001447 0.733274
vt 0.000000 0.683712
vt 0.000000 0.732354
vt 0.030067 0.223781
vt 0.010241 0.028206
vt 0.125000 0.028116
vt 0.125000 0.221884
vt 0.125000 0.232644
vt 0.125000 0.017356
vt 0.250000 0.017356
vt 0.010251 0.017418
vt 0.250000 0.000000
vt 0.125000 0.000000
vt 0.374958 0.000000
vt 0.010273 0.000000
vt 0.374989 0.017356
vt 0.006447 0.000000
vt 0.250000 0.028116
vt 0.375000 0.028116
vt 0.250000 0.221884
vt 0.006226 0.017134
vt 0.004342 0.000000
vt 0.000000 0.017646
vt 0.006319 0.028181
vt 0.000000 0.028116
vt 0.009585 0.167698
vt 0.005844 0.168222
vt 0.010329 0.192455
vt 0.000010 0.169163
vt 0.006470 0.196284
vt 0.000000 0.076378
vt 0.013899 0.211958
vt 0.021022 0.221744
vt 0.029878 0.234013
vt 0.019624 0.232302
vt 0.010160 0.222193
vt 0.000785 0.200390
vt 0.000003 0.199905
vt 0.003226 0.241169
vt 0.018126 0.247851
vt 0.029536 0.249974
vt 0.000759 0.226248
vt 0.125000 0.250000
vt 0.029533 0.268639
vt 0.250000 0.232644
vt 0.125000 0.268644
vt 0.250000 0.250000
vt 0.375008 0.232644
vt 0.018204 0.266879
vt 0.029533 0.280202
vt 0.018231 0.278647
vt 0.018231 0.471353
vt 0.029533 0.469798
vt 0.018204 0.483121
vt 0.002972 0.261739
vt 0.002883 0.274218
vt 0.000749 0.242361
vt 0.000749 0.507639
vt 0.002883 0.475783
vt 0.002972 0.488261
vt 0.000759 0.523752
vt 0.003226 0.508831
vt 0.018126 0.502149
vt 0.000785 0.549610
vt 0.010160 0.527807
vt 0.029533 0.481361
vt 0.029536 0.500026
vt 0.000003 0.550096
vt 0.019624 0.517698
vt 0.013899 0.538042
vt 0.029878 0.515987
vt 0.010329 0.557545
vt 0.021022 0.528256
vt 0.006470 0.553716
vt 0.000010 0.580837
vt 0.005844 0.581778
vt 0.030067 0.526219
vt 0.009585 0.582302
vt 0.000000 0.721884
vt 0.000000 0.673622
vt 0.006319 0.721819
vt 0.010241 0.721794
vt 0.006226 0.732866
vt 0.010251 0.732582
vt 0.006447 0.750000
vt 0.010273 0.750000
vt 0.000000 0.693133
vt 0.000000 0.649869
vt 0.000000 0.659394
vt 0.000000 0.090607
vt 0.000000 0.642141
vt 0.000000 0.100132
vt 0.000000 0.056868
vt 0.000000 0.066289
vt 0.000000 0.011883
vt 0.000000 0.107859
vt 0.000000 0.218903
vt 0.000000 0.531098
vt 0.750000 0.028116
vt 0.625000 0.221884
vt 0.625000 0.028116
vt 0.750000 0.221884
vt 0.749881 0.017356
vt 0.625132 0.017356
vt 0.749541 0.000000
vt 0.625510 0.000000
vt 0.875000 0.028116
vt 0.874909 0.017356
vt 0.750087 0.017356
vt 0.874649 0.000000
vt 0.750334 0.000000
vt 0.875000 0.221884
vt 0.874964 0.232644
vt 0.993596 0.232644
vt 0.993596 0.028116
vt 0.993596 0.221884
vt 0.996108 0.232913
vt 0.993596 0.017356
vt 0.875020 0.017356
vt 0.993596 0.000000
vt 0.875075 0.000000
vt 0.995981 0.000000
vt 0.996108 0.017087
vt 1.000000 0.011883
vt 0.996047 0.028116
vt 0.996047 0.221884
vt 0.995981 0.250000
vt 0.999098 0.250295
vt 0.996091 0.268356
vt 1.000000 0.268958
vt 1.000000 0.280204
vt 0.993574 0.268646
vt 0.993596 0.250000
vt 0.993566 0.280205
vt 0.875000 0.280226
vt 0.499990 0.250000
vt 0.625000 0.268661
vt 0.500000 0.268660
vt 0.499997 0.232644
vt 0.625000 0.280229
vt 0.500000 0.280228
vt 0.625075 0.250000
vt 0.375000 0.221884
vt 0.500000 0.221884
vt 0.500000 0.028116
vt 0.499904 0.017356
vt 0.375027 0.017356
vt 0.499630 0.000000
vt 0.375105 0.000000
vt 0.625020 0.232644
vt 0.749938 0.250000
vt 0.624907 0.017356
vt 0.500091 0.017356
vt 0.624641 0.000000
vt 0.500351 0.000000
vt 0.749984 0.232644
vt 0.750000 0.268658
vt 0.874862 0.250000
vt 0.875000 0.268659
vt 0.750000 0.280224
vt 0.625000 0.469769
vt 0.500000 0.469770
vt 0.750000 0.469776
vt 0.625000 0.481338
vt 0.500000 0.481339
vt 0.625000 0.500000
vt 0.750000 0.481342
vt 0.500000 0.500000
vt 0.750000 0.500000
vt 0.250000 0.280203
vt 0.250000 0.469798
vt 0.125000 0.469798
vt 0.125000 0.280202
vt 0.125000 0.481356
vt 0.250000 0.268644
vt 0.125000 0.500000
vt 0.125000 0.517356
vt 0.250000 0.481356
vt 0.250000 0.500000
vt 0.250000 0.517356
vt 0.374992 0.517356
vt 0.375000 0.528116
vt 0.375000 0.500000
vt 0.375000 0.481355
vt 0.375000 0.469796
vt 0.375000 0.280204
vt 0.375000 0.268646
vt 0.375032 0.250000
vt 0.624970 0.517356
vt 0.750024 0.517356
vt 0.875044 0.517356
vt 0.500002 0.517356
vt 0.625000 0.528116
vt 0.500000 0.528116
vt 0.500000 0.721884
vt 0.375000 0.721884
vt 0.374993 0.732644
vt 0.500002 0.732644
vt 0.375000 0.750000
vt 0.625000 0.721884
vt 0.624970 0.732644
vt 0.500000 0.750000
vt 0.375000 0.768645
vt 0.625000 0.750000
vt 0.500000 0.768661
vt 0.375000 0.780203
vt 0.250000 0.780202
vt 0.250000 0.969797
vt 0.500000 0.780230
vt 0.375000 0.969796
vt 0.250000 0.981355
vt 0.375000 0.981354
vt 0.500000 0.969772
vt 0.500000 0.981340
vt 0.375105 1.000000
vt 0.499630 1.000000
vt 0.625000 0.969771
vt 0.625000 0.780231
vt 0.625000 0.768662
vt 0.625000 0.981339
vt 0.500351 1.000000
vt 0.624641 1.000000
vt 0.750000 0.981342
vt 0.749541 1.000000
vt 0.625510 1.000000
vt 0.750000 0.969776
vt 0.750000 0.780224
vt 0.750000 0.768658
vt 0.750000 0.750000
vt 0.750024 0.732644
vt 0.750000 0.721884
vt 0.750000 0.528116
vt 0.875000 0.528116
vt 0.875000 0.721884
vt 0.875044 0.732644
vt 0.993485 0.721884
vt 0.993485 0.528116
vt 0.875000 0.750000
vt 0.993485 0.732644
vt 0.995978 0.721884
vt 0.993485 0.750000
vt 0.996040 0.732913
vt 0.993508 0.768646
vt 0.995911 0.750000
vt 0.996058 0.768356
vt 1.000000 0.768958
vt 0.996000 0.780204
vt 1.000000 0.780204
vt 1.000000 0.969796
vt 0.996025 0.969796
vt 1.000000 0.981043
vt 0.993516 0.780205
vt 0.875000 0.768660
vt 0.875000 0.780227
vt 0.993566 0.969795
vt 0.875000 0.969774
vt 0.993574 0.981354
vt 0.875000 0.981341
vt 0.750334 1.000000
vt 0.874649 1.000000
vt 0.993596 1.000000
vt 0.875075 1.000000
vt 0.995981 1.000000
vt 0.996091 0.981644
vt 0.997293 1.000000
vt 0.250000 0.528116
vt 0.125000 0.721884
vt 0.125000 0.528116
vt 0.250000 0.721884
vt 0.125000 0.732644
vt 0.125000 0.750000
vt 0.250000 0.732644
vt 0.010273 0.768644
vt 0.250000 0.750000
vt 0.250000 0.768644
vt 0.125000 0.768644
vt 0.125000 0.780202
vt 0.125000 0.969797
vt 0.010273 0.780202
vt 0.125000 0.981355
vt 0.250000 1.000000
vt 0.125000 1.000000
vt 0.374958 1.000000
vt 0.010273 0.969797
vt 0.010273 1.000000
vt 0.006341 0.780202
vt 0.010273 0.981356
vt 0.006447 1.000000
vt 0.006341 0.969797
vt 0.006243 0.981645
vt 0.000000 0.987235
vt 0.000000 0.981044
vt 0.000000 0.969798
vt 0.000000 0.780202
vt 0.000000 0.768956
vt 0.006243 0.768354
s 1
f 1/1/1 2/2/2 3/3/3
f 4/4/4 1/1/1 3/3/3
f 1/1/1 4/4/4 5/5/5
f 6/6/6 7/7/7 8/8/8
f 7/7/7 6/6/6 9/9/9
f 10/10/10 9/9/9 6/6/6
f 10/10/10 6/6/6 11/11/11
f 10/10/10 11/11/11 12/12/12
f 13/13/13 12/12/14 14/14/15
f 15/15/16 16/16/17 13/13/13
f 16/16/17 15/15/16 17/17/18
f 16/16/17 17/17/18 18/18/19
f 19/19/20 20/20/21 21/21/22
f 22/22/23 19/19/20 23/23/24
f 23/23/24 19/19/20 24/24/25
f 21/21/22 24/24/25 19/19/20
f 23/23/24 24/24/25 25/25/26
f 21/21/22 26/26/27 27/27/28
f 25/25/26 24/24/25 28/28/29
f 29/29/30 25/25/26 28/28/29
f 24/24/25 21/21/22 30/30/31
f 30/30/31 21/21/22 27/27/28
f 31/31/32 28/28/29 24/24/25
f 24/24/25 30/30/31 31/31/32
f 28/28/29 32/32/33 29/29/30
f 32/32/33 28/28/29 31/31/32
f 33/33/34 29/29/30 32/32/33
f 31/31/32 30/30/31 34/34/35
f 30/30/31 27/27/28 34/34/35
f 34/34/35 32/32/33 31/31/32
f 32/32/33 34/34/35 35/35/36
f 27/27/28 35/35/36 34/34/35
f 35/35/36 33/33/34 32/32/33
f 33/33/34 35/35/36 36/36/37
f 37/15/16 33/33/34 36/36/37
f 36/36/37 38/17/38 37/15/16
f 39/37/39 38/17/38 36/36/37
f 36/36/37 40/38/40 39/37/39
f 41/39/41 38/17/38 39/37/39
f 40/38/40 41/39/41 39/37/39
f 38/17/38 41/39/41 42/18/19
f 27/27/42 43/40/43 40/38/40
f 41/39/41 40/38/40 43/40/43
f 43/40/43 27/27/42 44/26/44
f 43/40/43 45/41/45 41/39/41
f 41/39/41 45/41/45 42/18/19
f 45/41/45 43/40/43 46/2/46
f 42/18/19 45/41/45 47/9/47
f 45/41/45 48/7/48 47/9/47
f 42/18/19 47/9/47 49/10/49
f 50/16/50 42/18/19 49/10/49
f 51/12/12 50/16/50 49/10/49
f 51/12/12 52/13/13 50/16/50
f 48/7/51 53/42/52 54/43/53
f 55/8/54 48/7/51 54/43/53
f 55/8/54 54/43/53 56/44/55
f 57/45/56 55/8/54 56/44/55
f 58/46/57 55/8/54 57/45/56
f 55/8/54 58/46/57 59/6/58
f 60/11/11 59/6/58 58/46/57
f 61/38/40 62/36/37 63/35/59
f 63/35/59 64/27/28 61/38/40
f 65/47/60 66/48/61 67/49/62
f 68/50/63 69/51/64 70/52/65
f 68/50/63 70/52/65 71/53/66
f 72/54/67 68/50/63 71/53/66
f 69/51/64 73/55/68 70/52/65
f 74/56/68 70/52/65 73/55/68
f 73/55/68 69/51/64 75/57/69
f 73/55/68 76/58/70 74/56/68
f 76/58/70 73/55/68 77/59/70
f 75/57/69 77/59/70 73/55/68
f 78/60/71 74/56/68 76/58/70
f 77/59/70 75/57/69 79/61/72
f 74/56/68 78/60/71 80/62/73
f 81/63/74 79/61/72 75/57/69
f 70/52/65 74/56/68 82/64/65
f 80/62/73 82/64/65 74/56/68
f 82/64/65 83/53/66 70/52/65
f 82/64/65 80/62/73 84/65/75
f 83/53/66 82/64/65 85/66/76
f 84/65/75 85/66/76 82/64/65
f 85/66/76 72/54/67 83/53/66
f 81/63/74 75/57/69 86/67/77
f 87/68/78 81/63/74 86/67/77
f 86/67/77 88/69/79 87/68/78
f 75/57/69 89/70/80 86/67/77
f 88/69/79 86/67/77 89/70/80
f 89/70/80 90/71/81 88/69/79
f 89/70/80 75/57/69 69/51/64
f 69/51/64 91/72/82 89/70/80
f 69/51/64 68/50/63 91/72/82
f 89/70/80 91/72/82 92/73/83
f 89/70/80 92/73/83 93/71/81
f 68/50/63 94/74/84 91/72/82
f 94/74/84 92/73/83 91/72/82
f 93/71/81 92/73/83 95/75/85
f 92/73/83 94/74/84 96/76/86
f 96/76/86 95/75/85 92/73/83
f 95/75/85 97/77/87 93/71/81
f 98/78/88 96/76/86 94/74/84
f 94/74/84 68/50/63 99/79/89
f 94/74/84 99/79/89 98/78/88
f 100/80/90 99/79/89 68/50/63
f 68/50/63 72/54/67 100/80/90
f 101/81/91 98/78/88 99/79/89
f 99/79/89 100/80/90 101/81/91
f 96/76/86 98/78/88 102/82/92
f 98/78/88 101/81/91 102/82/92
f 95/75/85 96/76/86 103/83/93
f 102/82/92 103/83/93 96/76/86
f 103/83/93 104/84/94 95/75/85
f 97/77/87 95/75/85 104/84/94
f 103/83/93 102/82/92 105/85/95
f 106/86/96 102/82/92 101/81/91
f 102/82/92 106/86/96 105/85/95
f 101/81/91 107/87/97 106/86/96
f 107/87/97 101/81/91 100/80/90
f 104/84/94 103/83/93 108/88/98
f 105/85/95 108/88/98 103/83/93
f 100/80/90 109/89/99 107/87/97
f 109/89/99 100/80/90 72/54/67
f 110/90/100 106/86/96 107/87/97
f 111/91/67 109/89/99 72/54/67
f 72/54/67 85/66/76 111/91/67
f 112/92/101 107/87/97 109/89/99
f 107/87/97 112/92/101 110/90/100
f 109/89/99 111/91/67 113/93/99
f 112/92/101 109/89/99 113/93/99
f 85/66/76 114/94/102 111/91/67
f 106/86/96 110/90/100 115/95/103
f 115/95/103 105/85/95 106/86/96
f 116/96/104 115/95/103 110/90/100
f 115/95/103 116/96/104 117/97/105
f 116/96/104 118/98/106 117/97/105
f 118/98/106 116/96/104 119/99/107
f 118/98/106 119/99/107 120/100/108
f 105/85/95 115/95/103 121/101/109
f 122/97/110 121/101/109 115/95/103
f 121/101/109 108/88/98 105/85/95
f 121/101/109 122/97/110 123/102/111
f 121/101/109 124/103/112 108/88/98
f 124/103/112 121/101/109 125/102/113
f 125/102/113 126/104/114 124/103/112
f 122/97/110 127/105/115 123/102/111
f 126/104/114 125/102/113 127/105/115
f 127/105/115 122/97/110 128/98/116
f 129/106/117 126/104/114 127/105/115
f 127/105/115 128/98/116 129/106/117
f 120/100/108 129/106/117 128/98/116
f 126/104/114 129/106/117 130/107/118
f 129/106/117 120/100/108 131/108/119
f 131/108/119 130/107/118 129/106/117
f 132/109/120 131/108/119 120/100/108
f 130/107/118 131/108/119 133/110/121
f 131/108/119 132/109/120 134/111/122
f 134/111/122 133/110/121 131/108/119
f 120/100/108 135/112/123 132/109/120
f 135/112/123 120/100/108 119/99/107
f 136/113/124 132/109/120 135/112/123
f 133/110/121 137/114/125 130/107/118
f 136/113/124 138/115/126 132/109/120
f 134/111/122 132/109/120 138/115/126
f 134/111/122 138/115/126 139/116/127
f 138/115/126 136/113/124 140/117/128
f 141/118/129 134/111/122 139/116/127
f 139/116/127 138/115/126 142/119/130
f 142/119/130 141/118/129 139/116/127
f 140/117/128 142/119/130 138/115/126
f 133/110/121 134/111/122 143/120/131
f 143/120/131 134/111/122 141/118/129
f 143/120/131 144/121/132 133/110/121
f 137/114/125 133/110/121 144/121/132
f 141/118/129 145/122/133 143/120/131
f 144/121/132 143/120/131 145/122/133
f 141/118/129 142/119/130 146/123/134
f 142/119/130 140/117/128 146/123/134
f 145/122/133 141/118/129 147/124/135
f 141/118/129 146/123/134 147/124/135
f 145/122/133 148/125/136 144/121/132
f 144/121/132 149/126/137 137/114/125
f 149/126/137 144/121/132 148/125/136
f 148/125/136 145/122/133 150/127/138
f 147/124/135 150/127/138 145/122/133
f 148/125/136 150/127/138 151/49/139
f 151/49/62 149/126/137 152/125/140
f 150/127/138 147/124/135 153/128/141
f 146/123/134 153/128/141 147/124/135
f 149/126/137 151/49/62 154/48/142
f 150/127/138 155/129/143 151/49/139
f 151/49/139 155/129/143 156/47/144
f 157/130/145 150/127/138 153/128/141
f 150/127/138 157/130/145 155/129/143
f 155/129/143 158/131/146 156/47/144
f 155/129/143 157/130/145 158/131/146
f 157/130/145 159/132/147 158/131/146
f 154/48/142 156/47/60 160/133/148
f 160/133/148 161/134/149 154/48/142
f 161/134/149 149/126/137 154/48/142
f 161/134/149 160/133/148 162/135/150
f 162/135/150 163/136/151 161/134/149
f 149/126/137 161/134/149 164/137/152
f 161/134/149 163/136/151 165/138/153
f 161/134/149 165/138/153 164/137/152
f 163/136/151 166/139/154 165/138/153
f 164/137/152 137/114/125 149/126/137
f 165/138/153 166/139/154 167/140/155
f 166/139/154 168/141/78 167/140/155
f 167/140/155 168/141/78 169/69/156
f 169/69/156 97/77/87 167/140/155
f 97/77/87 165/138/153 167/140/155
f 97/77/87 169/69/156 170/71/157
f 165/138/153 97/77/87 171/142/158
f 164/137/152 165/138/153 171/142/158
f 104/84/94 171/142/158 97/77/87
f 171/142/158 104/84/94 172/143/159
f 164/137/152 171/142/158 172/143/159
f 108/88/98 172/143/159 104/84/94
f 172/143/159 108/88/98 173/103/160
f 174/144/161 164/137/152 172/143/159
f 173/103/160 174/144/161 172/143/159
f 137/114/125 164/137/152 174/144/161
f 174/144/161 173/103/160 175/104/162
f 174/144/161 130/107/118 137/114/125
f 130/107/118 174/144/161 175/104/162
f 176/145/163 177/146/164 178/147/165
f 177/146/164 176/145/163 179/148/166
f 178/147/165 180/149/167 176/145/163
f 180/149/167 178/147/165 181/150/168
f 181/150/168 182/151/169 180/149/167
f 182/151/169 181/150/168 183/152/170
f 184/153/171 179/148/166 176/145/163
f 176/145/163 185/154/172 184/153/171
f 185/154/172 176/145/163 186/155/173
f 186/155/173 187/156/174 185/154/172
f 187/156/174 186/155/173 188/157/169
f 179/148/166 184/153/171 189/158/175
f 190/159/176 179/148/166 189/158/175
f 189/158/175 191/160/177 190/159/176
f 192/161/178 189/158/175 184/153/171
f 191/160/177 189/158/175 193/162/179
f 189/158/175 192/161/178 193/162/179
f 193/162/179 194/163/180 191/160/177
f 184/153/171 195/164/181 192/161/178
f 195/164/181 184/153/171 196/165/172
f 196/165/172 197/166/182 195/164/181
f 197/166/182 196/165/172 198/167/174
f 199/168/183 195/164/181 197/166/182
f 200/169/184 192/161/178 195/164/181
f 195/164/181 199/168/183 200/169/184
f 199/168/183 201/43/185 200/169/184
f 201/43/185 199/168/183 202/170/186
f 203/42/52 200/169/184 201/43/185
f 200/169/184 203/42/52 204/171/187
f 192/161/178 200/169/184 204/171/187
f 204/171/187 193/162/179 192/161/178
f 193/162/179 204/171/187 205/172/188
f 205/172/188 194/163/180 193/162/179
f 206/42/52 205/172/188 204/171/187
f 205/172/188 206/42/52 207/5/5
f 207/5/5 194/163/180 205/172/188
f 48/7/48 207/5/5 206/42/52
f 194/163/180 207/5/5 208/4/189
f 207/5/5 48/7/48 209/1/1
f 208/4/189 210/173/190 194/163/180
f 194/163/180 210/173/190 191/160/177
f 210/173/190 208/4/189 211/174/191
f 212/3/192 211/174/191 208/4/189
f 48/7/48 45/41/45 209/1/1
f 210/173/190 211/174/191 213/175/193
f 211/174/191 212/3/192 214/176/194
f 214/176/194 213/175/193 211/174/191
f 212/3/192 215/177/195 214/176/194
f 215/177/195 212/3/192 46/2/196
f 46/2/46 209/1/1 45/41/45
f 216/178/197 210/173/190 213/175/193
f 217/179/198 210/173/190 216/178/197
f 20/20/21 213/175/193 214/176/194
f 20/20/21 216/178/197 213/175/193
f 20/20/21 214/176/194 218/177/195
f 46/2/46 26/26/27 218/177/195
f 216/178/197 20/20/21 219/180/199
f 220/181/200 216/178/197 219/180/199
f 220/181/200 219/180/199 22/22/23
f 21/21/22 218/177/195 26/26/27
f 218/177/195 21/21/22 20/20/21
f 26/26/27 46/2/46 43/40/43
f 22/22/23 219/180/199 19/19/20
f 20/20/21 19/19/20 219/180/199
f 221/182/201 222/183/202 223/184/203
f 221/182/201 114/94/102 224/185/204
f 225/186/205 223/184/203 222/183/202
f 223/184/203 225/186/205 226/187/206
f 222/183/202 221/182/201 227/188/207
f 224/185/204 227/188/207 221/182/201
f 228/189/208 224/185/204 114/94/102
f 114/94/102 85/66/76 228/189/208
f 85/66/76 84/65/75 228/189/208
f 224/185/204 228/189/208 229/190/209
f 84/65/75 229/190/209 228/189/208
f 229/190/209 84/65/75 230/191/210
f 84/65/75 231/192/211 230/191/210
f 231/192/211 84/65/75 232/193/73
f 232/193/73 233/194/212 231/192/211
f 233/194/212 232/193/73 234/195/71
f 229/190/209 235/196/213 224/185/204
f 227/188/207 224/185/204 235/196/213
f 235/196/213 229/190/209 177/146/164
f 235/196/213 236/197/214 227/188/207
f 227/188/207 236/197/214 222/183/202
f 237/191/210 177/146/164 229/190/209
f 177/146/164 237/191/210 238/147/215
f 237/191/210 239/198/168 238/147/215
f 239/198/168 237/191/210 240/199/211
f 240/199/211 241/200/170 239/198/168
f 241/200/170 240/199/211 242/201/212
f 177/146/164 243/202/216 235/196/213
f 236/197/214 235/196/213 243/202/216
f 243/202/216 177/146/164 179/148/166
f 244/203/217 222/183/202 236/197/214
f 222/183/202 244/203/217 225/186/205
f 243/202/216 245/204/218 236/197/214
f 236/197/214 246/205/219 244/203/217
f 246/205/219 236/197/214 245/204/218
f 245/204/218 243/202/216 190/159/176
f 179/148/166 190/159/176 243/202/216
f 245/204/218 247/179/220 246/205/219
f 190/159/176 247/179/220 245/204/218
f 246/205/219 247/179/220 216/178/197
f 247/179/220 190/159/176 191/160/177
f 220/181/200 244/203/217 246/205/219
f 246/205/219 216/178/197 220/181/200
f 244/203/217 220/181/200 248/206/221
f 248/206/221 225/186/205 244/203/217
f 249/22/222 248/206/221 220/181/200
f 191/160/177 210/173/190 247/179/220
f 250/207/223 225/186/205 248/206/221
f 250/207/223 226/187/206 225/186/205
f 226/187/206 250/207/223 251/208/224
f 248/206/221 249/22/222 252/209/225
f 250/207/223 248/206/221 252/209/225
f 23/23/24 252/209/225 249/22/222
f 253/210/226 251/208/224 250/207/223
f 250/207/223 252/209/225 253/210/226
f 251/208/224 253/210/226 254/211/227
f 255/212/228 254/211/227 253/210/226
f 256/213/229 253/210/226 252/209/225
f 253/210/226 256/213/229 255/212/228
f 252/209/225 23/23/24 256/213/229
f 254/211/227 255/212/228 257/214/230
f 25/25/26 256/213/229 23/23/24
f 258/215/231 255/212/228 256/213/229
f 256/213/229 25/25/26 258/215/231
f 259/216/232 260/217/233 261/218/233
f 261/218/233 262/219/234 259/216/232
f 261/218/233 263/99/107 262/219/234
f 263/99/107 261/218/233 135/112/123
f 263/99/107 264/96/104 262/219/234
f 110/90/100 262/219/234 264/96/104
f 262/219/234 110/90/100 112/92/101
f 265/220/235 135/112/123 261/218/233
f 265/220/235 261/218/233 260/217/233
f 135/112/123 265/220/235 136/113/124
f 262/219/234 112/92/101 266/221/101
f 266/221/101 259/216/232 262/219/234
f 266/221/101 112/92/101 113/93/99
f 267/222/236 136/113/124 265/220/235
f 267/222/236 140/117/128 136/113/124
f 140/117/128 267/222/236 268/223/237
f 267/222/236 265/220/235 269/224/235
f 260/217/233 269/224/235 265/220/235
f 270/225/238 268/223/237 267/222/236
f 270/225/238 267/222/236 269/224/235
f 268/223/237 270/225/238 271/226/237
f 270/225/238 272/227/239 271/226/237
f 273/228/240 271/226/237 272/227/239
f 269/224/235 274/229/241 270/225/238
f 272/227/239 270/225/238 274/229/241
f 260/217/233 275/230/242 269/224/235
f 274/229/241 269/224/235 275/230/242
f 275/230/242 260/217/233 276/231/243
f 259/216/232 276/231/243 260/217/233
f 275/230/242 257/214/230 274/229/241
f 276/231/243 259/216/232 277/232/244
f 266/221/101 277/232/244 259/216/232
f 276/231/243 254/211/227 275/230/242
f 257/214/230 275/230/242 254/211/227
f 277/232/244 278/208/224 276/231/243
f 254/211/227 276/231/243 278/208/224
f 278/208/224 277/232/244 279/187/206
f 277/232/244 266/221/101 280/233/245
f 280/233/245 279/187/206 277/232/244
f 113/93/99 280/233/245 266/221/101
f 279/187/206 280/233/245 223/184/203
f 280/233/245 113/93/99 281/234/246
f 281/234/246 223/184/203 280/233/245
f 111/91/67 281/234/246 113/93/99
f 281/234/246 111/91/67 114/94/102
f 223/184/203 281/234/246 221/182/201
f 114/94/102 221/182/201 281/234/246
f 282/235/247 257/214/230 255/212/228
f 283/236/248 255/212/228 258/215/231
f 255/212/228 283/236/248 282/235/247
f 258/215/231 284/237/249 283/236/248
f 284/237/249 258/215/231 25/25/26
f 257/214/230 282/235/247 285/238/250
f 285/238/250 274/229/241 257/214/230
f 274/229/241 285/238/250 272/227/239
f 286/239/251 285/238/250 282/235/247
f 287/240/252 272/227/239 285/238/250
f 285/238/250 286/239/251 287/240/252
f 272/227/239 287/240/252 273/228/240
f 288/241/253 273/228/240 287/240/252
f 273/228/240 288/241/253 289/242/254
f 288/241/253 290/243/255 289/242/254
f 290/243/255 288/241/253 291/244/256
f 286/239/251 292/241/253 287/240/252
f 291/244/256 293/245/257 290/243/255
f 292/241/253 286/239/251 294/246/258
f 294/246/258 291/244/256 292/241/253
f 291/244/256 294/246/258 295/247/259
f 293/245/257 291/244/256 296/248/260
f 295/247/259 296/248/260 291/244/256
f 296/248/260 297/249/261 293/245/257
f 296/248/260 295/247/259 298/250/262
f 297/249/261 296/248/260 299/251/263
f 298/250/262 299/251/263 296/248/260
f 299/251/263 300/252/264 297/249/261
f 301/253/265 297/249/261 300/252/264
f 300/252/264 302/254/266 301/253/265
f 300/252/264 299/251/263 303/255/267
f 302/254/266 300/252/264 304/256/268
f 303/255/267 304/256/268 300/252/264
f 304/256/268 305/257/269 302/254/266
f 305/257/269 304/256/268 306/258/270
f 304/256/268 303/255/267 307/259/271
f 307/259/271 306/258/270 304/256/268
f 306/258/270 307/259/271 308/260/272
f 308/260/272 309/261/273 306/258/270
f 309/261/273 308/260/272 310/262/212
f 311/263/274 308/260/272 307/259/271
f 307/259/271 312/264/275 311/263/274
f 312/264/275 307/259/271 313/255/267
f 313/255/267 314/265/276 312/264/275
f 314/265/276 313/255/267 299/251/263
f 299/251/263 298/250/262 314/265/276
f 308/260/272 311/263/274 315/266/277
f 315/266/277 316/267/212 308/260/272
f 316/267/212 315/266/277 317/268/170
f 311/263/274 318/269/278 315/266/277
f 319/270/279 315/266/277 318/269/278
f 315/266/277 319/270/279 320/271/170
f 318/269/278 311/263/274 321/272/280
f 322/264/281 321/272/280 311/263/274
f 321/272/280 322/264/281 323/273/282
f 314/265/276 323/273/282 322/264/281
f 323/273/282 314/265/276 324/274/283
f 298/250/262 324/274/283 314/265/276
f 324/274/283 298/250/262 325/275/284
f 298/250/262 326/276/285 325/275/284
f 326/276/285 298/250/262 295/247/259
f 295/247/259 327/277/286 326/276/285
f 327/277/286 295/247/259 328/246/258
f 286/239/251 327/277/286 328/246/258
f 327/277/286 286/239/251 329/278/287
f 282/235/247 329/278/287 286/239/251
f 329/278/287 282/235/247 283/236/248
f 283/236/248 330/279/288 329/278/287
f 330/279/288 283/236/248 284/237/249
f 331/280/289 329/278/287 330/279/288
f 329/278/287 331/280/289 332/277/286
f 331/280/289 326/276/285 332/277/286
f 326/276/285 331/280/289 333/281/290
f 333/281/290 325/275/284 326/276/285
f 330/279/288 334/282/291 331/280/289
f 334/282/291 333/281/290 331/280/289
f 284/237/249 335/283/292 330/279/288
f 334/282/291 330/279/288 335/283/292
f 325/275/284 333/281/290 336/284/293
f 336/284/293 324/274/283 325/275/284
f 333/281/290 334/282/291 337/285/294
f 337/285/294 336/284/293 333/281/290
f 335/283/292 338/286/295 334/282/291
f 338/286/295 337/285/294 334/282/291
f 335/283/292 284/237/249 29/29/30
f 25/25/26 29/29/30 284/237/249
f 29/29/30 33/33/34 335/283/292
f 33/33/34 338/286/295 335/283/292
f 336/284/293 337/285/294 339/287/296
f 337/285/294 338/286/295 340/288/297
f 340/288/297 339/287/296 337/285/294
f 341/289/298 336/284/293 339/287/296
f 338/286/295 342/13/299 340/288/297
f 37/15/16 342/13/299 338/286/295
f 33/33/34 37/15/16 338/286/295
f 342/13/299 343/14/15 340/288/297
f 339/287/296 340/288/297 344/290/300
f 340/288/297 343/14/15 344/290/300
f 344/290/300 341/289/298 345/287/296
f 343/14/15 346/291/301 344/290/300
f 341/289/298 344/290/300 346/291/301
f 346/291/301 343/14/15 347/292/302
f 347/292/302 348/293/303 346/291/301
f 348/293/303 341/289/298 346/291/301
f 348/293/303 347/292/302 349/294/304
f 349/294/304 350/295/305 348/293/303
f 348/293/303 350/295/305 351/296/306
f 350/295/305 352/297/56 351/296/306
f 341/289/298 348/293/303 353/298/307
f 348/293/303 351/296/306 353/298/307
f 353/298/307 354/299/308 341/289/298
f 336/284/293 341/289/298 354/299/308
f 324/274/283 336/284/293 354/299/308
f 354/299/308 355/273/309 324/274/283
f 355/273/309 354/299/308 356/300/310
f 354/299/308 353/298/307 356/300/310
f 356/300/310 321/272/280 355/273/309
f 353/298/307 351/296/306 357/301/311
f 357/301/311 356/300/310 353/298/307
f 321/272/280 356/300/310 358/302/312
f 356/300/310 357/301/311 358/302/312
f 358/302/312 359/269/278 321/272/280
f 351/296/306 360/303/313 357/301/311
f 360/303/313 358/302/312 357/301/311
f 359/269/278 358/302/312 361/304/314
f 358/302/312 360/303/313 361/304/314
f 361/304/314 362/305/279 359/269/278
f 362/305/279 361/304/314 363/306/315
f 364/307/316 361/304/314 360/303/313
f 361/304/314 364/307/316 365/308/317
f 364/307/316 360/303/313 366/309/183
f 360/303/313 351/296/306 367/310/318
f 360/303/313 367/310/318 366/309/183
f 367/310/318 351/296/306 352/297/56
f 366/309/183 367/310/318 368/311/186
f 367/310/318 352/297/56 368/311/186
f 369/312/319 370/313/320 371/314/321
f 371/314/321 271/226/237 369/312/319
f 370/313/320 369/312/319 372/315/322
f 271/226/237 371/314/321 268/223/237
f 372/315/322 373/316/323 370/313/320
f 373/316/323 153/128/141 370/313/320
f 146/123/134 370/313/320 153/128/141
f 370/313/320 146/123/134 374/314/321
f 146/123/134 268/223/237 374/314/321
f 153/128/141 373/316/323 157/130/145
f 268/223/237 146/123/134 140/117/128
f 375/317/324 157/130/145 373/316/323
f 157/130/145 375/317/324 376/132/325
f 373/316/323 372/315/322 377/318/323
f 377/318/323 375/317/324 373/316/323
f 378/242/254 377/318/323 372/315/322
f 379/312/319 378/242/254 372/315/322
f 378/242/254 379/312/319 273/228/240
f 271/226/237 273/228/240 379/312/319
f 377/318/323 378/242/254 290/243/255
f 375/317/324 380/319/326 376/132/325
f 375/317/324 377/318/323 381/320/324
f 290/243/255 381/320/324 377/318/323
f 382/321/327 375/317/324 381/320/324
f 381/320/324 290/243/255 293/245/257
f 293/245/257 382/321/327 381/320/324
f 375/317/324 382/321/327 383/322/327
f 380/319/326 375/317/324 383/322/327
f 382/321/327 293/245/257 297/249/261
f 301/253/265 383/322/327 382/321/327
f 297/249/261 301/253/265 382/321/327
f 383/322/327 301/253/265 384/323/265
f 385/254/328 384/323/265 301/253/265
f 384/323/265 385/254/328 386/324/266
f 305/257/269 386/324/266 385/254/328
f 387/325/329 383/322/327 384/323/265
f 383/322/327 387/325/329 380/319/326
f 388/324/266 387/325/329 384/323/265
f 386/324/266 305/257/269 389/326/269
f 390/327/330 389/326/269 305/257/269
f 389/326/269 390/327/330 391/328/330
f 306/258/270 390/327/330 305/257/269
f 390/327/330 306/258/270 392/329/273
f 387/325/329 388/324/266 393/330/331
f 394/326/269 393/330/331 388/324/266
f 395/331/332 394/326/269 391/328/330
f 387/325/329 393/330/331 396/332/333
f 396/332/333 380/319/326 387/325/329
f 394/326/269 395/331/332 397/333/334
f 393/330/331 394/326/269 397/333/334
f 397/333/334 395/331/332 398/334/335
f 397/333/334 399/335/336 393/330/331
f 396/332/333 393/330/331 399/335/336
f 400/336/337 397/333/334 398/334/335
f 399/335/336 397/333/334 400/336/337
f 400/336/337 398/334/335 401/337/338
f 402/338/339 400/336/337 401/337/338
f 399/335/336 400/336/337 402/338/339
f 403/339/340 399/335/336 402/338/339
f 404/340/341 399/335/336 403/339/340
f 396/332/333 399/335/336 404/340/341
f 396/332/333 404/340/341 405/341/148
f 405/341/148 406/342/342 396/332/333
f 380/319/326 396/332/333 406/342/342
f 406/342/342 405/341/148 156/47/343
f 156/47/343 407/131/146 406/342/342
f 407/131/146 380/319/326 406/342/342
f 407/131/146 408/132/344 380/319/326
