# Blender 5.2.1 LTS
# www.blender.org
o RenderMesh_111525819308010
v 1.847890 0.205455 1.421765 0 0 0
v 1.860879 0.199625 1.438982 0 0 0
v 1.848659 0.204552 1.423474 0 0 0
v 1.859232 0.200855 1.436197 0 0 0
v 1.724478 0.131798 1.435359 0 0 0
v 1.739087 0.144949 1.432740 0 0 0
v 1.709959 0.120133 1.438812 0 0 0
v 1.701569 0.111699 1.439779 0 0 0
v 1.691779 0.104087 1.442251 0 0 0
v 1.692991 0.106038 1.442602 0 0 0
v 1.684466 0.102535 1.441473 0 0 0
v 1.890023 0.210989 1.509758 0 0 0
v 1.877099 0.216993 1.492260 0 0 0
v 1.879394 0.215260 1.496289 0 0 0
v 1.860546 0.223024 1.472158 0 0 0
v 1.886934 0.213043 1.504708 0 0 0
v 1.726067 0.134599 1.435932 0 0 0
v 1.997425 0.161525 1.591504 0 0 0
v 1.994050 0.160554 1.588429 0 0 0
v 1.996326 0.160657 1.588613 0 0 0
v 1.859232 0.200855 1.436197 0 0 0
v 1.860879 0.199625 1.438982 0 0 0
v 1.739087 0.144949 1.432740 0 0 0
v 1.724478 0.131798 1.435359 0 0 0
v 1.709959 0.120133 1.438812 0 0 0
v 1.704557 0.116671 1.440725 0 0 0
v 1.692991 0.106038 1.442602 0 0 0
v 1.839850 0.230224 1.447260 0 0 0
v 1.826826 0.195213 1.416606 0 0 0
v 1.701569 0.111699 1.439779 0 0 0
v 1.847890 0.205455 1.421765 0 0 0
v 1.848659 0.204552 1.423474 0 0 0
v 1.831739 0.198768 1.416461 0 0 0
v 1.843565 0.205925 1.417940 0 0 0
v 1.832197 0.198813 1.416830 0 0 0
v 1.854108 0.201512 1.431545 0 0 0
v 1.678460 0.102764 1.441326 0 0 0
v 1.671784 0.101181 1.439190 0 0 0
v 1.684466 0.102535 1.441473 0 0 0
v 1.667738 0.100038 1.437740 0 0 0
v 1.670020 0.099810 1.437717 0 0 0
v 1.691779 0.104087 1.442251 0 0 0
v 1.641259 0.096075 1.431823 0 0 0
v 1.644618 0.097236 1.433248 0 0 0
v 1.674774 0.099821 1.438181 0 0 0
v 1.701569 0.111699 1.439779 0 0 0
v 1.642446 0.095550 1.431435 0 0 0
v 0.364649 -0.153554 1.133852 0 0 0
v 1.799342 0.172464 1.420919 0 0 0
v 1.826826 0.195213 1.416606 0 0 0
v 1.648009 0.095708 1.432110 0 0 0
v 0.365759 -0.154021 1.133143 0 0 0
v 1.860546 0.223024 1.472158 0 0 0
v 1.726067 0.134599 1.435932 0 0 0
v 1.704557 0.116671 1.440725 0 0 0
v -2.040230 -0.247585 0.292800 0 0 0
v -2.006740 -0.243310 0.299556 0 0 0
v -2.026596 -0.246467 0.297481 0 0 0
v -2.069066 -0.244914 0.303611 0 0 0
v -2.054945 -0.244181 0.307112 0 0 0
v -1.996879 -0.212381 0.310641 0 0 0
v -1.977902 -0.219182 0.318999 0 0 0
v -2.012817 -0.210050 0.302088 0 0 0
v -2.023557 -0.215292 0.316231 0 0 0
v -2.040382 -0.217300 0.311769 0 0 0
v -1.951823 -0.229416 0.331668 0 0 0
v -1.974855 -0.247488 0.313537 0 0 0
v -1.998168 -0.213412 0.303808 0 0 0
v -1.947123 -0.230361 0.335739 0 0 0
v -2.022169 -0.243642 0.292986 0 0 0
v -1.992215 -0.214944 0.308681 0 0 0
v -1.936375 -0.233244 0.343885 0 0 0
v -1.977902 -0.219182 0.318999 0 0 0
v -1.973191 -0.248936 0.315626 0 0 0
v -2.019126 -0.243945 0.294876 0 0 0
v -1.964981 -0.252255 0.321969 0 0 0
v -2.006740 -0.243310 0.299556 0 0 0
v -1.808872 -0.249606 0.401918 0 0 0
v -1.833521 -0.273134 0.391133 0 0 0
v -1.886748 -0.250644 0.373707 0 0 0
v -1.883770 -0.251015 0.376530 0 0 0
v -1.807280 -0.248767 0.403135 0 0 0
v -1.877994 -0.252260 0.381336 0 0 0
v -1.805654 -0.247890 0.404494 0 0 0
v -1.909771 -0.264873 0.354289 0 0 0
v -1.909797 -0.266050 0.355114 0 0 0
v -1.835100 -0.274458 0.391368 0 0 0
v -1.906536 -0.268158 0.358181 0 0 0
v -1.836133 -0.275710 0.391886 0 0 0
v -1.951823 -0.229416 0.331668 0 0 0
v -1.974855 -0.247488 0.313537 0 0 0
v -1.947123 -0.230361 0.335739 0 0 0
v -1.973191 -0.248936 0.315626 0 0 0
v -1.883770 -0.251015 0.376530 0 0 0
v -1.936375 -0.233244 0.343885 0 0 0
v -1.877994 -0.252260 0.381336 0 0 0
v -1.909797 -0.266050 0.355114 0 0 0
v -1.964981 -0.252255 0.321969 0 0 0
v -1.906536 -0.268158 0.358181 0 0 0
v 0.036743 -0.217580 1.122283 0 0 0
v 0.075829 -0.232354 1.134220 0 0 0
v 0.333021 -0.186209 1.146820 0 0 0
v 0.258726 -0.186814 1.134834 0 0 0
v 0.643365 -0.077423 1.235944 0 0 0
v 0.648280 -0.076967 1.236226 0 0 0
v 0.336283 -0.186106 1.147669 0 0 0
v 0.077745 -0.233100 1.134120 0 0 0
v 0.336964 -0.186797 1.147349 0 0 0
v 0.649318 -0.077524 1.235788 0 0 0
v 1.958217 0.158029 1.580704 0 0 0
v 0.334969 -0.188226 1.145890 0 0 0
v 0.646366 -0.078633 1.234434 0 0 0
v -0.268050 -0.237245 1.051390 0 0 0
v -0.566710 -0.207482 0.907591 0 0 0
v -0.268124 -0.238105 1.050521 0 0 0
v 0.078161 -0.234028 1.133500 0 0 0
v -0.268418 -0.238888 1.049563 0 0 0
v 0.077030 -0.235057 1.132416 0 0 0
v -0.268867 -0.239534 1.048620 0 0 0
v 0.074539 -0.236092 1.131011 0 0 0
v 0.023753 -0.245304 1.092329 0 0 0
v -0.275969 -0.238807 1.023567 0 0 0
v 0.020249 -0.244585 1.090397 0 0 0
v -0.276499 -0.238032 1.022364 0 0 0
v 0.016335 -0.243546 1.088422 0 0 0
v -0.276938 -0.237134 1.021163 0 0 0
v 0.074539 -0.236092 1.131011 0 0 0
v 0.330610 -0.190219 1.143511 0 0 0
v 0.023753 -0.245304 1.092329 0 0 0
v 0.229123 -0.217606 1.118818 0 0 0
v 0.222066 -0.217910 1.118664 0 0 0
v 0.020249 -0.244585 1.090397 0 0 0
v 0.214153 -0.218157 1.118670 0 0 0
v 0.482784 -0.178811 1.201851 0 0 0
v 0.222066 -0.217910 1.118664 0 0 0
v 0.491585 -0.186325 1.212197 0 0 0
v 0.229123 -0.217606 1.118818 0 0 0
v 0.499460 -0.192996 1.221417 0 0 0
v 0.639624 -0.084219 1.234558 0 0 0
v 0.330610 -0.190219 1.143511 0 0 0
v 1.792072 0.164870 1.423532 0 0 0
v 0.491585 -0.186325 1.212197 0 0 0
v 1.804126 0.174366 1.422361 0 0 0
v 1.817790 0.186608 1.419223 0 0 0
v 0.499460 -0.192996 1.221417 0 0 0
v 1.828929 0.195551 1.418077 0 0 0
v 1.832197 0.198813 1.416830 0 0 0
v 1.843565 0.205925 1.417940 0 0 0
v 1.854108 0.201512 1.431545 0 0 0
v 1.839521 0.204086 1.417201 0 0 0
v 1.814854 0.182961 1.421396 0 0 0
v 1.948768 0.157924 1.571690 0 0 0
v 0.639624 -0.084219 1.234558 0 0 0
v 1.971435 0.158249 1.581197 0 0 0
v 1.988377 0.159857 1.586100 0 0 0
v 1.854108 0.201512 1.431545 0 0 0
v 1.955130 0.157172 1.578251 0 0 0
v 1.978987 0.159418 1.585109 0 0 0
v 1.992315 0.160687 1.588986 0 0 0
v 1.988377 0.159857 1.586100 0 0 0
v 1.980210 0.160001 1.586796 0 0 0
v 1.990233 0.160842 1.589415 0 0 0
v 1.980364 0.160516 1.588008 0 0 0
v 1.999138 0.161462 1.591362 0 0 0
v 1.988377 0.159857 1.586100 0 0 0
v 1.993184 0.161382 1.590931 0 0 0
v 1.990484 0.161571 1.591143 0 0 0
v 1.974270 0.160572 1.587477 0 0 0
v 1.990484 0.161571 1.591143 0 0 0
v 1.951217 0.158628 1.581208 0 0 0
v 1.884472 0.211846 1.504357 0 0 0
v 1.871187 0.215471 1.489122 0 0 0
v 1.852212 0.221334 1.466293 0 0 0
v 1.864097 0.219096 1.479433 0 0 0
v 1.884472 0.211846 1.504357 0 0 0
v 1.956852 0.158542 1.581712 0 0 0
v 0.643365 -0.077423 1.235944 0 0 0
v 0.533861 -0.154350 1.257435 0 0 0
v 1.875222 0.215891 1.492262 0 0 0
v 1.845028 0.225028 1.456617 0 0 0
v 1.855750 0.222896 1.468411 0 0 0
v 1.836043 0.229341 1.444673 0 0 0
v 1.866428 0.219420 1.481112 0 0 0
v 1.849180 0.226068 1.459533 0 0 0
v 1.836043 0.229341 1.444673 0 0 0
v 1.824997 0.225567 1.440506 0 0 0
v 1.865609 0.220360 1.479367 0 0 0
v 1.884472 0.211846 1.504357 0 0 0
v -2.008512 -0.237946 0.322616 0 0 0
v -1.177731 -0.213933 0.617779 0 0 0
v -2.007535 -0.237422 0.324049 0 0 0
v -2.033375 -0.241729 0.313787 0 0 0
v -2.033667 -0.241050 0.314359 0 0 0
v -2.048095 -0.242382 0.310198 0 0 0
v -2.053667 -0.243411 0.308125 0 0 0
v -2.008613 -0.238731 0.321668 0 0 0
v -2.054945 -0.244181 0.307112 0 0 0
v -2.032826 -0.242428 0.313170 0 0 0
v -2.004916 -0.244540 0.304435 0 0 0
v -2.026596 -0.246467 0.297481 0 0 0
v -1.987703 -0.247703 0.311011 0 0 0
v -1.177904 -0.214741 0.617086 0 0 0
v -2.007802 -0.239714 0.321304 0 0 0
v -2.006191 -0.240809 0.321551 0 0 0
v -1.177110 -0.215390 0.616671 0 0 0
v -1.157123 -0.212817 0.623258 0 0 0
v -1.979758 -0.251664 0.320096 0 0 0
v -1.175463 -0.215824 0.616579 0 0 0
v -1.836061 -0.277592 0.393607 0 0 0
v -1.155847 -0.211142 0.624837 0 0 0
v -1.176631 -0.213050 0.618673 0 0 0
v -1.156948 -0.212017 0.623947 0 0 0
v -1.152955 -0.196893 0.635216 0 0 0
v -0.565788 -0.206665 0.908533 0 0 0
v -1.142798 -0.215819 0.684736 0 0 0
v -1.141698 -0.216726 0.688874 0 0 0
v -0.545634 -0.185787 0.917470 0 0 0
v -0.543991 -0.184555 0.917417 0 0 0
v -0.542180 -0.183607 0.917592 0 0 0
v -0.271473 -0.213206 1.050448 0 0 0
v -0.271972 -0.212317 1.049460 0 0 0
v -0.271151 -0.214173 1.051354 0 0 0
v -0.545634 -0.185787 0.917470 0 0 0
v -0.271067 -0.215127 1.052094 0 0 0
v -0.268226 -0.236391 1.052088 0 0 0
v 0.075829 -0.232354 1.134220 0 0 0
v 0.036743 -0.217580 1.122283 0 0 0
v 0.033917 -0.217118 1.120817 0 0 0
v -1.803323 -0.246412 0.407006 0 0 0
v -1.974368 -0.224438 0.342904 0 0 0
v -1.148200 -0.201645 0.654326 0 0 0
v -1.149346 -0.200416 0.649933 0 0 0
v -1.126166 -0.231822 0.708776 0 0 0
v -1.137743 -0.220639 0.702843 0 0 0
v -1.105792 -0.230717 0.716614 0 0 0
v -1.124811 -0.233103 0.709965 0 0 0
v -1.104088 -0.231204 0.716344 0 0 0
v -1.138973 -0.219401 0.698731 0 0 0
v -0.539036 -0.182221 0.917845 0 0 0
v -0.513711 -0.181107 0.903946 0 0 0
v -1.105792 -0.230717 0.716614 0 0 0
v -0.540443 -0.182833 0.917768 0 0 0
v -0.512555 -0.182023 0.903321 0 0 0
v -1.123965 -0.233790 0.709383 0 0 0
v -0.512021 -0.183036 0.902340 0 0 0
v -1.140360 -0.218003 0.693812 0 0 0
v -0.279860 -0.210581 1.021306 0 0 0
v -0.513711 -0.181107 0.903946 0 0 0
v -1.103239 -0.231898 0.715754 0 0 0
v -1.150653 -0.199036 0.644741 0 0 0
v -1.978978 -0.224609 0.341649 0 0 0
v -1.151917 -0.197778 0.639560 0 0 0
v -1.976510 -0.224504 0.342358 0 0 0
v -1.981401 -0.224796 0.340921 0 0 0
v -2.000240 -0.216872 0.326390 0 0 0
v -1.948934 -0.227463 0.342322 0 0 0
v -1.861222 -0.251665 0.390005 0 0 0
v -1.983420 -0.225083 0.340333 0 0 0
v -1.176631 -0.213050 0.618673 0 0 0
v -2.008569 -0.217612 0.323945 0 0 0
v -2.007082 -0.217089 0.324165 0 0 0
v -2.003791 -0.217296 0.325625 0 0 0
v -1.978978 -0.224609 0.341649 0 0 0
v -2.024739 -0.216960 0.317395 0 0 0
v -2.017833 -0.215869 0.319020 0 0 0
v -1.978978 -0.224609 0.341649 0 0 0
v -2.003123 -0.216785 0.325365 0 0 0
v -2.022038 -0.215803 0.317354 0 0 0
v -2.035775 -0.217495 0.313726 0 0 0
v -2.023557 -0.215292 0.316231 0 0 0
v -2.044041 -0.218960 0.311919 0 0 0
v -2.040382 -0.217300 0.311769 0 0 0
v -1.974561 -0.219394 0.325461 0 0 0
v -1.996879 -0.212381 0.310641 0 0 0
v -1.933909 -0.232723 0.349254 0 0 0
v -1.957421 -0.225440 0.333228 0 0 0
v -1.977902 -0.219182 0.318999 0 0 0
v -1.904001 -0.242718 0.367127 0 0 0
v -1.921227 -0.237601 0.354893 0 0 0
v -1.977902 -0.219182 0.318999 0 0 0
v -1.936375 -0.233244 0.343885 0 0 0
v -2.012817 -0.210050 0.302088 0 0 0
v -1.992215 -0.214944 0.308681 0 0 0
v -2.019669 -0.210856 0.299510 0 0 0
v -1.998168 -0.213412 0.303808 0 0 0
v -2.022169 -0.243642 0.292986 0 0 0
v -2.043729 -0.247707 0.291061 0 0 0
v -2.019126 -0.243945 0.294876 0 0 0
v -2.040230 -0.247585 0.292800 0 0 0
v -2.006740 -0.243310 0.299556 0 0 0
v -2.047549 -0.218638 0.310322 0 0 0
v -2.019669 -0.210856 0.299510 0 0 0
v -2.073048 -0.244449 0.303206 0 0 0
v -2.043729 -0.247707 0.291061 0 0 0
v -2.069638 -0.243482 0.304714 0 0 0
v -2.069066 -0.244914 0.303611 0 0 0
v -2.063108 -0.243712 0.305919 0 0 0
v -2.055956 -0.241691 0.309056 0 0 0
v -2.030297 -0.218261 0.316403 0 0 0
v -2.034104 -0.239325 0.315613 0 0 0
v -2.054091 -0.242382 0.308936 0 0 0
v -2.055956 -0.241691 0.309056 0 0 0
v -2.033978 -0.240281 0.314935 0 0 0
v -1.964702 -0.254915 0.326262 0 0 0
v -1.892578 -0.274133 0.369043 0 0 0
v -1.934749 -0.262619 0.343232 0 0 0
v -1.951481 -0.257035 0.331650 0 0 0
v -2.006740 -0.243310 0.299556 0 0 0
v -1.964981 -0.252255 0.321969 0 0 0
v -1.900490 -0.270967 0.363063 0 0 0
v -1.964981 -0.252255 0.321969 0 0 0
v -1.906536 -0.268158 0.358181 0 0 0
v -1.836133 -0.275710 0.391886 0 0 0
v -1.906536 -0.268158 0.358181 0 0 0
v -1.836469 -0.276781 0.392660 0 0 0
v -1.138992 -0.228396 0.632788 0 0 0
v -1.836133 -0.275710 0.391886 0 0 0
v -1.140501 -0.226864 0.628247 0 0 0
v -1.128463 -0.247296 0.681024 0 0 0
v -1.141857 -0.225486 0.624527 0 0 0
v -1.129877 -0.245956 0.676215 0 0 0
v -0.537024 -0.207965 0.892232 0 0 0
v -0.538943 -0.208759 0.892688 0 0 0
v -1.131137 -0.244762 0.672223 0 0 0
v -0.540527 -0.209428 0.893237 0 0 0
v -1.154687 -0.213888 0.622761 0 0 0
v -0.565534 -0.209424 0.905680 0 0 0
v -1.156332 -0.213460 0.622848 0 0 0
v -0.276938 -0.237134 1.021163 0 0 0
v -0.538943 -0.208759 0.892688 0 0 0
v -0.276499 -0.238032 1.022364 0 0 0
v -0.540527 -0.209428 0.893237 0 0 0
v -0.275969 -0.238807 1.023567 0 0 0
v -0.268867 -0.239534 1.048620 0 0 0
v -0.566587 -0.208932 0.906086 0 0 0
v -0.566996 -0.208266 0.906746 0 0 0
v 1.809796 0.180448 1.419891 0 0 0
v 1.831739 0.198768 1.416461 0 0 0
v 1.832197 0.198813 1.416830 0 0 0
v 1.817790 0.186608 1.419223 0 0 0
v 1.792072 0.164870 1.423532 0 0 0
v 1.780529 0.155993 1.424696 0 0 0
v 0.482784 -0.178811 1.201851 0 0 0
v 0.474399 -0.171562 1.191932 0 0 0
v 1.771270 0.149129 1.425617 0 0 0
v 0.467713 -0.165639 1.183919 0 0 0
v 0.370448 -0.153345 1.134125 0 0 0
v 0.214153 -0.218157 1.118670 0 0 0
v 0.474399 -0.171562 1.191932 0 0 0
v 0.206609 -0.218231 1.118743 0 0 0
v 0.467713 -0.165639 1.183919 0 0 0
v 0.121615 -0.204988 1.118449 0 0 0
v 0.200607 -0.218066 1.118767 0 0 0
v 0.118118 -0.204679 1.118274 0 0 0
v 0.016335 -0.243546 1.088422 0 0 0
v 0.206609 -0.218231 1.118743 0 0 0
v 0.012655 -0.242423 1.086573 0 0 0
v -0.276938 -0.237134 1.021163 0 0 0
v 0.012655 -0.242423 1.086573 0 0 0
v -0.277212 -0.236186 1.020099 0 0 0
v 0.009782 -0.241319 1.085056 0 0 0
v -0.277266 -0.235284 1.019277 0 0 0
v -0.031472 -0.217068 1.077473 0 0 0
v 0.121615 -0.204988 1.118449 0 0 0
v -0.033470 -0.216288 1.077845 0 0 0
v -0.279926 -0.213130 1.018366 0 0 0
v -0.031472 -0.217068 1.077473 0 0 0
v -0.280126 -0.212225 1.019131 0 0 0
v -0.033944 -0.215507 1.078713 0 0 0
v -0.280095 -0.211349 1.020144 0 0 0
v 0.117315 -0.203996 1.119020 0 0 0
v 0.367263 -0.151976 1.136219 0 0 0
v 0.119304 -0.203010 1.120635 0 0 0
v 1.651998 0.098892 1.435517 0 0 0
v 0.373175 -0.149465 1.139960 0 0 0
v 1.814254 0.217434 1.441373 0 0 0
v 0.497542 -0.170679 1.249947 0 0 0
v 0.123765 -0.201819 1.122933 0 0 0
v 0.497542 -0.170679 1.249947 0 0 0
v 0.229537 -0.188097 1.137369 0 0 0
v 0.505398 -0.177290 1.259219 0 0 0
v 0.236805 -0.187642 1.136747 0 0 0
v 0.515787 -0.169386 1.259061 0 0 0
v 0.244905 -0.187203 1.136029 0 0 0
v 0.525828 -0.160918 1.258139 0 0 0
v 0.252606 -0.186895 1.135343 0 0 0
v 0.030293 -0.216743 1.119019 0 0 0
v 0.026431 -0.216468 1.117120 0 0 0
v 0.229537 -0.188097 1.137369 0 0 0
v 0.022921 -0.216282 1.115378 0 0 0
v -0.030359 -0.214248 1.081599 0 0 0
v 0.123765 -0.201819 1.122933 0 0 0
v -0.272569 -0.211574 1.048499 0 0 0
v -0.032844 -0.214809 1.080009 0 0 0
v -0.539036 -0.182221 0.917845 0 0 0
v -0.030359 -0.214248 1.081599 0 0 0
v -0.279475 -0.209972 1.022487 0 0 0
v -0.512161 -0.184081 0.901085 0 0 0
v -0.512927 -0.185082 0.899669 0 0 0
v -1.103361 -0.232746 0.714898 0 0 0
v -1.104417 -0.233661 0.713862 0 0 0
v -1.125991 -0.249333 0.689932 0 0 0
v -0.533322 -0.206477 0.891723 0 0 0
v -1.127104 -0.248502 0.685868 0 0 0
v -0.535048 -0.207126 0.891874 0 0 0
v -0.535048 -0.207126 0.891874 0 0 0
v -0.277212 -0.236186 1.020099 0 0 0
v -1.128463 -0.247296 0.681024 0 0 0
v -0.537024 -0.207965 0.892232 0 0 0
v -0.276938 -0.237134 1.021163 0 0 0
v -1.138992 -0.228396 0.632788 0 0 0
v -1.127104 -0.248502 0.685868 0 0 0
v -1.137543 -0.229785 0.637382 0 0 0
v -1.836133 -0.275710 0.391886 0 0 0
v -1.125991 -0.249333 0.689932 0 0 0
v -1.835100 -0.274458 0.391368 0 0 0
v -1.136352 -0.230789 0.641241 0 0 0
v -1.833521 -0.273134 0.391133 0 0 0
v -1.124930 -0.235053 0.706603 0 0 0
v -1.807280 -0.248767 0.403135 0 0 0
v -1.124089 -0.234630 0.708534 0 0 0
v -1.805654 -0.247890 0.404494 0 0 0
v -1.804259 -0.247079 0.405837 0 0 0
v -1.870147 -0.253038 0.386490 0 0 0
v -1.805654 -0.247890 0.404494 0 0 0
v -1.877994 -0.252260 0.381336 0 0 0
v -1.936375 -0.233244 0.343885 0 0 0
v -1.877994 -0.252260 0.381336 0 0 0
vn 0.2568 -0.7169 -0.6482
vn 0.2510 -0.7435 -0.6198
vn 0.2503 -0.7469 -0.6160
vn 0.2571 -0.7151 -0.6501
vn 0.1534 0.6534 -0.7413
vn 0.1471 0.6719 -0.7258
vn 0.1534 0.6534 -0.7413
vn 0.1390 0.6951 -0.7053
vn 0.1556 0.6469 -0.7466
vn 0.1423 0.6859 -0.7136
vn 0.1284 0.7236 -0.6782
vn 0.1349 0.7063 -0.6949
vn -0.2487 0.7538 0.6082
vn -0.2393 0.7901 0.5643
vn -0.2495 0.7501 0.6125
vn -0.2488 0.7531 0.6090
vn -0.2384 0.7935 0.5599
vn 0.1321 0.7137 -0.6879
vn -0.0124 -0.9370 0.3492
vn 0.0217 -0.9698 0.2428
vn 0.0293 -0.9754 0.2185
vn 0.2571 -0.7151 -0.6501
vn 0.1471 0.6719 -0.7258
vn 0.1390 0.6951 -0.7053
vn 0.1192 0.7469 -0.6542
vn -0.2622 0.6887 0.6760
vn 0.1534 0.6534 -0.7413
vn 0.2641 -0.6779 -0.6861
vn 0.2568 -0.7169 -0.6482
vn 0.2549 -0.7261 -0.6386
vn 0.2414 -0.7827 -0.5737
vn 0.2494 -0.7504 -0.6121
vn 0.2510 -0.7435 -0.6198
vn 0.2400 -0.7879 -0.5672
vn 0.1114 0.7656 -0.6336
vn 0.1239 0.7351 -0.6665
vn 0.1349 0.7063 -0.6949
vn 0.1347 0.7069 -0.6943
vn 0.1454 0.6769 -0.7216
vn 0.1423 0.6859 -0.7136
vn 0.1345 0.7074 -0.6939
vn 0.1212 0.7419 -0.6595
vn 0.1579 0.6398 -0.7522
vn 0.1556 0.6469 -0.7466
vn 0.1477 0.6703 -0.7272
vn 0.0682 0.8549 -0.5142
vn 0.2752 -0.6026 -0.7491
vn 0.2641 -0.6779 -0.6861
vn 0.1596 0.6345 -0.7563
vn 0.0886 0.8157 -0.5716
vn 0.1321 0.7137 -0.6879
vn 0.1192 0.7469 -0.6542
vn 0.1656 -0.9518 -0.2580
vn 0.2045 -0.8877 -0.4125
vn 0.1559 -0.9627 -0.2210
vn -0.1442 -0.6804 0.7185
vn -0.1323 -0.7133 0.6883
vn -0.0280 0.9745 -0.2227
vn 0.0349 0.9082 -0.4171
vn -0.0227 0.9706 -0.2396
vn -0.2574 0.7138 0.6513
vn -0.2618 0.6908 0.6740
vn 0.1089 0.7715 -0.6268
vn 0.2632 -0.6830 -0.6814
vn 0.0615 0.8666 -0.4952
vn 0.0933 0.8060 -0.5845
vn 0.2297 -0.8222 -0.5208
vn 0.0473 0.8899 -0.4538
vn 0.0771 0.8385 -0.5395
vn 0.2537 -0.7314 -0.6330
vn 0.2177 -0.8562 -0.4684
vn 0.2448 -0.7697 -0.5897
vn 0.2045 -0.8877 -0.4125
vn 0.1346 0.7070 -0.6943
vn 0.2881 -0.4586 -0.8407
vn 0.1291 0.7217 -0.6800
vn 0.1148 0.7575 -0.6426
vn 0.1203 0.7441 -0.6572
vn 0.0988 0.7943 -0.5995
vn 0.1039 0.7829 -0.6134
vn 0.2839 -0.5193 -0.8061
vn 0.2776 -0.5831 -0.7635
vn 0.2834 -0.5244 -0.8029
vn 0.2700 -0.6409 -0.7185
vn 0.2768 -0.5892 -0.7591
vn 0.1089 0.7715 -0.6268
vn 0.2632 -0.6830 -0.6814
vn 0.0933 0.8060 -0.5845
vn 0.2537 -0.7314 -0.6330
vn 0.1148 0.7575 -0.6426
vn 0.0988 0.7943 -0.5995
vn 0.2700 -0.6409 -0.7185
vn -0.2789 0.5707 0.7723
vn -0.1932 -0.5173 0.8337
vn -0.2025 -0.4802 0.8534
vn -0.2861 0.4910 0.8229
vn -0.1585 -0.6378 0.7537
vn -0.1463 -0.6745 0.7237
vn -0.1902 -0.5289 0.8271
vn -0.1788 -0.5705 0.8016
vn -0.1774 -0.5754 0.7984
vn -0.1327 -0.7121 0.6894
vn -0.0224 -0.9248 0.3798
vn -0.1656 -0.6153 0.7707
vn -0.1191 -0.7470 0.6540
vn -0.1492 -0.6660 0.7309
vn -0.1453 -0.6773 0.7212
vn -0.1320 -0.7142 0.6874
vn -0.1632 -0.6230 0.7650
vn -0.1145 -0.7583 0.6417
vn -0.1478 -0.6702 0.7273
vn -0.0984 -0.7950 0.5985
vn -0.1342 -0.7082 0.6932
vn 0.2331 -0.8115 -0.5358
vn 0.2380 -0.7949 -0.5582
vn 0.2455 -0.7669 -0.5930
vn 0.2480 -0.7566 -0.6050
vn 0.2574 -0.7137 -0.6515
vn 0.2579 -0.7109 -0.6542
vn -0.1562 -0.6449 0.7481
vn 0.2102 -0.8749 -0.4364
vn 0.2286 -0.8257 -0.5158
vn 0.2457 -0.7658 -0.5942
vn 0.2648 -0.6735 -0.6901
vn 0.2611 -0.6947 -0.6703
vn 0.2580 -0.7109 -0.6543
vn -0.1076 -0.7745 0.6233
vn 0.2631 -0.6834 -0.6810
vn 0.2494 -0.7508 -0.6116
vn 0.2546 -0.7271 -0.6376
vn 0.2421 -0.7800 -0.5770
vn 0.2414 -0.7827 -0.5737
vn 0.2266 -0.8317 -0.5069
vn 0.2351 -0.8047 -0.5452
vn 0.0248 -0.9722 0.2330
vn 0.0321 -0.9773 0.2094
vn 0.0325 -0.9775 0.2082
vn 0.2400 -0.7879 -0.5672
vn 0.0033 -0.9537 0.3009
vn 0.0046 -0.9549 0.2968
vn 0.0046 -0.9549 0.2968
vn 0.0325 -0.9775 0.2082
vn -0.0173 -0.9311 0.3644
vn -0.0124 -0.9369 0.3493
vn -0.0370 -0.9051 0.4235
vn -0.0018 -0.9485 0.3167
vn 0.0325 -0.9775 0.2082
vn -0.0234 -0.9236 0.3827
vn -0.0403 -0.9004 0.4332
vn -0.0584 -0.8719 0.4862
vn -0.0403 -0.9004 0.4332
vn -0.0661 -0.8587 0.5082
vn -0.2635 0.6814 0.6829
vn -0.2771 0.5867 0.7609
vn -0.2864 0.4854 0.8260
vn -0.2722 0.6252 0.7315
vn -0.2635 0.6814 0.6829
vn -0.0463 -0.8914 0.4509
vn -0.1585 -0.6378 0.7537
vn -0.2691 0.6466 0.7138
vn -0.2610 0.6951 0.6699
vn -0.2833 0.5262 0.8018
vn -0.2693 0.6455 0.7147
vn -0.2800 0.5605 0.7794
vn -0.2616 0.6917 0.6731
vn -0.2653 0.6709 0.6925
vn -0.2800 0.5605 0.7794
vn -0.2715 0.6306 0.7271
vn -0.2555 0.7229 0.6420
vn -0.2635 0.6814 0.6829
vn -0.1688 -0.6046 0.7784
vn -0.1708 -0.5982 0.7829
vn -0.1835 -0.5538 0.8122
vn -0.1401 -0.6919 0.7083
vn -0.1533 -0.6538 0.7409
vn -0.1540 -0.6516 0.7427
vn -0.1449 -0.6785 0.7202
vn -0.1529 -0.6550 0.7400
vn -0.1323 -0.7133 0.6883
vn -0.1250 -0.7322 0.6695
vn 0.1470 -0.9712 -0.1876
vn 0.1990 -0.8990 -0.3901
vn -0.1575 -0.6410 0.7512
vn -0.1370 -0.7004 0.7004
vn -0.1229 -0.7375 0.6640
vn -0.1444 -0.6799 0.7189
vn -0.1574 -0.6414 0.7509
vn 0.1528 -0.9658 -0.2093
vn -0.1330 -0.7114 0.6900
vn 0.2609 -0.6956 -0.6694
vn -0.1826 -0.5572 0.8101
vn -0.1829 -0.5560 0.8108
vn -0.1705 -0.5990 0.7824
vn -0.2903 0.4148 0.8624
vn -0.1585 -0.6378 0.7537
vn -0.2754 0.6012 0.7501
vn -0.2906 0.4079 0.8655
vn -0.2876 0.4683 0.8355
vn -0.2831 0.5286 0.8003
vn -0.2657 0.6681 0.6950
vn -0.2568 0.7168 0.6483
vn -0.2736 0.6149 0.7396
vn -0.2799 0.5621 0.7783
vn -0.1646 -0.6184 0.7684
vn -0.2733 0.6172 0.7378
vn 0.0710 0.8499 -0.5222
vn -0.2457 0.7660 0.5940
vn -0.2671 0.6594 0.7027
vn -0.2744 0.6087 0.7444
vn 0.1015 0.7883 -0.6069
vn -0.2426 0.7782 0.5793
vn 0.1019 0.7874 -0.6079
vn 0.1168 0.7527 -0.6480
vn 0.1166 0.7531 -0.6475
vn -0.2545 0.7279 0.6367
vn -0.2722 0.6256 0.7311
vn 0.0888 0.8153 -0.5722
vn 0.1019 0.7874 -0.6079
vn -0.2776 0.5827 0.7638
vn 0.1097 0.7697 -0.6289
vn 0.1329 0.7117 -0.6898
vn 0.1319 0.7144 -0.6872
vn -0.2659 0.6671 0.6959
vn 0.1129 0.7621 -0.6375
vn 0.1329 0.7117 -0.6898
vn -0.2814 0.5469 0.7885
vn -0.2634 0.6816 0.6827
vn -0.2545 0.7277 0.6369
vn -0.2714 0.6314 0.7264
vn -0.2525 0.7369 0.6271
vn -0.0255 0.9727 -0.2308
vn 0.0672 0.8567 -0.5115
vn -0.2777 0.5822 0.7642
vn -0.2802 0.5591 0.7803
vn -0.2740 0.6121 0.7418
vn -0.2677 0.6561 0.7056
vn -0.2634 0.6816 0.6827
vn -0.2721 0.6260 0.7308
vn -0.2686 0.6504 0.7105
vn -0.2612 0.6941 0.6708
vn -0.2643 0.6767 0.6872
vn -0.2678 0.6550 0.7065
vn -0.2734 0.6168 0.7381
vn -0.0279 0.9744 -0.2231
vn -0.0280 0.9745 -0.2227
vn 0.0194 0.9286 -0.3705
vn 0.0255 0.9209 -0.3889
vn 0.0349 0.9082 -0.4171
vn 0.0499 0.8858 -0.4614
vn 0.0622 0.8655 -0.4970
vn 0.0349 0.9082 -0.4171
vn 0.0771 0.8385 -0.5395
vn -0.0227 0.9706 -0.2396
vn 0.0473 0.8899 -0.4538
vn -0.0133 0.9629 -0.2694
vn 0.2297 -0.8222 -0.5208
vn 0.1753 -0.9392 -0.2952
vn 0.2177 -0.8562 -0.4684
vn 0.1656 -0.9518 -0.2580
vn -0.2680 0.6538 0.7076
vn -0.0133 0.9629 -0.2694
vn -0.1594 -0.6350 0.7559
vn 0.1753 -0.9392 -0.2952
vn 0.1656 -0.9518 -0.2580
vn -0.1701 -0.6003 0.7815
vn -0.1442 -0.6804 0.7185
vn -0.1558 -0.6463 0.7471
vn -0.1779 -0.5739 0.7994
vn 0.2045 -0.8877 -0.4125
vn -0.2776 0.5825 0.7639
vn -0.1822 -0.5584 0.8093
vn -0.1639 -0.6208 0.7666
vn -0.1670 -0.6108 0.7740
vn 0.1994 -0.8983 -0.3916
vn 0.2552 -0.7246 -0.6402
vn 0.2324 -0.8139 -0.5326
vn 0.2373 -0.7972 -0.5551
vn 0.2448 -0.7697 -0.5897
vn 0.2621 -0.6890 -0.6757
vn 0.2768 -0.5892 -0.7591
vn 0.2690 -0.6477 -0.7128
vn 0.2347 -0.8062 -0.5431
vn 0.2165 -0.8595 -0.4630
vn 0.1975 -0.9020 -0.3839
vn 0.2303 -0.8203 -0.5235
vn 0.2179 -0.8558 -0.4692
vn 0.2368 -0.7990 -0.5527
vn 0.2052 -0.8861 -0.4156
vn -0.1020 -0.7871 0.6083
vn -0.1444 -0.6799 0.7189
vn -0.1156 -0.7557 0.6446
vn -0.1305 -0.7180 0.6837
vn 0.2648 -0.6738 -0.6899
vn 0.2546 -0.7271 -0.6376
vn 0.2631 -0.6834 -0.6810
vn 0.2745 -0.6083 -0.7448
vn 0.2648 -0.6735 -0.6901
vn 0.2688 -0.6487 -0.7120
vn 0.2825 -0.5347 -0.7964
vn 0.2727 -0.6216 -0.7343
vn 0.1072 0.7753 -0.6224
vn 0.2457 -0.7658 -0.5942
vn 0.2600 -0.7001 -0.6650
vn 0.1302 0.7187 -0.6830
vn 0.2708 -0.6355 -0.7230
vn 0.1143 0.7587 -0.6413
vn 0.2574 -0.7137 -0.6515
vn 0.2678 -0.6555 -0.7062
vn 0.2579 -0.7109 -0.6542
vn 0.2668 -0.6612 -0.7011
vn 0.2759 -0.5974 -0.7530
vn 0.2759 -0.5974 -0.7530
vn 0.2740 -0.6123 -0.7416
vn 0.1344 0.7076 -0.6937
vn 0.1302 0.7187 -0.6830
vn 0.1183 0.7491 -0.6519
vn 0.1661 0.6135 -0.7720
vn 0.1497 0.6645 -0.7322
vn 0.0996 0.7923 -0.6019
vn 0.1314 0.7156 -0.6860
vn 0.0961 0.8000 -0.5922
vn 0.0477 0.8892 -0.4549
vn 0.0772 0.8382 -0.5398
vn 0.1092 0.7707 -0.6278
vn 0.0286 0.9168 -0.3984
vn -0.2581 0.7100 0.6552
vn -0.2262 0.8327 0.5054
vn 0.0593 0.8703 -0.4889
vn -0.2629 0.6846 0.6799
vn -0.2305 0.8199 0.5241
vn -0.2696 0.6438 0.7162
vn -0.2452 0.7679 0.5918
vn -0.2762 0.5946 0.7551
vn -0.2588 0.7066 0.6586
vn -0.2819 0.5419 0.7918
vn -0.2663 0.6647 0.6980
vn -0.2584 0.7085 0.6567
vn -0.2507 0.7448 0.6184
vn 0.0614 0.8669 -0.4947
vn -0.2478 0.7572 0.6043
vn 0.0801 0.8327 -0.5479
vn -0.2722 0.6256 0.7311
vn 0.0614 0.8669 -0.4947
vn 0.0958 0.8006 -0.5915
vn 0.1537 0.6527 -0.7419
vn 0.1734 0.5895 -0.7890
vn 0.1490 0.6667 -0.7303
vn 0.1634 0.6225 -0.7654
vn 0.2816 -0.5442 -0.7902
vn 0.2502 -0.7470 -0.6160
vn 0.2740 -0.6124 -0.7415
vn 0.2414 -0.7827 -0.5737
vn 0.2668 -0.6612 -0.7011
vn 0.2633 -0.6822 -0.6821
vn 0.2303 -0.8203 -0.5235
vn 0.2740 -0.6124 -0.7415
vn 0.1346 0.7070 -0.6943
vn 0.1629 0.6240 -0.7643
vn 0.1488 0.6671 -0.7300
vn 0.0869 0.8192 -0.5669
vn 0.0825 0.8279 -0.5548
vn 0.1039 0.7829 -0.6134
vt 1.000000 0.098813
vt 1.000000 0.074863
vt 1.000000 0.065135
vt 1.000000 0.106013
vt 1.000000 0.651185
vt 1.000000 0.643987
vt 1.000000 0.684860
vt 1.000000 0.659387
vt 1.000000 0.693124
vt 1.000000 0.732351
vt 0.999146 0.750294
vt 1.000000 0.478004
vt 1.000000 0.500286
vt 1.000000 0.491717
vt 1.000000 0.528116
vt 1.000000 0.485204
vt 1.000000 0.675135
vt 1.000000 0.271996
vt 1.000000 0.264796
vt 1.000000 0.249714
vt 1.000000 0.721882
vt 0.996308 0.528119
vt 1.000000 0.090606
vt 1.000000 0.056867
vt 1.000000 0.017647
vt 1.000000 0.038294
vt 1.000000 0.028116
vt 0.996284 0.721883
vt 0.996337 0.732914
vt 0.996199 0.750000
vt 0.996334 0.768354
vt 1.000000 0.768959
vt 0.993944 0.750000
vt 0.993968 0.732643
vt 0.996279 0.780203
vt 1.000000 0.780204
vt 0.993963 0.768645
vt 0.875000 0.750000
vt 0.996298 0.969795
vt 1.000000 0.969798
vt 0.993969 0.780204
vt 0.875047 0.768653
vt 0.000000 0.124673
vt 0.001006 0.051504
vt 0.000014 0.080837
vt 0.000000 0.248199
vt 0.000000 0.221884
vt 0.000014 0.669163
vt 0.001006 0.698496
vt 0.000000 0.625327
vt 0.000000 0.528116
vt 0.000000 0.501801
vt 0.000000 0.659394
vt 0.000000 0.090606
vt 0.000000 0.621553
vt 0.000000 0.693540
vt 0.000000 0.128448
vt 0.000000 0.652140
vt 0.000000 0.747408
vt 0.000000 0.702694
vt 0.000000 0.056460
vt 0.000000 0.097860
vt 0.000000 0.002592
vt 0.000000 0.047306
vt 0.027892 0.780202
vt 0.027892 0.969798
vt 0.017218 0.780202
vt 0.017362 0.768644
vt 0.027821 0.768644
vt 0.017772 0.750000
vt 0.027618 0.750000
vt 0.017218 0.969798
vt 0.017362 0.981356
vt 0.027821 0.981356
vt 0.017772 1.000000
vt 0.027617 1.000000
vt 0.000000 0.780202
vt 0.000000 0.969798
vt 0.000232 0.768644
vt 0.000232 0.981356
vt 0.016986 0.768644
vt 0.000894 0.750000
vt 0.016324 0.750000
vt 0.016986 0.981356
vt 0.000894 1.000000
vt 0.016324 1.000000
vt 0.625000 0.469772
vt 0.625000 0.280227
vt 0.750000 0.280221
vt 0.750000 0.469779
vt 0.875000 0.280221
vt 0.874966 0.268653
vt 0.749984 0.268652
vt 0.625018 0.268655
vt 0.749892 0.250000
vt 0.874768 0.250000
vt 0.994135 0.250000
vt 0.749987 0.232632
vt 0.874971 0.232631
vt 0.499997 0.268655
vt 0.375015 0.268645
vt 0.499982 0.250000
vt 0.625119 0.250000
vt 0.499997 0.232632
vt 0.625015 0.232628
vt 0.500000 0.221861
vt 0.625000 0.221852
vt 0.625000 0.028151
vt 0.500000 0.028140
vt 0.624906 0.017383
vt 0.500094 0.017375
vt 0.625000 0.000000
vt 0.500003 0.000000
vt 0.750000 0.221859
vt 0.750000 0.028141
vt 0.749882 0.017375
vt 0.625136 0.017382
vt 0.750000 0.000000
vt 0.875000 0.000000
vt 0.750081 0.017375
vt 0.874919 0.017375
vt 0.875000 0.028141
vt 0.875000 0.221859
vt 0.994030 0.000000
vt 0.875016 0.017374
vt 0.994052 0.017359
vt 0.996253 0.000000
vt 0.996388 0.017090
vt 1.000000 0.011883
vt 0.996336 0.028119
vt 0.994059 0.028119
vt 0.994107 0.221881
vt 0.996359 0.221883
vt 1.000000 0.221881
vt 0.994114 0.232642
vt 0.996420 0.232913
vt 1.000000 0.232350
vt 0.996318 0.250000
vt 0.999173 0.250294
vt 0.996423 0.268354
vt 1.000000 0.258284
vt 1.000000 0.268959
vt 1.000000 0.280205
vt 0.996363 0.280203
vt 0.994113 0.280204
vt 1.000000 0.469798
vt 0.996346 0.469795
vt 0.994077 0.469796
vt 0.996399 0.481642
vt 0.994119 0.268645
vt 0.875000 0.469779
vt 1.000000 0.481045
vt 0.994071 0.481353
vt 0.996268 0.500000
vt 0.994054 0.500000
vt 0.999162 0.499707
vt 0.996370 0.517090
vt 0.994032 0.517359
vt 1.000000 0.517647
vt 0.009702 0.268645
vt 0.125000 0.268645
vt 0.009702 0.280203
vt 0.006120 0.232264
vt 0.006211 0.250000
vt 0.001374 0.250296
vt 0.000000 0.231999
vt 0.009702 0.250000
vt 0.005989 0.221884
vt 0.005989 0.082539
vt 0.007765 0.056669
vt 0.125000 0.250000
vt 0.009702 0.232643
vt 0.009702 0.221884
vt 0.125000 0.232643
vt 0.250001 0.250000
vt 0.009702 0.083599
vt 0.125000 0.221884
vt 0.028848 0.028116
vt 0.250000 0.280203
vt 0.125000 0.280203
vt 0.250000 0.268645
vt 0.125000 0.469798
vt 0.375000 0.280205
vt 0.250000 0.469798
vt 0.250000 0.481355
vt 0.375000 0.469796
vt 0.375017 0.481354
vt 0.375036 0.500000
vt 0.500000 0.500000
vt 0.500003 0.517374
vt 0.499998 0.481336
vt 0.500000 0.469772
vt 0.500000 0.280226
vt 0.625000 0.280226
vt 0.625022 0.481335
vt 0.028849 0.721885
vt 0.009702 0.528116
vt 0.125000 0.528116
vt 0.125000 0.517356
vt 0.125000 0.721885
vt 0.250000 0.528116
vt 0.250000 0.721885
vt 0.125000 0.732644
vt 0.250000 0.732644
vt 0.250000 0.517356
vt 0.375000 0.528125
vt 0.375000 0.721876
vt 0.374994 0.517363
vt 0.374992 0.732640
vt 0.125000 0.750000
vt 0.375000 0.750000
vt 0.250000 0.500000
vt 0.500002 0.732632
vt 0.250001 0.750000
vt 0.125000 0.500000
vt 0.009702 0.500000
vt 0.125000 0.481356
vt 0.009702 0.517356
vt 0.009702 0.481356
vt 0.005989 0.528116
vt 0.009702 0.666401
vt 0.021004 0.717363
vt 0.009702 0.469798
vt 0.005989 0.469798
vt 0.005896 0.481645
vt 0.006089 0.500000
vt 0.000000 0.481044
vt 0.001367 0.499706
vt 0.005896 0.517087
vt 0.000000 0.517646
vt 0.000000 0.492870
vt 0.000000 0.479323
vt 0.005989 0.667461
vt 0.011262 0.689133
vt 0.007765 0.693331
vt 0.015164 0.706055
vt 0.012487 0.713813
vt 0.002437 0.701465
vt 0.007855 0.724964
vt 0.000000 0.651285
vt 0.000000 0.598094
vt 0.000000 0.151906
vt 0.000000 0.098715
vt 0.000000 0.487050
vt 0.000000 0.262950
vt 0.000000 0.270677
vt 0.000000 0.257443
vt 0.000000 0.280203
vt 0.000000 0.469798
vt 0.005989 0.280203
vt 0.000000 0.269337
vt 0.006120 0.269052
vt 0.011262 0.060867
vt 0.021004 0.032637
vt 0.015164 0.043945
vt 0.012487 0.036188
vt 0.002437 0.048535
vt 0.007855 0.025036
vt 0.019555 0.022502
vt 0.008639 0.022764
vt 0.016748 0.007063
vt 0.027617 0.000158
vt 0.017772 0.005833
vt 0.028482 0.017356
vt 0.125000 0.000000
vt 0.028172 0.000000
vt 0.125000 0.017356
vt 0.250000 0.000000
vt 0.125000 0.028116
vt 0.250000 0.017356
vt 0.375000 0.000000
vt 0.374988 0.017362
vt 0.250000 0.028116
vt 0.375000 0.028125
vt 0.250000 0.221883
vt 0.375000 0.221874
vt 0.250000 0.232643
vt 0.499996 0.000000
vt 0.375029 0.017364
vt 0.499901 0.017374
vt 0.375007 0.232638
vt 0.375088 0.250000
vt 0.996358 0.981642
vt 1.000000 0.981044
vt 0.997477 1.000000
vt 0.996253 1.000000
vt 0.994030 1.000000
vt 0.994013 0.981353
vt 0.875000 1.000000
vt 0.874981 0.981341
vt 0.994007 0.969796
vt 0.875000 0.969779
vt 0.875000 0.780221
vt 0.750000 1.000000
vt 0.875104 0.981340
vt 0.749896 0.981340
vt 0.750000 0.780221
vt 0.750000 0.969779
vt 0.750033 0.768652
vt 0.625000 1.000000
vt 0.750151 0.981340
vt 0.624817 0.981335
vt 0.500003 1.000000
vt 0.625124 0.981335
vt 0.499900 0.981335
vt 0.625000 0.969772
vt 0.500000 0.969771
vt 0.625000 0.780231
vt 0.624960 0.768657
vt 0.500000 0.780231
vt 0.500002 0.768658
vt 0.625000 0.750000
vt 0.500000 0.750000
vt 0.750000 0.750000
vt 0.875039 0.732631
vt 0.750028 0.732631
vt 0.993975 0.721882
vt 0.875000 0.721859
vt 0.994025 0.528119
vt 0.875000 0.528141
vt 0.750000 0.721859
vt 0.750000 0.528141
vt 0.875034 0.517375
vt 0.750018 0.517375
vt 0.874975 0.500000
vt 0.749987 0.500000
vt 0.874963 0.481341
vt 0.749980 0.481340
vt 0.625016 0.500000
vt 0.624978 0.517382
vt 0.625000 0.528150
vt 0.625000 0.721846
vt 0.500000 0.528139
vt 0.624967 0.732624
vt 0.500000 0.721859
vt 0.374980 0.768644
vt 0.375000 0.780203
vt 0.250000 0.768644
vt 0.250000 0.780202
vt 0.250000 0.969798
vt 0.375000 0.969796
vt 0.250000 0.981356
vt 0.374936 0.981354
vt 0.375029 0.981354
vt 0.500108 0.981336
vt 0.250000 1.000000
vt 0.375000 1.000000
vt 0.499996 1.000000
vt 0.125000 1.000000
vt 0.125000 0.981356
vt 0.028172 1.000000
vt 0.027965 0.981356
vt 0.125000 0.969798
vt 0.125000 0.780202
vt 0.027965 0.768644
vt 0.125000 0.768644
vt 0.028172 0.750000
vt 0.028483 0.732644
vt 0.019555 0.727498
vt 0.027618 0.749842
vt 0.017772 0.744167
vt 0.008639 0.727236
vt 0.016748 0.742937
s 1
f 1/1/1 2/2/2 3/3/3
f 2/2/2 1/1/1 4/4/4
f 1/1/1 5/5/5 4/4/4
f 6/6/6 5/5/7 7/7/8
f 8/8/9 7/7/8 5/5/7
f 7/7/8 8/8/9 9/9/10
f 9/9/10 10/10/11 7/7/8
f 10/10/11 9/9/10 11/11/12
f 12/12/13 13/13/14 14/14/15
f 15/15/16 14/14/15 13/13/14
f 13/13/14 12/12/13 16/16/17
f 17/17/18 15/15/16 13/13/14
f 16/16/17 17/17/18 13/13/14
f 12/12/13 18/18/19 16/16/17
f 19/19/20 16/16/17 18/18/19
f 18/18/19 20/20/21 19/19/20
f 20/20/21 21/4/22 19/19/20
f 21/4/22 20/20/21 22/2/2
f 16/16/17 19/19/20 23/6/23
f 23/6/23 19/19/20 21/4/22
f 17/17/18 16/16/17 23/6/23
f 23/6/23 21/4/22 24/5/5
f 25/7/24 17/17/18 23/6/23
f 25/7/24 26/21/25 17/17/18
f 26/21/25 25/7/24 27/10/11
f 26/21/25 28/22/26 15/15/16
f 24/5/27 29/23/28 30/8/9
f 29/23/28 24/5/27 31/1/29
f 32/3/3 29/23/28 31/1/29
f 29/23/28 32/3/3 33/24/30
f 34/25/31 33/24/30 32/3/3
f 33/24/30 34/25/31 35/26/32
f 32/3/3 22/2/33 34/25/31
f 22/2/33 36/27/34 34/25/31
f 28/22/26 26/21/25 37/28/35
f 27/10/11 37/28/35 26/21/25
f 37/28/35 27/10/11 38/29/36
f 39/11/37 38/29/36 27/10/11
f 38/29/36 39/11/37 40/30/38
f 39/11/37 41/31/39 40/30/38
f 41/31/39 39/11/37 42/32/40
f 43/33/41 38/29/36 40/30/38
f 41/31/39 43/33/41 40/30/38
f 44/34/42 37/28/35 38/29/36
f 38/29/36 43/33/41 44/34/42
f 42/32/40 45/35/43 41/31/39
f 45/35/43 42/32/40 46/36/44
f 43/33/41 41/31/39 47/37/45
f 45/35/43 47/37/45 41/31/39
f 43/33/41 48/38/46 44/34/42
f 47/37/45 48/38/46 43/33/41
f 46/36/44 49/39/47 45/35/43
f 49/39/47 46/36/44 50/40/48
f 47/37/45 45/35/43 51/41/49
f 45/35/43 49/39/47 51/41/49
f 48/38/46 47/37/45 52/42/50
f 51/41/49 52/42/50 47/37/45
f 53/15/16 54/17/51 55/21/52
f 56/43/53 57/44/54 58/45/55
f 59/46/56 58/45/55 60/47/57
f 61/48/58 62/49/59 63/50/60
f 64/51/61 61/48/58 65/52/62
f 66/53/63 67/54/64 68/55/65
f 66/53/63 68/55/65 69/56/66
f 68/55/65 67/54/64 70/57/67
f 71/58/68 69/56/66 68/55/65
f 69/56/66 71/58/68 72/59/69
f 73/60/59 72/59/69 71/58/68
f 74/61/70 70/57/67 67/54/64
f 70/57/67 74/61/70 75/62/71
f 76/63/72 75/62/71 74/61/70
f 75/62/71 76/63/72 77/64/73
f 78/65/74 79/66/75 80/67/76
f 81/68/77 78/65/74 80/67/76
f 78/65/74 81/68/77 82/69/78
f 83/70/79 82/69/78 81/68/77
f 82/69/78 83/70/79 84/71/80
f 80/67/76 79/66/75 85/72/81
f 79/66/75 86/73/82 85/72/81
f 86/73/82 79/66/75 87/74/83
f 87/74/83 88/75/84 86/73/82
f 88/75/84 87/74/83 89/76/85
f 80/67/76 85/72/81 90/77/86
f 90/77/86 85/72/81 91/78/87
f 92/79/88 80/67/76 90/77/86
f 85/72/81 93/80/89 91/78/87
f 80/67/76 92/79/88 94/81/90
f 95/82/69 94/81/90 92/79/88
f 94/81/90 95/82/69 96/83/91
f 93/80/89 85/72/81 97/84/82
f 93/80/89 97/84/82 98/85/72
f 98/85/72 97/84/82 99/86/92
f 100/87/93 101/88/94 102/89/95
f 100/87/93 102/89/95 103/90/96
f 103/90/96 102/89/95 104/91/97
f 104/91/97 102/89/95 105/92/98
f 102/89/95 101/88/94 106/93/99
f 106/93/99 105/92/98 102/89/95
f 107/94/100 106/93/99 101/88/94
f 106/93/99 107/94/100 108/95/101
f 105/92/98 106/93/99 109/96/102
f 108/95/101 109/96/102 106/93/99
f 109/96/102 110/97/103 105/92/98
f 111/98/104 109/96/102 108/95/101
f 112/99/105 110/97/103 109/96/102
f 109/96/102 111/98/104 112/99/105
f 113/100/106 114/101/107 115/102/108
f 115/102/108 116/103/109 113/100/106
f 107/94/100 113/100/106 116/103/109
f 117/104/110 116/103/109 115/102/108
f 116/103/109 117/104/110 118/105/111
f 119/106/112 118/105/111 117/104/110
f 118/105/111 119/106/112 120/107/113
f 119/106/112 121/108/114 120/107/113
f 121/108/114 119/106/112 122/109/115
f 122/109/115 123/110/116 121/108/114
f 123/110/116 122/109/115 124/111/117
f 124/111/117 125/112/118 123/110/116
f 125/112/118 124/111/117 126/113/119
f 118/105/111 108/95/101 116/103/109
f 116/103/109 108/95/101 107/94/100
f 108/95/101 118/105/111 111/98/104
f 127/107/113 111/98/104 118/105/111
f 111/98/104 127/107/113 128/114/120
f 129/108/114 128/114/120 127/107/113
f 128/114/120 129/108/114 130/115/121
f 129/108/114 131/116/122 130/115/121
f 131/116/122 129/108/114 132/117/116
f 132/117/116 133/118/123 131/116/122
f 133/118/123 132/117/116 125/112/118
f 134/119/124 135/120/122 133/118/123
f 135/120/122 134/119/124 136/121/125
f 136/121/125 137/115/121 135/120/122
f 137/115/121 136/121/125 138/122/126
f 139/123/127 137/115/121 138/122/126
f 137/115/121 139/123/127 140/114/120
f 112/99/105 140/114/120 139/123/127
f 140/114/120 112/99/105 111/98/104
f 134/119/124 141/124/128 142/125/125
f 142/125/125 141/124/128 143/126/129
f 141/124/128 144/127/130 143/126/129
f 143/126/129 145/122/126 142/125/125
f 143/126/129 144/127/130 146/128/131
f 144/127/130 147/129/32 146/128/131
f 148/25/132 146/128/131 147/129/32
f 149/27/34 146/128/131 148/25/132
f 146/128/131 149/27/34 150/130/133
f 146/128/131 151/131/134 143/126/129
f 145/122/126 143/126/129 151/131/134
f 151/131/134 146/128/131 150/130/133
f 152/132/135 145/122/126 151/131/134
f 145/122/126 152/132/135 153/123/127
f 150/130/133 154/133/136 151/131/134
f 152/132/135 151/131/134 154/133/136
f 150/130/133 155/134/137 154/133/136
f 155/134/137 150/130/133 156/27/138
f 156/27/138 20/20/21 155/134/137
f 20/20/21 156/27/138 22/2/2
f 157/135/139 153/123/127 152/132/135
f 153/123/127 157/135/139 112/99/105
f 152/132/135 154/133/136 158/136/140
f 157/135/139 152/132/135 158/136/140
f 154/133/136 159/137/141 158/136/140
f 159/137/141 154/133/136 160/134/142
f 157/135/139 158/136/140 161/138/143
f 110/97/103 112/99/105 157/135/139
f 110/97/103 157/135/139 161/138/143
f 158/136/140 162/139/144 161/138/143
f 162/139/144 158/136/140 159/137/141
f 162/139/144 163/140/145 161/138/143
f 163/140/145 110/97/103 161/138/143
f 164/141/146 162/139/144 159/137/141
f 165/134/147 164/141/146 159/137/141
f 164/141/146 165/134/147 20/20/21
f 162/139/144 164/141/146 166/142/148
f 163/140/145 162/139/144 166/142/148
f 164/141/146 167/143/149 166/142/148
f 167/143/149 164/141/146 18/18/19
f 20/20/21 18/18/19 164/141/146
f 168/144/150 163/140/145 166/142/148
f 169/143/151 168/144/150 166/142/148
f 170/145/152 163/140/145 168/144/150
f 18/18/19 171/146/153 169/143/151
f 172/147/154 169/143/151 171/146/153
f 169/143/151 172/147/154 168/144/150
f 171/146/153 18/18/19 12/12/13
f 173/148/155 168/144/150 172/147/154
f 168/144/150 173/148/155 170/145/152
f 173/148/155 172/147/154 174/149/156
f 175/146/157 174/149/156 172/147/154
f 170/145/152 176/150/158 163/140/145
f 110/97/103 163/140/145 176/150/158
f 170/145/152 177/91/159 176/150/158
f 105/92/98 176/150/158 177/91/159
f 176/150/158 105/92/98 110/97/103
f 177/91/159 170/145/152 178/151/160
f 178/151/160 170/145/152 173/148/155
f 174/149/156 175/146/157 179/152/161
f 180/153/162 178/151/160 173/148/155
f 180/153/162 173/148/155 174/149/156
f 180/153/162 174/149/156 181/154/163
f 182/155/164 180/153/162 181/154/163
f 174/149/156 183/156/165 181/154/163
f 174/149/156 179/152/161 183/156/165
f 184/157/166 181/154/163 183/156/165
f 184/157/166 185/155/167 181/154/163
f 185/155/167 184/157/166 186/158/168
f 183/156/165 187/159/169 184/157/166
f 179/152/161 187/159/169 183/156/165
f 187/159/169 28/22/26 184/157/166
f 28/22/26 186/158/168 184/157/166
f 187/159/169 179/152/161 14/14/15
f 179/152/161 12/12/13 14/14/15
f 12/12/13 179/152/161 188/146/170
f 14/14/15 15/15/16 187/159/169
f 28/22/26 187/159/169 15/15/16
f 189/160/171 190/161/172 191/162/173
f 192/163/174 193/164/175 194/165/176
f 195/166/177 192/163/174 194/165/176
f 189/160/171 193/164/175 196/167/178
f 197/47/179 198/168/180 195/166/177
f 198/168/180 192/163/174 195/166/177
f 197/47/179 199/169/181 198/168/180
f 199/169/181 197/47/179 200/45/55
f 200/45/55 201/170/182 199/169/181
f 196/167/178 202/171/183 189/160/171
f 190/161/172 189/160/171 202/171/183
f 203/172/184 196/167/178 193/164/175
f 192/163/174 203/172/184 193/164/175
f 203/172/184 202/171/183 196/167/178
f 204/173/185 203/172/184 192/163/174
f 198/168/180 204/173/185 192/163/174
f 202/171/183 203/172/184 205/174/186
f 204/173/185 205/174/186 203/172/184
f 190/161/172 202/171/183 206/175/187
f 205/174/186 206/175/187 202/171/183
f 198/168/180 207/176/188 204/173/185
f 207/176/188 198/168/180 199/169/181
f 205/174/186 204/173/185 208/177/189
f 209/178/190 204/173/185 207/176/188
f 209/178/190 208/177/189 204/173/185
f 210/179/191 211/180/192 212/181/193
f 213/182/194 211/180/192 210/179/191
f 214/183/195 212/181/193 114/101/107
f 212/181/193 214/183/195 210/179/191
f 210/179/191 215/184/194 213/182/194
f 216/185/196 213/182/194 215/184/194
f 217/186/197 210/179/191 214/183/195
f 210/179/191 217/186/197 215/184/194
f 218/187/198 215/184/194 217/186/197
f 215/184/194 218/187/198 216/185/196
f 219/188/199 216/185/196 218/187/198
f 218/187/198 220/189/200 219/188/199
f 221/190/201 219/188/199 220/189/200
f 220/189/200 218/187/198 222/191/202
f 223/186/197 222/191/202 218/187/198
f 214/183/195 224/192/203 223/186/197
f 222/191/202 223/186/197 224/192/203
f 224/192/203 214/183/195 225/193/204
f 114/101/107 225/193/204 214/183/195
f 224/192/203 225/193/204 226/194/94
f 224/192/203 226/194/94 227/87/93
f 228/195/205 224/192/203 227/87/93
f 224/192/203 228/195/205 222/191/202
f 226/194/94 225/193/204 107/94/100
f 225/193/204 114/101/107 113/100/106
f 113/100/106 107/94/100 225/193/204
f 229/196/206 230/197/207 231/198/208
f 230/197/207 232/199/209 231/198/208
f 229/196/206 231/198/208 233/200/210
f 234/201/211 233/200/210 231/198/208
f 233/200/210 234/201/211 235/202/212
f 235/202/212 236/203/213 233/200/210
f 236/203/213 229/196/206 233/200/210
f 236/203/213 235/202/212 237/204/214
f 231/198/208 238/205/215 234/201/211
f 238/205/215 231/198/208 232/199/209
f 238/205/215 239/206/216 234/201/211
f 240/207/217 234/201/211 239/206/216
f 234/201/211 240/207/217 241/202/218
f 239/206/216 238/205/215 242/208/219
f 243/209/220 241/202/218 240/207/217
f 241/202/218 243/209/220 237/204/214
f 237/204/214 244/210/221 236/203/213
f 245/211/222 237/204/214 243/209/220
f 246/212/223 242/208/219 238/205/215
f 232/199/209 246/212/223 238/205/215
f 247/213/224 245/211/222 243/209/220
f 248/207/217 247/213/224 243/209/220
f 237/204/214 245/211/222 249/214/225
f 244/210/221 237/204/214 249/214/225
f 246/212/223 232/199/209 250/215/226
f 232/199/209 251/216/227 250/215/226
f 252/217/196 246/212/223 250/215/226
f 250/215/226 251/216/227 252/217/196
f 251/216/227 232/199/209 253/218/228
f 232/199/209 230/197/207 253/218/228
f 254/219/229 252/217/196 251/216/227
f 255/220/230 253/218/228 230/197/207
f 246/212/223 252/217/196 216/185/196
f 230/197/207 256/221/231 255/220/230
f 229/196/206 256/221/231 230/197/207
f 256/221/231 229/196/206 257/222/232
f 216/185/196 219/188/199 246/212/223
f 242/208/219 246/212/223 219/188/199
f 213/182/194 216/185/196 252/217/196
f 219/188/199 221/190/201 242/208/219
f 252/217/196 258/223/233 213/182/194
f 258/223/233 252/217/196 254/219/229
f 213/182/194 258/223/233 259/180/192
f 191/162/173 259/180/192 258/223/233
f 254/219/229 260/224/234 258/223/233
f 260/224/234 191/162/173 258/223/233
f 259/180/192 191/162/173 190/161/172
f 260/224/234 254/219/229 261/225/235
f 254/219/229 262/226/236 261/225/235
f 262/226/236 254/219/229 263/216/237
f 264/227/238 260/224/234 261/225/235
f 265/228/239 261/225/235 262/226/236
f 261/225/235 265/228/239 264/227/238
f 262/226/236 266/216/227 253/218/228
f 262/226/236 253/218/228 267/229/240
f 265/228/239 262/226/236 267/229/240
f 253/218/228 255/220/230 267/229/240
f 267/229/240 268/230/241 265/228/239
f 268/230/241 267/229/240 255/220/230
f 269/231/242 264/227/238 265/228/239
f 265/228/239 268/230/241 269/231/242
f 255/220/230 270/51/61 268/230/241
f 264/227/238 269/231/242 271/232/243
f 268/230/241 272/52/62 269/231/242
f 268/230/241 270/51/61 272/52/62
f 272/52/62 271/232/243 269/231/242
f 255/220/230 273/233/244 270/51/61
f 255/220/230 256/221/231 273/233/244
f 270/51/61 273/233/244 274/48/245
f 275/234/246 273/233/244 256/221/231
f 257/222/232 275/234/246 256/221/231
f 276/235/247 274/48/245 273/233/244
f 273/233/244 275/234/246 276/235/247
f 274/48/245 276/235/247 277/49/248
f 278/236/249 276/235/247 275/234/246
f 275/234/246 257/222/232 278/236/249
f 276/235/247 278/236/249 279/237/250
f 257/222/232 279/237/250 278/236/249
f 279/237/250 280/238/251 276/235/247
f 280/238/251 279/237/250 281/239/252
f 282/50/253 272/52/62 274/48/58
f 283/240/254 282/50/253 277/49/248
f 282/50/253 283/240/254 284/241/255
f 285/55/65 284/241/255 283/240/254
f 285/55/65 286/57/256 284/241/255
f 284/241/255 286/57/256 287/242/257
f 288/243/258 287/242/257 286/57/256
f 287/242/257 288/243/258 289/43/259
f 290/44/54 289/43/259 288/243/258
f 272/52/62 282/50/253 291/244/260
f 292/241/261 291/244/260 282/50/253
f 271/232/243 272/52/62 291/244/260
f 291/244/260 292/241/261 293/245/262
f 292/241/261 294/242/263 293/245/262
f 289/43/264 293/245/262 294/242/263
f 295/246/265 291/244/260 293/245/262
f 291/244/260 295/246/265 271/232/243
f 293/245/262 289/43/264 296/46/266
f 200/45/55 296/46/266 289/43/264
f 295/246/265 293/245/262 297/247/267
f 293/245/262 296/46/266 297/247/267
f 298/248/268 271/232/243 295/246/265
f 201/170/182 200/45/55 290/44/269
f 271/232/243 298/248/268 299/249/270
f 271/232/243 299/249/270 264/227/238
f 260/224/234 264/227/238 299/249/270
f 300/250/271 299/249/270 298/248/268
f 299/249/270 300/250/271 260/224/234
f 298/248/268 295/246/265 301/251/272
f 295/246/265 297/247/267 301/251/272
f 302/248/268 301/251/272 300/250/271
f 191/162/173 260/224/234 300/250/271
f 300/250/271 301/251/272 303/252/273
f 303/252/273 191/162/173 300/250/271
f 301/251/272 297/247/267 194/165/176
f 301/251/272 194/165/176 303/252/273
f 297/247/267 195/166/177 194/165/176
f 297/247/267 296/46/266 195/166/177
f 296/46/266 197/47/179 195/166/177
f 191/162/173 303/252/273 189/160/171
f 303/252/273 194/165/176 193/164/175
f 303/252/273 193/164/175 189/160/171
f 199/169/181 304/253/274 207/176/188
f 304/253/274 199/169/181 201/170/182
f 305/254/275 207/176/188 304/253/274
f 207/176/188 305/254/275 209/178/190
f 201/170/182 306/255/276 304/253/274
f 305/254/275 304/253/274 306/255/276
f 306/255/276 201/170/182 307/256/277
f 307/256/277 305/254/275 306/255/276
f 308/257/269 307/256/277 201/170/182
f 307/256/277 308/257/269 309/258/278
f 305/254/275 307/256/277 310/259/279
f 311/260/278 310/259/279 307/256/277
f 310/259/279 311/260/278 312/261/92
f 313/262/280 310/259/279 314/263/84
f 310/259/279 313/262/280 315/264/281
f 315/264/281 305/254/275 310/259/279
f 305/254/275 315/264/281 209/178/190
f 316/265/282 315/264/281 317/266/280
f 315/264/281 316/265/282 318/267/283
f 318/267/283 209/178/190 315/264/281
f 319/268/282 318/267/283 316/265/282
f 209/178/190 318/267/283 320/269/284
f 318/267/283 319/268/282 321/270/283
f 321/270/283 320/269/284 318/267/283
f 322/271/285 321/270/283 319/268/282
f 208/177/189 209/178/190 320/269/284
f 321/270/283 322/271/285 323/272/286
f 323/272/286 324/273/287 321/270/283
f 320/269/284 321/270/283 324/273/287
f 324/273/287 323/272/286 325/274/288
f 326/275/189 320/269/284 324/273/287
f 325/274/288 326/275/189 324/273/287
f 320/269/284 326/275/189 208/177/189
f 326/275/189 325/274/288 327/276/289
f 328/277/290 208/177/189 326/275/189
f 327/276/289 328/277/290 326/275/189
f 208/177/189 328/277/290 205/174/186
f 206/175/187 205/174/186 328/277/290
f 329/278/119 330/279/286 322/271/285
f 330/279/286 329/278/119 331/280/117
f 331/280/117 332/274/288 330/279/286
f 332/274/288 331/280/117 333/109/115
f 333/109/115 327/276/289 332/274/288
f 327/276/289 333/109/115 334/106/112
f 117/104/110 327/276/289 334/106/112
f 328/277/290 327/276/289 335/281/291
f 335/281/291 206/175/187 328/277/290
f 327/276/289 117/104/110 335/281/291
f 206/175/187 335/281/291 336/282/292
f 206/175/187 336/282/292 212/181/193
f 212/181/193 190/161/172 206/175/187
f 335/281/291 115/102/108 336/282/292
f 115/102/108 335/281/291 117/104/110
f 211/180/192 190/161/172 212/181/193
f 336/282/292 115/102/108 114/101/107
f 114/101/107 212/181/193 336/282/292
f 50/40/48 337/283/293 49/39/47
f 337/283/293 50/40/48 338/284/30
f 337/283/293 338/284/30 339/285/32
f 340/286/294 337/283/293 339/285/32
f 341/287/295 337/283/293 340/286/294
f 337/283/293 341/287/295 342/288/296
f 342/288/296 49/39/47 337/283/293
f 343/289/297 342/288/296 341/287/295
f 344/290/298 342/288/296 343/289/297
f 49/39/47 342/288/296 345/291/299
f 344/290/298 345/291/299 342/288/296
f 51/41/49 49/39/47 345/291/299
f 345/291/299 344/290/298 346/292/300
f 347/293/301 345/291/299 346/292/300
f 345/291/299 347/293/301 51/41/49
f 52/42/50 51/41/49 347/293/301
f 348/294/302 349/295/298 343/289/297
f 349/295/298 348/294/302 350/296/303
f 350/296/303 351/292/300 349/295/298
f 351/292/300 352/297/304 347/293/301
f 351/292/300 350/296/303 353/298/305
f 352/297/304 351/292/300 353/298/305
f 354/299/306 347/293/301 352/297/304
f 347/293/301 354/299/306 52/42/50
f 355/300/307 356/301/303 348/294/302
f 356/301/303 355/300/307 357/302/308
f 357/302/308 353/298/305 356/301/303
f 358/303/309 359/304/308 355/300/307
f 359/304/308 358/303/309 360/305/310
f 360/305/310 361/306/311 359/304/308
f 353/298/305 357/302/308 361/306/312
f 361/306/311 360/305/310 362/307/313
f 363/308/314 353/298/305 361/306/312
f 353/298/305 363/308/314 364/297/315
f 365/309/316 364/297/315 363/308/314
f 364/297/315 365/309/316 354/299/306
f 366/310/317 361/306/311 362/307/313
f 361/306/311 366/310/317 367/308/314
f 367/308/314 368/311/318 365/309/316
f 368/311/318 367/308/314 366/310/317
f 369/312/319 354/299/306 365/309/316
f 370/313/320 365/309/316 368/311/318
f 365/309/316 370/313/320 369/312/319
f 368/311/318 245/211/222 370/313/320
f 354/299/306 369/312/319 371/314/321
f 371/314/321 52/42/50 354/299/306
f 52/42/50 371/314/321 48/38/46
f 48/38/46 371/314/321 372/315/322
f 44/34/42 48/38/46 372/315/322
f 371/314/321 369/312/319 373/316/323
f 372/315/322 371/314/321 373/316/323
f 44/34/42 372/315/322 374/317/324
f 37/28/35 44/34/42 374/317/324
f 374/317/324 28/22/26 37/28/35
f 374/317/324 372/315/322 375/318/325
f 372/315/322 373/316/323 375/318/325
f 28/22/26 374/317/324 376/319/326
f 374/317/324 375/318/325 376/319/326
f 186/158/168 28/22/26 376/319/326
f 376/319/326 375/318/325 377/320/327
f 375/318/325 373/316/323 378/321/328
f 378/321/328 379/320/327 375/318/325
f 379/320/327 378/321/328 380/322/329
f 381/323/330 376/319/326 377/320/327
f 376/319/326 381/323/330 186/158/168
f 382/324/331 379/320/327 380/322/329
f 379/320/327 382/324/331 381/323/330
f 383/325/332 186/158/168 381/323/330
f 186/158/168 383/325/332 182/155/164
f 384/326/333 381/323/330 382/324/331
f 381/323/330 384/326/333 383/325/332
f 385/327/334 182/155/164 383/325/332
f 182/155/164 385/327/334 180/153/162
f 178/151/160 180/153/162 385/327/334
f 383/325/332 386/328/335 385/327/334
f 386/328/335 383/325/332 384/326/333
f 385/327/334 103/90/96 178/151/160
f 103/90/96 385/327/334 386/328/335
f 103/90/96 104/91/97 178/151/160
f 384/326/333 228/195/205 386/328/335
f 386/328/335 100/87/93 103/90/96
f 100/87/93 386/328/335 228/195/205
f 228/195/205 384/326/333 387/329/336
f 382/324/331 387/329/336 384/326/333
f 387/329/336 222/191/202 228/195/205
f 222/191/202 387/329/336 220/189/200
f 387/329/336 382/324/331 388/330/337
f 388/330/337 220/189/200 387/329/336
f 389/322/329 388/330/337 382/324/331
f 220/189/200 388/330/337 221/190/201
f 388/330/337 389/322/329 390/331/338
f 390/331/338 221/190/201 388/330/337
f 389/322/329 391/332/339 390/331/338
f 391/332/339 389/322/329 392/321/328
f 221/190/201 390/331/338 393/333/340
f 392/321/328 394/334/341 391/332/339
f 393/333/340 242/208/219 221/190/201
f 373/316/323 394/334/341 392/321/328
f 373/316/323 369/312/319 394/334/341
f 242/208/219 393/333/340 395/206/342
f 369/312/319 370/313/320 394/334/341
f 396/332/343 393/333/340 390/331/338
f 397/335/344 395/206/342 393/333/340
f 393/333/340 396/332/343 397/335/344
f 395/206/342 397/335/344 248/207/217
f 247/213/224 248/207/217 397/335/344
f 396/332/343 247/213/224 397/335/344
f 394/334/341 247/213/224 396/332/343
f 394/334/341 370/313/320 247/213/224
f 245/211/222 247/213/224 370/313/320
f 245/211/222 368/311/318 398/336/345
f 398/336/345 249/214/225 245/211/222
f 368/311/318 399/337/346 398/336/345
f 399/337/346 368/311/318 366/310/317
f 249/214/225 398/336/345 400/338/347
f 400/338/347 244/210/221 249/214/225
f 401/339/348 398/336/345 399/337/346
f 398/336/345 401/339/348 400/338/347
f 399/337/346 402/340/349 401/339/348
f 366/310/317 403/341/350 399/337/346
f 402/340/349 399/337/346 403/341/350
f 403/341/350 366/310/317 362/307/313
f 403/341/350 404/342/351 402/340/349
f 362/307/313 405/343/352 403/341/350
f 404/342/351 403/341/350 406/344/352
f 405/343/352 362/307/313 407/345/353
f 406/344/352 408/346/354 404/342/351
f 407/345/353 409/347/355 405/343/352
f 408/346/354 406/344/352 409/347/355
f 409/347/355 407/345/353 410/348/309
f 411/349/354 412/342/356 408/346/354
f 412/342/356 411/349/354 413/350/356
f 414/351/85 413/350/356 411/349/354
f 413/350/356 415/340/349 412/342/356
f 413/350/356 414/351/85 416/352/83
f 416/352/83 417/353/349 413/350/356
f 415/340/349 413/350/356 417/353/349
f 417/353/349 416/352/83 418/66/75
f 78/65/357 417/353/349 418/66/75
f 419/354/358 415/340/349 417/353/349
f 417/353/349 78/65/357 419/354/358
f 415/340/349 419/354/358 401/339/348
f 420/355/78 419/354/358 78/65/357
f 421/356/359 401/339/348 419/354/358
f 419/354/358 420/355/78 421/356/359
f 401/339/348 421/356/359 400/338/347
f 422/357/80 421/356/359 420/355/78
f 244/210/221 400/338/347 421/356/359
f 421/356/359 422/357/80 244/210/221
f 423/358/360 244/210/221 422/357/80
f 244/210/221 423/358/360 236/203/213
f 229/196/206 236/203/213 423/358/360
f 423/358/360 257/222/232 229/196/206
f 257/222/232 423/358/360 424/359/361
f 425/360/362 424/359/361 423/358/360
f 424/359/361 425/360/362 426/361/91
f 424/359/361 279/237/250 257/222/232
f 424/359/361 427/362/252 279/237/250
f 428/363/91 427/362/252 424/359/361
