# Blender 5.2.1 LTS
# www.blender.org
o RenderMesh_140242362964055
v 1.818915 0.023345 -0.029543
v 1.818377 0.024381 -0.028520
v 1.818574 0.023229 -0.028495
v 1.818265 0.022342 -0.028548
v 1.818533 0.022254 -0.029543
v 1.818377 0.024381 -0.048993
v 1.818915 0.023345 -0.047970
v 1.818574 0.023229 -0.049019
v 1.818671 0.024456 -0.047970
v 1.750333 0.127939 -0.043104
v 1.733435 0.151205 -0.042375
v 1.721234 0.168947 -0.041097
v 1.714942 0.178329 -0.039752
v 1.710540 0.184191 -0.039882
v 1.717761 0.174579 -0.039024
v 1.734496 0.150738 -0.041645
v 1.741851 0.140589 -0.041291
v 1.756248 0.119797 -0.042640
v 1.677604 0.228134 -0.014104
v 1.816285 0.023848 -0.027073
v 1.707485 0.186990 -0.017132
v 0.524564 -0.263290 -0.029863
v 0.519115 -0.268642 -0.031210
v 1.670639 0.227260 -0.014329
v 0.514502 -0.273171 -0.032757
v 1.732829 0.152091 -0.020107
v 1.720635 0.169822 -0.019102
v 1.664940 0.224733 -0.015034
v 1.661144 0.223052 -0.015985
v 1.699574 0.198874 -0.016642
v 1.692201 0.209691 -0.016423
v 1.689892 0.213314 -0.016916
v 1.687142 0.217330 -0.017708
v 1.709952 0.185050 -0.018309
v 1.714385 0.179144 -0.019279
v 1.717258 0.175314 -0.020548
v 1.717761 0.174579 -0.039024
v 1.741851 0.140589 -0.041291
v 1.741348 0.141324 -0.022815
v 1.733935 0.151557 -0.021065
v 1.755745 0.120533 -0.024164
v 1.756248 0.119797 -0.042640
v 1.749774 0.128756 -0.022576
v 1.732829 0.152091 -0.020107
v 1.818671 0.024456 -0.029543
v 1.818377 0.024381 -0.028520
v 1.818671 0.024456 -0.047970
v 1.818915 0.023345 -0.047970
v 1.750333 0.127939 -0.043104
v 1.734496 0.150738 -0.041645
v 1.721234 0.168947 -0.041097
v 1.714942 0.178329 -0.039752
v 1.818533 0.022254 -0.047970
v 1.818265 0.022342 -0.048965
v 1.818574 0.023229 -0.049019
v 1.817849 0.022478 -0.049513
v 1.817866 0.023110 -0.049724
v 1.817539 0.024168 -0.049860
v 1.818377 0.024381 -0.048993
v 1.733435 0.151205 -0.042375
v 1.733935 0.151557 -0.021065
v 1.717258 0.175314 -0.020548
v 1.714385 0.179144 -0.019279
v 1.720635 0.169822 -0.019102
v -1.848273 -0.337457 -0.067609
v -1.851241 -0.338623 -0.070207
v -1.850518 -0.337863 -0.070154
v -1.717024 -0.320239 0.146906
v -1.847720 -0.360675 -0.069000
v -1.081629 -0.364171 -0.028410
v -1.082055 -0.364138 -0.009860
v -1.081697 -0.363947 -0.008940
v -1.081224 -0.363984 -0.029550
v -1.067615 -0.365001 -0.033261
v -1.847331 -0.360327 -0.069397
v -1.066508 -0.364465 -0.034449
v -1.080117 -0.363448 -0.030739
v -0.420933 -0.373277 -0.060351
v -1.846270 -0.359353 -0.068554
v -0.421871 -0.373889 -0.059448
v -1.849350 -0.359717 -0.070913
v -1.068020 -0.365188 -0.032120
v -1.082055 -0.364138 -0.009860
v -0.422216 -0.374103 -0.058411
v -1.068445 -0.365154 -0.013570
v -1.849432 -0.360223 -0.070207
v -1.850193 -0.359490 -0.070702
v -1.850518 -0.359717 -0.070154
v -1.849393 -0.360488 -0.069158
v -1.850727 -0.359864 -0.069158
v -1.847818 -0.360707 -0.056008
v -1.849393 -0.360488 -0.055907
v -1.850727 -0.359864 -0.069158
v -1.837375 -0.357480 -0.038087
v -1.850727 -0.359864 -0.055822
v -1.848640 -0.360488 -0.053447
v -1.851619 -0.358930 -0.069158
v -1.810691 -0.349224 0.003846
v -1.770727 -0.336857 0.065316
v -1.719185 -0.320681 0.144698
v -1.780302 -0.339594 0.051843
v -1.828672 -0.354562 -0.022556
v -1.849897 -0.359864 -0.053109
v -1.851619 -0.358930 -0.055765
v -1.843183 -0.358407 -0.043758
v -1.787688 -0.341234 0.041601
v -1.720284 -0.320376 0.144007
v -1.850737 -0.358930 -0.052883
v -1.080630 -0.363407 -0.008382
v -1.720156 -0.319371 0.144934
v -1.068087 -0.364963 -0.012651
v -1.079017 -0.362601 -0.008270
v -1.067020 -0.364424 -0.012093
v -0.422340 -0.373882 -0.038957
v -1.791760 -0.341529 0.036147
v -1.718818 -0.317818 0.147342
v -1.791897 -0.340432 0.036315
v -1.761712 -0.312399 0.084944
v -1.687771 -0.298120 0.157330
v -1.757895 -0.310079 0.090705
v -1.848242 -0.358930 -0.050456
v -1.791897 -0.340432 0.036315
v -1.848468 -0.357828 -0.050310
v -1.851032 -0.357828 -0.052803
v -1.848468 -0.357828 -0.050310
v -1.851032 -0.339753 -0.052803
v -1.823639 -0.331562 -0.010308
v -1.761712 -0.312399 0.084944
v -1.818150 -0.328724 -0.001975
v -1.850737 -0.338651 -0.052883
v -1.806198 -0.324059 0.015826
v -1.750703 -0.306887 0.101185
v -1.843250 -0.335524 -0.042400
v -1.789602 -0.318278 0.040387
v -1.685330 -0.297209 0.156428
v -1.682215 -0.296515 0.154970
v -1.851619 -0.338651 -0.055765
v -1.741233 -0.303310 0.114786
v -1.770890 -0.312260 0.067968
v -1.678901 -0.296144 0.153180
v -1.797574 -0.320517 0.026035
v -1.730926 -0.299894 0.129438
v -1.821898 -0.328271 -0.010364
v -1.850727 -0.337717 -0.055822
v -1.834002 -0.332016 -0.031113
v -1.675891 -0.296151 0.151330
v -1.808210 -0.323807 0.007803
v -1.850727 -0.337717 -0.069158
v -1.851619 -0.338651 -0.069158
v -1.833709 -0.331919 -0.043891
v -1.850518 -0.337863 -0.070154
v -1.850727 -0.337717 -0.069158
v -1.807919 -0.323711 -0.004878
v -1.851241 -0.338623 -0.070207
v -1.834764 -0.332518 -0.046576
v -1.848273 -0.337457 -0.067609
v -1.808262 -0.324044 -0.006454
v -1.834271 -0.332889 -0.046621
v -1.809285 -0.325005 -0.008970
v -1.850518 -0.338681 -0.070913
v -1.851619 -0.339753 -0.070182
v -1.850727 -0.339753 -0.071049
v -1.850727 -0.357828 -0.071049
v -1.851932 -0.339753 -0.069158
v -1.851619 -0.357828 -0.070182
v -1.850518 -0.358900 -0.070913
v -1.851241 -0.358957 -0.070207
v -1.850193 -0.359490 -0.070702
v -1.850518 -0.359717 -0.070154
v -1.850727 -0.359864 -0.069158
v -1.851932 -0.357828 -0.069158
v -1.851932 -0.357828 -0.055745
v -1.851032 -0.357828 -0.052803
v -1.851932 -0.339753 -0.055745
v -1.851032 -0.339753 -0.052803
v 0.378247 -0.465165 -0.082868
v 0.152375 -0.324281 -0.048501
v 0.152726 -0.323641 -0.066880
v 0.377878 -0.465641 -0.064527
v 0.377540 -0.465771 -0.084038
v 0.152405 -0.323924 -0.067940
v 0.375482 -0.467551 -0.085332
v 0.151453 -0.324799 -0.068917
v 0.658188 -0.429712 -0.057997
v 0.656959 -0.429247 -0.058978
v 0.377540 -0.465771 -0.084038
v 0.652470 -0.419388 -0.059112
v 0.375482 -0.467551 -0.085332
v 0.657795 -0.429967 -0.039580
v 0.656340 -0.427889 -0.038398
v 1.816105 0.020972 -0.028520
v 1.816212 0.020766 -0.047970
v 1.816212 0.020766 -0.029543
v 1.817492 0.021607 -0.028495
v 1.816105 0.020972 -0.048993
v 0.656959 -0.429247 -0.058978
v 1.815800 0.021559 -0.049860
v 0.652470 -0.419388 -0.059112
v 1.817168 0.022063 -0.049724
v 1.817492 0.021607 -0.049019
v 1.818265 0.022342 -0.048965
v 1.817849 0.022478 -0.049513
v 1.818533 0.022254 -0.047970
v 1.817584 0.021349 -0.047970
v 1.817584 0.021349 -0.029543
v 1.818533 0.022254 -0.047970
v 1.818533 0.022254 -0.029543
v 1.818265 0.022342 -0.028548
v 1.818915 0.023345 -0.029543
v 1.817168 0.022063 -0.027789
v 1.817849 0.022478 -0.028000
v 1.818574 0.023229 -0.028495
v 1.816874 0.022796 -0.027319
v 1.817866 0.023110 -0.027789
v 1.817539 0.024168 -0.027653
v 1.815344 0.022436 -0.027073
v 1.815800 0.021559 -0.027653
v 1.817539 0.024168 -0.027653
v 1.814806 0.023472 -0.026870
v 0.637050 -0.385518 -0.033593
v -0.143675 -0.368155 -0.032761
v 0.149570 -0.326943 -0.046356
v -0.143493 -0.367217 -0.032175
v -0.143784 -0.368782 -0.033632
v 0.147856 -0.328549 -0.046352
v -0.143270 -0.366110 -0.031964
v 0.151030 -0.325570 -0.046767
v -0.422639 -0.374097 -0.039969
v -0.143805 -0.369002 -0.034656
v -0.143384 -0.368993 -0.053073
v -0.143316 -0.368773 -0.054094
v -0.421871 -0.373889 -0.059448
v -0.143167 -0.368145 -0.054956
v -0.420933 -0.373277 -0.060351
v 0.152016 -0.324634 -0.047519
v 0.375038 -0.468124 -0.063226
v -0.143384 -0.368993 -0.053073
v 0.152726 -0.323641 -0.066880
v 0.152405 -0.323924 -0.067940
v -0.143316 -0.368773 -0.054094
v 0.151453 -0.324799 -0.068917
v -0.143167 -0.368145 -0.054956
v 0.377129 -0.466300 -0.063660
v 0.370205 -0.455239 -0.061591
v 0.651799 -0.417915 -0.036788
v 0.645025 -0.403036 -0.035101
v 1.815800 0.021559 -0.027653
v 0.364217 -0.437333 -0.059846
v 0.524564 -0.263290 -0.029863
v 0.117131 -0.330117 -0.046678
v -0.139547 -0.347835 -0.032066
v 0.266209 -0.144243 -0.034617
v 0.115142 -0.329146 -0.046775
v -0.139315 -0.346711 -0.032289
v 0.113466 -0.328323 -0.047265
v 0.260235 -0.126378 -0.033283
v -0.139111 -0.345758 -0.032886
v 0.256166 -0.120189 -0.033339
v -1.063493 -0.362668 -0.012332
v -1.032183 -0.345536 -0.015531
v -1.045704 -0.345367 -0.015047
v -1.077103 -0.361652 -0.008622
v -1.687771 -0.298120 0.157330
v -1.718818 -0.317818 0.147342
v -1.043794 -0.344291 -0.015323
v -1.065407 -0.363618 -0.011981
v -1.042165 -0.343378 -0.015965
v -1.041066 -0.342769 -0.016874
v -1.030273 -0.344460 -0.015808
v -1.028644 -0.343547 -0.016449
v -1.027545 -0.342938 -0.017359
v -0.388026 -0.350308 -0.039099
v -0.387682 -0.350082 -0.040114
v -0.388960 -0.350952 -0.038254
v -0.390341 -0.351915 -0.037708
v -0.391959 -0.353050 -0.037544
v -0.418468 -0.371274 -0.037456
v -0.139547 -0.347835 -0.032066
v -0.143270 -0.366110 -0.031964
v -0.420084 -0.372354 -0.037597
v -0.421442 -0.373270 -0.038124
v 0.112358 -0.327772 -0.048074
v 0.254201 -0.122789 -0.034443
v 0.511430 -0.276184 -0.034269
v -0.138963 -0.345121 -0.033766
v 0.111984 -0.327578 -0.049077
v -0.138895 -0.344896 -0.034795
v -0.138476 -0.344867 -0.053247
v -0.387261 -0.350074 -0.058530
v -0.387558 -0.350299 -0.059560
v -0.138498 -0.345089 -0.054267
v -0.138476 -0.344867 -0.053247
v -0.388453 -0.350942 -0.060449
v 0.112403 -0.327549 -0.067529
v 0.112823 -0.327740 -0.068574
v -0.138607 -0.345724 -0.055125
v -0.389807 -0.351904 -0.061062
v 0.113971 -0.328288 -0.069503
v -0.138785 -0.346675 -0.055688
v -0.391416 -0.353039 -0.061305
v -1.031638 -0.345544 -0.039326
v -1.062944 -0.362711 -0.036265
v -0.139007 -0.347797 -0.055872
v -0.417923 -0.371282 -0.061250
v -1.064868 -0.363661 -0.035504
v -0.419548 -0.372362 -0.060984
v -0.142727 -0.366099 -0.055724
v -0.142961 -0.367206 -0.055529
v -0.420933 -0.373277 -0.060351
v -0.143167 -0.368145 -0.054956
v 0.148309 -0.327723 -0.070065
v 0.117671 -0.330079 -0.070484
v -0.139007 -0.347797 -0.055872
v 0.115673 -0.329110 -0.070174
v 0.150015 -0.326133 -0.069663
v -0.143167 -0.368145 -0.054956
v 0.151453 -0.324799 -0.068917
v 0.371003 -0.457625 -0.085176
v 0.375482 -0.467551 -0.085332
v 0.151453 -0.324799 -0.068917
v 0.365029 -0.439760 -0.083842
v 0.117671 -0.330079 -0.070484
v 0.267021 -0.146670 -0.058613
v 0.261033 -0.128764 -0.056868
v 0.256590 -0.119417 -0.055489
v 0.254591 -0.122078 -0.054863
v 0.253875 -0.123039 -0.053926
v 0.112403 -0.327549 -0.067529
v 0.253523 -0.123679 -0.035547
v 0.510366 -0.277223 -0.035515
v 0.510736 -0.276747 -0.053856
v 0.253875 -0.123039 -0.053926
v 0.511841 -0.275655 -0.054647
v 1.660219 0.222727 -0.035454
v 1.659826 0.222472 -0.017037
v 0.514947 -0.272597 -0.054862
v 1.661581 0.223336 -0.036447
v 1.687645 0.216595 -0.036185
v 1.665415 0.225042 -0.037230
v 1.690452 0.212495 -0.037496
v 1.671139 0.227585 -0.037684
v 1.714942 0.178329 -0.039752
v 1.710540 0.184191 -0.039882
v 1.692800 0.208816 -0.038418
v 1.665415 0.225042 -0.037230
v 1.700198 0.197961 -0.039579
v 1.721234 0.168947 -0.041097
v 1.708122 0.186058 -0.040562
v 1.733435 0.151205 -0.042375
v 1.817539 0.024168 -0.049860
v 1.816285 0.023848 -0.050440
v 1.817866 0.023110 -0.049724
v 1.678253 0.227185 -0.037942
v 0.519583 -0.268039 -0.054469
v 0.267021 -0.146670 -0.058613
v 0.525041 -0.262676 -0.053527
v 1.814806 0.023472 -0.050643
v 0.637768 -0.387095 -0.057492
v 0.371003 -0.457625 -0.085176
v 1.815344 0.022436 -0.050440
v 0.645731 -0.404586 -0.058590
v 0.375482 -0.467551 -0.085332
v 0.652470 -0.419388 -0.059112
v 1.815800 0.021559 -0.049860
v 0.652470 -0.419388 -0.059112
v 1.817168 0.022063 -0.049724
v 1.816874 0.022796 -0.050194
v 1.817849 0.022478 -0.049513
v -1.027143 -0.342724 -0.018397
v -1.040241 -0.342560 -0.036355
v -1.040664 -0.342555 -0.017912
v -1.026720 -0.342730 -0.036840
v -1.040597 -0.342775 -0.037365
v -1.040664 -0.342555 -0.017912
v -1.041656 -0.343385 -0.038192
v -1.809285 -0.325005 -0.008970
v -1.027076 -0.342944 -0.037849
v -0.387261 -0.350074 -0.058530
v -1.027143 -0.342724 -0.018397
v -1.810832 -0.326450 -0.012042
v -1.028135 -0.343554 -0.038676
v -1.029737 -0.344467 -0.039195
v -1.043258 -0.344298 -0.038710
v -1.045159 -0.345374 -0.038841
v -1.062944 -0.362711 -0.036265
v -1.076554 -0.361695 -0.032555
v -1.812668 -0.328157 -0.015203
v -1.076554 -0.361695 -0.032555
v -1.078477 -0.362644 -0.031794
v -1.066508 -0.364465 -0.034449
v -1.080117 -0.363448 -0.030739
v -0.420933 -0.373277 -0.060351
v -1.842853 -0.356190 -0.063832
v -1.078477 -0.362644 -0.031794
v -1.846270 -0.359353 -0.068554
v -1.838096 -0.336026 -0.053430
v -1.844697 -0.357900 -0.066600
v -1.849350 -0.359717 -0.070913
v -1.849393 -0.357828 -0.071629
v -1.849432 -0.358957 -0.071383
v -1.850193 -0.359490 -0.070702
v -1.850518 -0.358900 -0.070913
v -1.850727 -0.357828 -0.071049
v -1.850727 -0.339753 -0.071049
v -1.850518 -0.338681 -0.070913
v -1.836852 -0.334473 -0.051117
v -1.834271 -0.332889 -0.046621
v -1.809285 -0.325005 -0.008970
vn 0.3295 -0.6875 0.6471
vn 0.0516 0.3553 0.9333
vn 0.1254 -0.2846 0.9504
vn 0.1428 -0.7746 0.6160
vn 0.1768 -0.9637 0.1999
vn 0.0493 0.3566 -0.9330
vn 0.3303 -0.6927 -0.6411
vn 0.1233 -0.2859 -0.9503
vn 0.1127 0.8426 -0.5265
vn -0.0012 0.6433 -0.7656
vn -0.0039 0.3454 -0.9385
vn -0.0354 0.5711 -0.8201
vn -0.0760 0.9120 -0.4030
vn -0.0354 0.5712 -0.8200
vn -0.0630 0.7496 -0.6589
vn -0.0821 0.9902 -0.1131
vn -0.0454 0.8264 -0.5613
vn -0.0518 0.9843 -0.1685
vn 0.0007 0.9590 -0.2835
vn -0.0081 0.1142 0.9934
vn 0.0171 0.0092 0.9998
vn -0.0052 0.1943 0.9809
vn -0.0086 0.0858 0.9963
vn -0.0389 0.3436 0.9383
vn -0.0379 0.3643 0.9305
vn -0.0764 0.6622 0.7454
vn -0.0013 0.3451 0.9386
vn -0.0332 0.5707 0.8205
vn -0.0752 0.6749 0.7341
vn -0.1028 0.9067 0.4090
vn -0.0351 0.4386 0.8980
vn -0.0689 0.7095 0.7014
vn -0.0918 0.9139 0.3954
vn -0.1005 0.9892 0.1065
vn -0.0611 0.7492 0.6595
vn -0.0749 0.9117 0.4039
vn -0.0818 0.9901 0.1143
vn -0.0518 0.9844 -0.1683
vn -0.0513 0.9839 0.1710
vn -0.0438 0.8255 0.5627
vn 0.0015 0.9579 0.2872
vn -0.0332 0.5707 0.8205
vn 0.0008 0.6420 0.7667
vn -0.0013 0.3451 0.9386
vn 0.1136 0.8386 0.5328
vn 0.0516 0.3555 0.9333
vn 0.1127 0.8428 -0.5263
vn 0.3304 -0.6931 -0.6406
vn -0.0013 0.6434 -0.7655
vn -0.0454 0.8263 -0.5614
vn 0.3303 -0.6929 -0.6409
vn 0.1764 -0.9644 -0.1968
vn 0.1414 -0.7761 -0.6145
vn 0.1233 -0.2861 -0.9502
vn 0.0966 -0.5339 -0.8400
vn 0.0613 -0.1899 -0.9799
vn 0.0232 0.1347 -0.9906
vn 0.0493 0.3564 -0.9330
vn -0.0749 0.9117 0.4039
vn -0.1012 0.6978 -0.7091
vn -0.1378 0.7240 -0.6759
vn -0.1274 0.8830 -0.4518
vn 0.1021 -0.9885 0.1115
vn 0.0979 -0.9890 -0.1105
vn 0.1022 -0.9891 -0.1059
vn 0.1025 -0.9891 0.1057
vn 0.0945 -0.9075 0.4093
vn 0.0934 -0.9075 -0.4095
vn 0.0892 -0.9075 -0.4104
vn 0.0688 -0.6746 -0.7350
vn 0.0693 -0.6754 -0.7342
vn 0.0647 -0.6718 -0.7379
vn 0.0939 -0.9080 -0.4083
vn 0.0526 -0.6614 -0.7482
vn 0.1027 -0.9890 -0.1061
vn 0.1025 -0.9891 0.1060
vn 0.0752 -0.8976 -0.4343
vn 0.0360 -0.6475 -0.7613
vn 0.0485 -0.8597 -0.5085
vn 0.0842 -0.9894 -0.1187
vn 0.0562 -0.9867 -0.1524
vn 0.0986 -0.9951 0.0109
vn 0.0844 -0.9954 0.0460
vn 0.0987 -0.9941 0.0451
vn 0.0565 -0.9918 0.1142
vn 0.0844 -0.9798 0.1814
vn -0.0222 -0.9451 -0.3261
vn 0.0995 -0.9915 0.0833
vn 0.1008 -0.9890 0.1083
vn 0.0925 -0.9037 0.4180
vn 0.0883 -0.9115 0.4018
vn 0.0854 -0.9432 0.3211
vn 0.0554 -0.9094 0.4123
vn -0.0214 -0.9539 0.2992
vn 0.0555 -0.7703 0.6353
vn 0.0604 -0.6876 0.7236
vn 0.0674 -0.6690 0.7402
vn -0.0065 -0.6377 0.7703
vn 0.0708 -0.6744 0.7349
vn 0.0337 -0.3482 0.9368
vn 0.0380 -0.3551 0.9340
vn 0.0950 -0.9080 0.4080
vn 0.0229 -0.3561 0.9342
vn 0.0061 -0.0834 0.9965
vn -0.0076 -0.0705 0.9975
vn -0.0278 0.1255 0.9917
vn -0.0125 0.0971 0.9952
vn -0.0550 0.3992 0.9152
vn 0.0094 -0.4238 0.9057
vn -0.0076 -0.0705 0.9975
vn -0.0316 -0.0617 0.9976
vn -0.0855 -0.0763 0.9934
vn -0.0316 -0.0617 0.9976
vn -0.1248 0.3687 0.9211
vn -0.0572 0.1916 0.9798
vn -0.0278 0.1255 0.9917
vn -0.0857 0.5130 0.8541
vn -0.1385 0.7473 0.6498
vn -0.1052 0.7980 0.5934
vn -0.0836 0.7064 0.7029
vn -0.1298 0.9219 0.3651
vn -0.1096 0.9452 0.3077
vn -0.0396 0.3595 0.9323
vn -0.0717 0.6744 0.7349
vn -0.1840 0.9600 0.2111
vn -0.1005 0.9139 0.3932
vn -0.1057 0.9910 0.0826
vn -0.0947 0.9044 0.4160
vn -0.1070 0.9933 0.0447
vn -0.1040 0.9887 0.1080
vn -0.1174 0.9782 0.1712
vn -0.1416 0.9850 0.0985
vn -0.1201 0.9918 0.0434
vn -0.1026 0.9884 0.1116
vn -0.1073 0.9942 0.0111
vn -0.1411 0.9813 -0.1308
vn -0.1840 0.9554 -0.2308
vn -0.1193 0.9866 -0.1111
vn -0.1274 0.8830 -0.4518
vn -0.1411 0.9813 -0.1309
vn -0.1068 0.9883 -0.1086
vn -0.1378 0.7241 -0.6758
vn -0.1104 0.9050 -0.4109
vn -0.1012 0.6979 -0.7090
vn -0.0988 0.9091 -0.4046
vn -0.0863 0.6862 -0.7222
vn -0.0750 0.6780 -0.7313
vn -0.0840 0.4641 -0.8818
vn -0.1273 0.3668 -0.9215
vn -0.0590 0.1831 -0.9813
vn -0.0353 -0.0529 -0.9980
vn -0.2839 0.8062 -0.5192
vn -0.0884 -0.0761 -0.9932
vn 0.0000 -0.3668 -0.9303
vn -0.0113 -0.6056 -0.7957
vn 0.0485 -0.8597 -0.5085
vn 0.0562 -0.9867 -0.1524
vn -0.3280 -0.2375 -0.9143
vn -0.3438 -0.2256 0.9116
vn -0.0856 -0.0763 0.9934
vn -0.2873 0.8134 0.5058
vn -0.1248 0.3687 0.9211
vn 0.1119 -0.9880 -0.1067
vn 0.1088 -0.9884 0.1059
vn 0.1085 -0.9885 -0.1057
vn 0.1122 -0.9879 0.1068
vn 0.1022 -0.9061 -0.4105
vn 0.0992 -0.9079 -0.4073
vn 0.0753 -0.6734 -0.7354
vn 0.0734 -0.6768 -0.7325
vn 0.1153 -0.9874 -0.1080
vn 0.1051 -0.9034 -0.4158
vn 0.1022 -0.9061 -0.4105
vn 0.0770 -0.6677 -0.7405
vn 0.1156 -0.9873 0.1086
vn 0.1062 -0.9031 0.4162
vn 0.1115 -0.8959 0.4300
vn 0.1217 -0.9858 -0.1160
vn 0.1220 -0.9857 0.1166
vn 0.1234 -0.8682 0.4807
vn 0.1104 -0.8963 -0.4296
vn 0.0799 -0.6473 -0.7580
vn 0.0868 -0.6025 -0.7934
vn 0.1222 -0.8688 -0.4798
vn 0.1414 -0.7761 -0.6146
vn 0.0966 -0.5339 -0.8400
vn 0.1375 -0.9816 -0.1326
vn 0.1379 -0.9814 0.1340
vn 0.1428 -0.7746 0.6161
vn 0.0888 -0.6018 0.7937
vn 0.0988 -0.5328 0.8405
vn 0.1254 -0.2844 0.9505
vn 0.0494 -0.2628 0.9636
vn 0.0638 -0.1892 0.9799
vn 0.0259 0.1346 0.9906
vn 0.0516 0.3553 0.9333
vn 0.0434 -0.3199 0.9464
vn 0.0819 -0.6468 0.7583
vn 0.0131 -0.0636 0.9979
vn 0.0119 -0.0897 0.9959
vn 0.0730 -0.6778 0.7316
vn 0.0407 -0.3589 0.9325
vn 0.0396 -0.3600 0.9321
vn 0.0971 -0.9084 0.4067
vn 0.0115 -0.0922 0.9957
vn 0.0112 -0.0925 0.9956
vn 0.0753 -0.6766 0.7325
vn 0.1030 -0.9890 0.1058
vn 0.1052 -0.9888 0.1055
vn 0.1049 -0.9889 -0.1056
vn 0.0960 -0.9085 -0.4067
vn 0.0711 -0.6782 -0.7314
vn 0.1003 -0.9078 0.4073
vn 0.0773 -0.6728 0.7358
vn 0.1085 -0.9885 -0.1057
vn 0.1033 -0.9060 0.4105
vn 0.0416 -0.3556 0.9337
vn 0.0790 -0.6672 0.7406
vn 0.0423 -0.3509 0.9355
vn 0.0819 -0.6468 0.7582
vn 0.0117 -0.0911 0.9958
vn -0.0086 0.0859 0.9963
vn -0.0083 0.0876 0.9961
vn -0.0080 0.0880 0.9961
vn -0.0085 0.0871 0.9962
vn -0.0372 0.3504 0.9359
vn -0.0361 0.3517 0.9354
vn -0.0728 0.6713 0.7376
vn -0.0382 0.3482 0.9366
vn -0.0704 0.6725 0.7367
vn -0.0748 0.6680 0.7404
vn 0.0107 -0.0902 0.9959
vn -0.0080 0.0902 0.9959
vn 0.0107 -0.0901 0.9959
vn -0.0355 0.3554 0.9341
vn -0.0688 0.6745 0.7351
vn -0.0934 0.9075 0.4095
vn -0.0688 0.6747 0.7349
vn -0.0938 0.9075 0.4094
vn -0.1027 0.9891 0.1059
vn -0.0691 0.6746 0.7349
vn -0.0356 0.3548 0.9343
vn -0.0079 0.0894 0.9960
vn 0.0108 -0.0904 0.9958
vn 0.0383 -0.3561 0.9337
vn 0.0713 -0.6753 0.7341
vn -0.0990 0.9061 0.4114
vn -0.1020 0.9044 0.4143
vn -0.1048 0.9016 0.4197
vn -0.0958 0.9067 0.4108
vn -0.1085 0.9883 0.1068
vn -0.1049 0.9887 0.1068
vn -0.1052 0.9887 -0.1065
vn -0.1030 0.9891 -0.1056
vn -0.0949 0.9075 -0.4091
vn -0.0969 0.9066 -0.4107
vn -0.0711 0.6745 -0.7348
vn -0.1087 0.9883 -0.1068
vn -0.1001 0.9059 -0.4114
vn -0.0724 0.6724 -0.7367
vn -0.0382 0.3545 -0.9343
vn -0.0748 0.6711 -0.7376
vn -0.0386 0.3515 -0.9354
vn -0.0106 0.0890 -0.9960
vn -0.0107 0.0899 -0.9959
vn 0.0080 -0.0904 -0.9959
vn -0.0107 0.0877 -0.9961
vn 0.0081 -0.0907 -0.9958
vn 0.0355 -0.3554 -0.9341
vn 0.0358 -0.3563 -0.9337
vn 0.0085 -0.0927 -0.9957
vn 0.0370 -0.3603 -0.9321
vn 0.0693 -0.6753 -0.7343
vn 0.0088 -0.0925 -0.9957
vn -0.0110 0.0873 -0.9961
vn -0.0398 0.3501 -0.9359
vn 0.0382 -0.3593 -0.9325
vn 0.0391 -0.3561 -0.9336
vn 0.0753 -0.6733 -0.7355
vn 0.0090 -0.0913 -0.9958
vn -0.0110 0.0873 -0.9961
vn -0.0112 0.0869 -0.9962
vn -0.0407 0.3480 -0.9366
vn -0.0768 0.6679 -0.7403
vn -0.1031 0.9042 -0.4145
vn -0.1122 0.9878 -0.1079
vn -0.1119 0.9879 0.1073
vn -0.1153 0.9873 0.1089
vn -0.1156 0.9873 -0.1092
vn -0.1060 0.9013 -0.4200
vn -0.1129 0.9875 -0.1103
vn -0.1126 0.9875 0.1101
vn -0.0784 0.6619 -0.7455
vn -0.1039 0.9065 -0.4091
vn -0.1008 0.9892 -0.1060
vn -0.0772 0.6746 -0.7341
vn -0.0929 0.9139 -0.3951
vn -0.0405 0.3643 -0.9304
vn -0.0760 0.9120 -0.4030
vn -0.0708 0.7095 -0.7012
vn -0.0375 0.4386 -0.8979
vn -0.0354 0.5711 -0.8201
vn -0.0079 0.1941 -0.9810
vn -0.0039 0.3452 -0.9385
vn 0.0232 0.1346 -0.9906
vn 0.0144 0.0089 -0.9999
vn -0.0108 0.1140 -0.9934
vn -0.0414 0.3429 -0.9385
vn -0.0112 0.0868 -0.9962
vn -0.0113 0.0855 -0.9963
vn 0.0104 -0.0639 -0.9979
vn 0.0092 -0.0900 -0.9959
vn 0.0408 -0.3203 -0.9464
vn 0.0398 -0.3512 -0.9355
vn 0.0770 -0.6676 -0.7405
vn 0.0798 -0.6472 -0.7581
vn 0.0770 -0.6676 -0.7405
vn 0.0469 -0.2633 -0.9636
vn -0.1023 0.9891 0.1063
vn -0.1026 0.9891 -0.1057
vn -0.1023 0.9891 0.1061
vn -0.1026 0.9891 -0.1058
vn -0.0945 0.9075 -0.4093
vn -0.0708 0.6743 -0.7351
vn -0.0749 0.6779 -0.7313
vn -0.0424 0.3592 -0.9323
vn -0.0380 0.3551 -0.9340
vn 0.0080 -0.0905 -0.9959
vn -0.0156 0.0988 -0.9950
vn 0.0688 -0.6745 -0.7351
vn 0.0036 -0.0862 -0.9963
vn 0.0647 -0.6717 -0.7380
vn -0.0303 0.1241 -0.9918
vn 0.0308 -0.3479 -0.9370
vn 0.0526 -0.6614 -0.7482
vn -0.0103 -0.0704 -0.9975
vn 0.0184 -0.3434 -0.9390
vn 0.0360 -0.6474 -0.7613
vn 0.0000 -0.3667 -0.9303
vn -0.0353 -0.0529 -0.9980
vn -0.0590 0.1830 -0.9813
vn -0.0571 0.3890 -0.9194
vn -0.1012 0.6978 -0.7091
vn -0.0749 0.6779 -0.7313
vt 1.000000 0.249715
vt 1.000000 0.271997
vt 1.000000 0.258285
vt 1.000000 0.232354
vt 1.000000 0.221884
vt 1.000000 0.098814
vt 1.000000 0.074864
vt 1.000000 0.065137
vt 1.000000 0.106013
vt 1.000000 0.651186
vt 1.000000 0.659389
vt 1.000000 0.693127
vt 1.000000 0.732354
vt 0.999082 0.750295
vt 1.000000 0.721884
vt 1.000000 0.684862
vt 1.000000 0.675136
vt 1.000000 0.643987
vt 0.993516 0.469795
vt 0.996025 0.280204
vt 0.996000 0.469796
vt 0.875000 0.469773
vt 0.875000 0.481340
vt 0.993508 0.481353
vt 0.875000 0.500000
vt 1.000000 0.469796
vt 1.000000 0.481042
vt 0.993485 0.500000
vt 0.993485 0.517356
vt 0.996058 0.481644
vt 0.995911 0.500000
vt 0.996040 0.517087
vt 0.995978 0.528116
vt 0.999082 0.499705
vt 1.000000 0.517646
vt 1.000000 0.528116
vt 1.000000 0.500285
vt 1.000000 0.491715
vt 1.000000 0.485204
vt 1.000000 0.478003
vt 1.000000 0.264796
vt 1.000000 0.028116
vt 1.000000 0.017646
vt 1.000000 0.038301
vt 1.000000 0.056872
vt 1.000000 0.090611
vt 0.001447 0.733274
vt 0.000000 0.683712
vt 0.000000 0.732354
vt 0.030067 0.223781
vt 0.010241 0.028206
vt 0.125000 0.028116
vt 0.125000 0.221884
vt 0.125000 0.232644
vt 0.125000 0.017356
vt 0.250000 0.017356
vt 0.010251 0.017418
vt 0.250000 0.000000
vt 0.125000 0.000000
vt 0.374958 0.000000
vt 0.010273 0.000000
vt 0.374989 0.017356
vt 0.006447 0.000000
vt 0.250000 0.028116
vt 0.375000 0.028116
vt 0.250000 0.221884
vt 0.006226 0.017134
vt 0.004342 0.000000
vt 0.000000 0.017646
vt 0.006319 0.028181
vt 0.000000 0.028116
vt 0.009585 0.167698
vt 0.005844 0.168222
vt 0.010329 0.192455
vt 0.000010 0.169163
vt 0.006470 0.196284
vt 0.000000 0.076378
vt 0.013899 0.211958
vt 0.021022 0.221744
vt 0.029878 0.234013
vt 0.019624 0.232302
vt 0.010160 0.222193
vt 0.000785 0.200390
vt 0.000003 0.199905
vt 0.003226 0.241169
vt 0.018126 0.247851
vt 0.029536 0.249974
vt 0.000759 0.226248
vt 0.125000 0.250000
vt 0.029533 0.268639
vt 0.250000 0.232644
vt 0.125000 0.268644
vt 0.250000 0.250000
vt 0.375008 0.232644
vt 0.018204 0.266879
vt 0.029533 0.280202
vt 0.018231 0.278647
vt 0.018231 0.471353
vt 0.029533 0.469798
vt 0.018204 0.483121
vt 0.002972 0.261739
vt 0.002883 0.274218
vt 0.000749 0.242361
vt 0.000749 0.507639
vt 0.002883 0.475783
vt 0.002972 0.488261
vt 0.000759 0.523752
vt 0.003226 0.508831
vt 0.018126 0.502149
vt 0.000785 0.549610
vt 0.010160 0.527807
vt 0.029533 0.481361
vt 0.029536 0.500026
vt 0.000003 0.550096
vt 0.019624 0.517698
vt 0.013899 0.538042
vt 0.029878 0.515987
vt 0.010329 0.557545
vt 0.021022 0.528256
vt 0.006470 0.553716
vt 0.000010 0.580837
vt 0.005844 0.581778
vt 0.030067 0.526219
vt 0.009585 0.582302
vt 0.000000 0.721884
vt 0.000000 0.673622
vt 0.006319 0.721819
vt 0.010241 0.721794
vt 0.006226 0.732866
vt 0.010251 0.732582
vt 0.006447 0.750000
vt 0.010273 0.750000
vt 0.000000 0.693133
vt 0.000000 0.649869
vt 0.000000 0.659394
vt 0.000000 0.090607
vt 0.000000 0.642141
vt 0.000000 0.100132
vt 0.000000 0.056868
vt 0.000000 0.066289
vt 0.000000 0.011883
vt 0.000000 0.107859
vt 0.000000 0.218903
vt 0.000000 0.531098
vt 0.750000 0.028116
vt 0.625000 0.221884
vt 0.625000 0.028116
vt 0.750000 0.221884
vt 0.749881 0.017356
vt 0.625132 0.017356
vt 0.749541 0.000000
vt 0.625510 0.000000
vt 0.875000 0.028116
vt 0.874909 0.017356
vt 0.750087 0.017356
vt 0.874649 0.000000
vt 0.750334 0.000000
vt 0.875000 0.221884
vt 0.874964 0.232644
vt 0.993596 0.232644
vt 0.993596 0.028116
vt 0.993596 0.221884
vt 0.996108 0.232913
vt 0.993596 0.017356
vt 0.875020 0.017356
vt 0.993596 0.000000
vt 0.875075 0.000000
vt 0.995981 0.000000
vt 0.996108 0.017087
vt 1.000000 0.011883
vt 0.996047 0.028116
vt 0.996047 0.221884
vt 0.995981 0.250000
vt 0.999098 0.250295
vt 0.996091 0.268356
vt 1.000000 0.268958
vt 1.000000 0.280204
vt 0.993574 0.268646
vt 0.993596 0.250000
vt 0.993566 0.280205
vt 0.875000 0.280226
vt 0.499990 0.250000
vt 0.625000 0.268661
vt 0.500000 0.268660
vt 0.499997 0.232644
vt 0.625000 0.280229
vt 0.500000 0.280228
vt 0.625075 0.250000
vt 0.375000 0.221884
vt 0.500000 0.221884
vt 0.500000 0.028116
vt 0.499904 0.017356
vt 0.375027 0.017356
vt 0.499630 0.000000
vt 0.375105 0.000000
vt 0.625020 0.232644
vt 0.749938 0.250000
vt 0.624907 0.017356
vt 0.500091 0.017356
vt 0.624641 0.000000
vt 0.500351 0.000000
vt 0.749984 0.232644
vt 0.750000 0.268658
vt 0.874862 0.250000
vt 0.875000 0.268659
vt 0.750000 0.280224
vt 0.625000 0.469769
vt 0.500000 0.469770
vt 0.750000 0.469776
vt 0.625000 0.481338
vt 0.500000 0.481339
vt 0.625000 0.500000
vt 0.750000 0.481342
vt 0.500000 0.500000
vt 0.750000 0.500000
vt 0.250000 0.280203
vt 0.250000 0.469798
vt 0.125000 0.469798
vt 0.125000 0.280202
vt 0.125000 0.481356
vt 0.250000 0.268644
vt 0.125000 0.500000
vt 0.125000 0.517356
vt 0.250000 0.481356
vt 0.250000 0.500000
vt 0.250000 0.517356
vt 0.374992 0.517356
vt 0.375000 0.528116
vt 0.375000 0.500000
vt 0.375000 0.481355
vt 0.375000 0.469796
vt 0.375000 0.280204
vt 0.375000 0.268646
vt 0.375032 0.250000
vt 0.624970 0.517356
vt 0.750024 0.517356
vt 0.875044 0.517356
vt 0.500002 0.517356
vt 0.625000 0.528116
vt 0.500000 0.528116
vt 0.500000 0.721884
vt 0.375000 0.721884
vt 0.374993 0.732644
vt 0.500002 0.732644
vt 0.375000 0.750000
vt 0.625000 0.721884
vt 0.624970 0.732644
vt 0.500000 0.750000
vt 0.375000 0.768645
vt 0.625000 0.750000
vt 0.500000 0.768661
vt 0.375000 0.780203
vt 0.250000 0.780202
vt 0.250000 0.969797
vt 0.500000 0.780230
vt 0.375000 0.969796
vt 0.250000 0.981355
vt 0.375000 0.981354
vt 0.500000 0.969772
vt 0.500000 0.981340
vt 0.375105 1.000000
vt 0.499630 1.000000
vt 0.625000 0.969771
vt 0.625000 0.780231
vt 0.625000 0.768662
vt 0.625000 0.981339
vt 0.500351 1.000000
vt 0.624641 1.000000
vt 0.750000 0.981342
vt 0.749541 1.000000
vt 0.625510 1.000000
vt 0.750000 0.969776
vt 0.750000 0.780224
vt 0.750000 0.768658
vt 0.750000 0.750000
vt 0.750024 0.732644
vt 0.750000 0.721884
vt 0.750000 0.528116
vt 0.875000 0.528116
vt 0.875000 0.721884
vt 0.875044 0.732644
vt 0.993485 0.721884
vt 0.993485 0.528116
vt 0.875000 0.750000
vt 0.993485 0.732644
vt 0.995978 0.721884
vt 0.993485 0.750000
vt 0.996040 0.732913
vt 0.993508 0.768646
vt 0.995911 0.750000
vt 0.996058 0.768356
vt 1.000000 0.768958
vt 0.996000 0.780204
vt 1.000000 0.780204
vt 1.000000 0.969796
vt 0.996025 0.969796
vt 1.000000 0.981043
vt 0.993516 0.780205
vt 0.875000 0.768660
vt 0.875000 0.780227
vt 0.993566 0.969795
vt 0.875000 0.969774
vt 0.993574 0.981354
vt 0.875000 0.981341
vt 0.750334 1.000000
vt 0.874649 1.000000
vt 0.993596 1.000000
vt 0.875075 1.000000
vt 0.995981 1.000000
vt 0.996091 0.981644
vt 0.997293 1.000000
vt 0.250000 0.528116
vt 0.125000 0.721884
vt 0.125000 0.528116
vt 0.250000 0.721884
vt 0.125000 0.732644
vt 0.125000 0.750000
vt 0.250000 0.732644
vt 0.010273 0.768644
vt 0.250000 0.750000
vt 0.250000 0.768644
vt 0.125000 0.768644
vt 0.125000 0.780202
vt 0.125000 0.969797
vt 0.010273 0.780202
vt 0.125000 0.981355
vt 0.250000 1.000000
vt 0.125000 1.000000
vt 0.374958 1.000000
vt 0.010273 0.969797
vt 0.010273 1.000000
vt 0.006341 0.780202
vt 0.010273 0.981356
vt 0.006447 1.000000
vt 0.006341 0.969797
vt 0.006243 0.981645
vt 0.000000 0.987235
vt 0.000000 0.981044
vt 0.000000 0.969798
vt 0.000000 0.780202
vt 0.000000 0.768956
vt 0.006243 0.768354
s 1
f 1/1/1 2/2/2 3/3/3
f 4/4/4 1/1/1 3/3/3
f 1/1/1 4/4/4 5/5/5
f 6/6/6 7/7/7 8/8/8
f 7/7/7 6/6/6 9/9/9
f 10/10/10 9/9/9 6/6/6
f 10/10/10 6/6/6 11/11/11
f 10/10/10 11/11/11 12/12/12
f 13/13/13 12/12/14 14/14/15
f 15/15/16 16/16/17 13/13/13
f 16/16/17 15/15/16 17/17/18
f 16/16/17 17/17/18 18/18/19
f 19/19/20 20/20/21 21/21/22
f 22/22/23 19/19/20 23/23/24
f 23/23/24 19/19/20 24/24/25
f 21/21/22 24/24/25 19/19/20
f 23/23/24 24/24/25 25/25/26
f 21/21/22 26/26/27 27/27/28
f 25/25/26 24/24/25 28/28/29
f 29/29/30 25/25/26 28/28/29
f 24/24/25 21/21/22 30/30/31
f 30/30/31 21/21/22 27/27/28
f 31/31/32 28/28/29 24/24/25
f 24/24/25 30/30/31 31/31/32
f 28/28/29 32/32/33 29/29/30
f 32/32/33 28/28/29 31/31/32
f 33/33/34 29/29/30 32/32/33
f 31/31/32 30/30/31 34/34/35
f 30/30/31 27/27/28 34/34/35
f 34/34/35 32/32/33 31/31/32
f 32/32/33 34/34/35 35/35/36
f 27/27/28 35/35/36 34/34/35
f 35/35/36 33/33/34 32/32/33
f 33/33/34 35/35/36 36/36/37
f 37/15/16 33/33/34 36/36/37
f 36/36/37 38/17/38 37/15/16
f 39/37/39 38/17/38 36/36/37
f 36/36/37 40/38/40 39/37/39
f 41/39/41 38/17/38 39/37/39
f 40/38/40 41/39/41 39/37/39
f 38/17/38 41/39/41 42/18/19
f 27/27/42 43/40/43 40/38/40
f 41/39/41 40/38/40 43/40/43
f 43/40/43 27/27/42 44/26/44
f 43/40/43 45/41/45 41/39/41
f 41/39/41 45/41/45 42/18/19
f 45/41/45 43/40/43 46/2/46
f 42/18/19 45/41/45 47/9/47
f 45/41/45 48/7/48 47/9/47
f 42/18/19 47/9/47 49/10/49
f 50/16/50 42/18/19 49/10/49
f 51/12/12 50/16/50 49/10/49
f 51/12/12 52/13/13 50/16/50
f 48/7/51 53/42/52 54/43/53
f 55/8/54 48/7/51 54/43/53
f 55/8/54 54/43/53 56/44/55
f 57/45/56 55/8/54 56/44/55
f 58/46/57 55/8/54 57/45/56
f 55/8/54 58/46/57 59/6/58
f 60/11/11 59/6/58 58/46/57
f 61/38/40 62/36/37 63/35/59
f 63/35/59 64/27/28 61/38/40
f 65/47/60 66/48/61 67/49/62
f 68/50/63 69/51/64 70/52/65
f 68/50/63 70/52/65 71/53/66
f 72/54/67 68/50/63 71/53/66
f 69/51/64 73/55/68 70/52/65
f 74/56/68 70/52/65 73/55/68
f 73/55/68 69/51/64 75/57/69
f 73/55/68 76/58/70 74/56/68
f 76/58/70 73/55/68 77/59/70
f 75/57/69 77/59/70 73/55/68
f 78/60/71 74/56/68 76/58/70
f 77/59/70 75/57/69 79/61/72
f 74/56/68 78/60/71 80/62/73
f 81/63/74 79/61/72 75/57/69
f 70/52/65 74/56/68 82/64/65
f 80/62/73 82/64/65 74/56/68
f 82/64/65 83/53/66 70/52/65
f 82/64/65 80/62/73 84/65/75
f 83/53/66 82/64/65 85/66/76
f 84/65/75 85/66/76 82/64/65
f 85/66/76 72/54/67 83/53/66
f 81/63/74 75/57/69 86/67/77
f 87/68/78 81/63/74 86/67/77
f 86/67/77 88/69/79 87/68/78
f 75/57/69 89/70/80 86/67/77
f 88/69/79 86/67/77 89/70/80
f 89/70/80 90/71/81 88/69/79
f 89/70/80 75/57/69 69/51/64
f 69/51/64 91/72/82 89/70/80
f 69/51/64 68/50/63 91/72/82
f 89/70/80 91/72/82 92/73/83
f 89/70/80 92/73/83 93/71/81
f 68/50/63 94/74/84 91/72/82
f 94/74/84 92/73/83 91/72/82
f 93/71/81 92/73/83 95/75/85
f 92/73/83 94/74/84 96/76/86
f 96/76/86 95/75/85 92/73/83
f 95/75/85 97/77/87 93/71/81
f 98/78/88 96/76/86 94/74/84
f 94/74/84 68/50/63 99/79/89
f 94/74/84 99/79/89 98/78/88
f 100/80/90 99/79/89 68/50/63
f 68/50/63 72/54/67 100/80/90
f 101/81/91 98/78/88 99/79/89
f 99/79/89 100/80/90 101/81/91
f 96/76/86 98/78/88 102/82/92
f 98/78/88 101/81/91 102/82/92
f 95/75/85 96/76/86 103/83/93
f 102/82/92 103/83/93 96/76/86
f 103/83/93 104/84/94 95/75/85
f 97/77/87 95/75/85 104/84/94
f 103/83/93 102/82/92 105/85/95
f 106/86/96 102/82/92 101/81/91
f 102/82/92 106/86/96 105/85/95
f 101/81/91 107/87/97 106/86/96
f 107/87/97 101/81/91 100/80/90
f 104/84/94 103/83/93 108/88/98
f 105/85/95 108/88/98 103/83/93
f 100/80/90 109/89/99 107/87/97
f 109/89/99 100/80/90 72/54/67
f 110/90/100 106/86/96 107/87/97
f 111/91/67 109/89/99 72/54/67
f 72/54/67 85/66/76 111/91/67
f 112/92/101 107/87/97 109/89/99
f 107/87/97 112/92/101 110/90/100
f 109/89/99 111/91/67 113/93/99
f 112/92/101 109/89/99 113/93/99
f 85/66/76 114/94/102 111/91/67
f 106/86/96 110/90/100 115/95/103
f 115/95/103 105/85/95 106/86/96
f 116/96/104 115/95/103 110/90/100
f 115/95/103 116/96/104 117/97/105
f 116/96/104 118/98/106 117/97/105
f 118/98/106 116/96/104 119/99/107
f 118/98/106 119/99/107 120/100/108
f 105/85/95 115/95/103 121/101/109
f 122/97/110 121/101/109 115/95/103
f 121/101/109 108/88/98 105/85/95
f 121/101/109 122/97/110 123/102/111
f 121/101/109 124/103/112 108/88/98
f 124/103/112 121/101/109 125/102/113
f 125/102/113 126/104/114 124/103/112
f 122/97/110 127/105/115 123/102/111
f 126/104/114 125/102/113 127/105/115
f 127/105/115 122/97/110 128/98/116
f 129/106/117 126/104/114 127/105/115
f 127/105/115 128/98/116 129/106/117
f 120/100/108 129/106/117 128/98/116
f 126/104/114 129/106/117 130/107/118
f 129/106/117 120/100/108 131/108/119
f 131/108/119 130/107/118 129/106/117
f 132/109/120 131/108/119 120/100/108
f 130/107/118 131/108/119 133/110/121
f 131/108/119 132/109/120 134/111/122
f 134/111/122 133/110/121 131/108/119
f 120/100/108 135/112/123 132/109/120
f 135/112/123 120/100/108 119/99/107
f 136/113/124 132/109/120 135/112/123
f 133/110/121 137/114/125 130/107/118
f 136/113/124 138/115/126 132/109/120
f 134/111/122 132/109/120 138/115/126
f 134/111/122 138/115/126 139/116/127
f 138/115/126 136/113/124 140/117/128
f 141/118/129 134/111/122 139/116/127
f 139/116/127 138/115/126 142/119/130
f 142/119/130 141/118/129 139/116/127
f 140/117/128 142/119/130 138/115/126
f 133/110/121 134/111/122 143/120/131
f 143/120/131 134/111/122 141/118/129
f 143/120/131 144/121/132 133/110/121
f 137/114/125 133/110/121 144/121/132
f 141/118/129 145/122/133 143/120/131
f 144/121/132 143/120/131 145/122/133
f 141/118/129 142/119/130 146/123/134
f 142/119/130 140/117/128 146/123/134
f 145/122/133 141/118/129 147/124/135
f 141/118/129 146/123/134 147/124/135
f 145/122/133 148/125/136 144/121/132
f 144/121/132 149/126/137 137/114/125
f 149/126/137 144/121/132 148/125/136
f 148/125/136 145/122/133 150/127/138
f 147/124/135 150/127/138 145/122/133
f 148/125/136 150/127/138 151/49/139
f 151/49/62 149/126/137 152/125/140
f 150/127/138 147/124/135 153/128/141
f 146/123/134 153/128/141 147/124/135
f 149/126/137 151/49/62 154/48/142
f 150/127/138 155/129/143 151/49/139
f 151/49/139 155/129/143 156/47/144
f 157/130/145 150/127/138 153/128/141
f 150/127/138 157/130/145 155/129/143
f 155/129/143 158/131/146 156/47/144
f 155/129/143 157/130/145 158/131/146
f 157/130/145 159/132/147 158/131/146
f 154/48/142 156/47/60 160/133/148
f 160/133/148 161/134/149 154/48/142
f 161/134/149 149/126/137 154/48/142
f 161/134/149 160/133/148 162/135/150
f 162/135/150 163/136/151 161/134/149
f 149/126/137 161/134/149 164/137/152
f 161/134/149 163/136/151 165/138/153
f 161/134/149 165/138/153 164/137/152
f 163/136/151 166/139/154 165/138/153
f 164/137/152 137/114/125 149/126/137
f 165/138/153 166/139/154 167/140/155
f 166/139/154 168/141/78 167/140/155
f 167/140/155 168/141/78 169/69/156
f 169/69/156 97/77/87 167/140/155
f 97/77/87 165/138/153 167/140/155
f 97/77/87 169/69/156 170/71/157
f 165/138/153 97/77/87 171/142/158
f 164/137/152 165/138/153 171/142/158
f 104/84/94 171/142/158 97/77/87
f 171/142/158 104/84/94 172/143/159
f 164/137/152 171/142/158 172/143/159
f 108/88/98 172/143/159 104/84/94
f 172/143/159 108/88/98 173/103/160
f 174/144/161 164/137/152 172/143/159
f 173/103/160 174/144/161 172/143/159
f 137/114/125 164/137/152 174/144/161
f 174/144/161 173/103/160 175/104/162
f 174/144/161 130/107/118 137/114/125
f 130/107/118 174/144/161 175/104/162
f 176/145/163 177/146/164 178/147/165
f 177/146/164 176/145/163 179/148/166
f 178/147/165 180/149/167 176/145/163
f 180/149/167 178/147/165 181/150/168
f 181/150/168 182/151/169 180/149/167
f 182/151/169 181/150/168 183/152/170
f 184/153/171 179/148/166 176/145/163
f 176/145/163 185/154/172 184/153/171
f 185/154/172 176/145/163 186/155/173
f 186/155/173 187/156/174 185/154/172
f 187/156/174 186/155/173 188/157/169
f 179/148/166 184/153/171 189/158/175
f 190/159/176 179/148/166 189/158/175
f 189/158/175 191/160/177 190/159/176
f 192/161/178 189/158/175 184/153/171
f 191/160/177 189/158/175 193/162/179
f 189/158/175 192/161/178 193/162/179
f 193/162/179 194/163/180 191/160/177
f 184/153/171 195/164/181 192/161/178
f 195/164/181 184/153/171 196/165/172
f 196/165/172 197/166/182 195/164/181
f 197/166/182 196/165/172 198/167/174
f 199/168/183 195/164/181 197/166/182
f 200/169/184 192/161/178 195/164/181
f 195/164/181 199/168/183 200/169/184
f 199/168/183 201/43/185 200/169/184
f 201/43/185 199/168/183 202/170/186
f 203/42/52 200/169/184 201/43/185
f 200/169/184 203/42/52 204/171/187
f 192/161/178 200/169/184 204/171/187
f 204/171/187 193/162/179 192/161/178
f 193/162/179 204/171/187 205/172/188
f 205/172/188 194/163/180 193/162/179
f 206/42/52 205/172/188 204/171/187
f 205/172/188 206/42/52 207/5/5
f 207/5/5 194/163/180 205/172/188
f 48/7/48 207/5/5 206/42/52
f 194/163/180 207/5/5 208/4/189
f 207/5/5 48/7/48 209/1/1
f 208/4/189 210/173/190 194/163/180
f 194/163/180 210/173/190 191/160/177
f 210/173/190 208/4/189 211/174/191
f 212/3/192 211/174/191 208/4/189
f 48/7/48 45/41/45 209/1/1
f 210/173/190 211/174/191 213/175/193
f 211/174/191 212/3/192 214/176/194
f 214/176/194 213/175/193 211/174/191
f 212/3/192 215/177/195 214/176/194
f 215/177/195 212/3/192 46/2/196
f 46/2/46 209/1/1 45/41/45
f 216/178/197 210/173/190 213/175/193
f 217/179/198 210/173/190 216/178/197
f 20/20/21 213/175/193 214/176/194
f 20/20/21 216/178/197 213/175/193
f 20/20/21 214/176/194 218/177/195
f 46/2/46 26/26/27 218/177/195
f 216/178/197 20/20/21 219/180/199
f 220/181/200 216/178/197 219/180/199
f 220/181/200 219/180/199 22/22/23
f 21/21/22 218/177/195 26/26/27
f 218/177/195 21/21/22 20/20/21
f 26/26/27 46/2/46 43/40/43
f 22/22/23 219/180/199 19/19/20
f 20/20/21 19/19/20 219/180/199
f 221/182/201 222/183/202 223/184/203
f 221/182/201 114/94/102 224/185/204
f 225/186/205 223/184/203 222/183/202
f 223/184/203 225/186/205 226/187/206
f 222/183/202 221/182/201 227/188/207
f 224/185/204 227/188/207 221/182/201
f 228/189/208 224/185/204 114/94/102
f 114/94/102 85/66/76 228/189/208
f 85/66/76 84/65/75 228/189/208
f 224/185/204 228/189/208 229/190/209
f 84/65/75 229/190/209 228/189/208
f 229/190/209 84/65/75 230/191/210
f 84/65/75 231/192/211 230/191/210
f 231/192/211 84/65/75 232/193/73
f 232/193/73 233/194/212 231/192/211
f 233/194/212 232/193/73 234/195/71
f 229/190/209 235/196/213 224/185/204
f 227/188/207 224/185/204 235/196/213
f 235/196/213 229/190/209 177/146/164
f 235/196/213 236/197/214 227/188/207
f 227/188/207 236/197/214 222/183/202
f 237/191/210 177/146/164 229/190/209
f 177/146/164 237/191/210 238/147/215
f 237/191/210 239/198/168 238/147/215
f 239/198/168 237/191/210 240/199/211
f 240/199/211 241/200/170 239/198/168
f 241/200/170 240/199/211 242/201/212
f 177/146/164 243/202/216 235/196/213
f 236/197/214 235/196/213 243/202/216
f 243/202/216 177/146/164 179/148/166
f 244/203/217 222/183/202 236/197/214
f 222/183/202 244/203/217 225/186/205
f 243/202/216 245/204/218 236/197/214
f 236/197/214 246/205/219 244/203/217
f 246/205/219 236/197/214 245/204/218
f 245/204/218 243/202/216 190/159/176
f 179/148/166 190/159/176 243/202/216
f 245/204/218 247/179/220 246/205/219
f 190/159/176 247/179/220 245/204/218
f 246/205/219 247/179/220 216/178/197
f 247/179/220 190/159/176 191/160/177
f 220/181/200 244/203/217 246/205/219
f 246/205/219 216/178/197 220/181/200
f 244/203/217 220/181/200 248/206/221
f 248/206/221 225/186/205 244/203/217
f 249/22/222 248/206/221 220/181/200
f 191/160/177 210/173/190 247/179/220
f 250/207/223 225/186/205 248/206/221
f 250/207/223 226/187/206 225/186/205
f 226/187/206 250/207/223 251/208/224
f 248/206/221 249/22/222 252/209/225
f 250/207/223 248/206/221 252/209/225
f 23/23/24 252/209/225 249/22/222
f 253/210/226 251/208/224 250/207/223
f 250/207/223 252/209/225 253/210/226
f 251/208/224 253/210/226 254/211/227
f 255/212/228 254/211/227 253/210/226
f 256/213/229 253/210/226 252/209/225
f 253/210/226 256/213/229 255/212/228
f 252/209/225 23/23/24 256/213/229
f 254/211/227 255/212/228 257/214/230
f 25/25/26 256/213/229 23/23/24
f 258/215/231 255/212/228 256/213/229
f 256/213/229 25/25/26 258/215/231
f 259/216/232 260/217/233 261/218/233
f 261/218/233 262/219/234 259/216/232
f 261/218/233 263/99/107 262/219/234
f 263/99/107 261/218/233 135/112/123
f 263/99/107 264/96/104 262/219/234
f 110/90/100 262/219/234 264/96/104
f 262/219/234 110/90/100 112/92/101
f 265/220/235 135/112/123 261/218/233
f 265/220/235 261/218/233 260/217/233
f 135/112/123 265/220/235 136/113/124
f 262/219/234 112/92/101 266/221/101
f 266/221/101 259/216/232 262/219/234
f 266/221/101 112/92/101 113/93/99
f 267/222/236 136/113/124 265/220/235
f 267/222/236 140/117/128 136/113/124
f 140/117/128 267/222/236 268/223/237
f 267/222/236 265/220/235 269/224/235
f 260/217/233 269/224/235 265/220/235
f 270/225/238 268/223/237 267/222/236
f 270/225/238 267/222/236 269/224/235
f 268/223/237 270/225/238 271/226/237
f 270/225/238 272/227/239 271/226/237
f 273/228/240 271/226/237 272/227/239
f 269/224/235 274/229/241 270/225/238
f 272/227/239 270/225/238 274/229/241
f 260/217/233 275/230/242 269/224/235
f 274/229/241 269/224/235 275/230/242
f 275/230/242 260/217/233 276/231/243
f 259/216/232 276/231/243 260/217/233
f 275/230/242 257/214/230 274/229/241
f 276/231/243 259/216/232 277/232/244
f 266/221/101 277/232/244 259/216/232
f 276/231/243 254/211/227 275/230/242
f 257/214/230 275/230/242 254/211/227
f 277/232/244 278/208/224 276/231/243
f 254/211/227 276/231/243 278/208/224
f 278/208/224 277/232/244 279/187/206
f 277/232/244 266/221/101 280/233/245
f 280/233/245 279/187/206 277/232/244
f 113/93/99 280/233/245 266/221/101
f 279/187/206 280/233/245 223/184/203
f 280/233/245 113/93/99 281/234/246
f 281/234/246 223/184/203 280/233/245
f 111/91/67 281/234/246 113/93/99
f 281/234/246 111/91/67 114/94/102
f 223/184/203 281/234/246 221/182/201
f 114/94/102 221/182/201 281/234/246
f 282/235/247 257/214/230 255/212/228
f 283/236/248 255/212/228 258/215/231
f 255/212/228 283/236/248 282/235/247
f 258/215/231 284/237/249 283/236/248
f 284/237/249 258/215/231 25/25/26
f 257/214/230 282/235/247 285/238/250
f 285/238/250 274/229/241 257/214/230
f 274/229/241 285/238/250 272/227/239
f 286/239/251 285/238/250 282/235/247
f 287/240/252 272/227/239 285/238/250
f 285/238/250 286/239/251 287/240/252
f 272/227/239 287/240/252 273/228/240
f 288/241/253 273/228/240 287/240/252
f 273/228/240 288/241/253 289/242/254
f 288/241/253 290/243/255 289/242/254
f 290/243/255 288/241/253 291/244/256
f 286/239/251 292/241/253 287/240/252
f 291/244/256 293/245/257 290/243/255
f 292/241/253 286/239/251 294/246/258
f 294/246/258 291/244/256 292/241/253
f 291/244/256 294/246/258 295/247/259
f 293/245/257 291/244/256 296/248/260
f 295/247/259 296/248/260 291/244/256
f 296/248/260 297/249/261 293/245/257
f 296/248/260 295/247/259 298/250/262
f 297/249/261 296/248/260 299/251/263
f 298/250/262 299/251/263 296/248/260
f 299/251/263 300/252/264 297/249/261
f 301/253/265 297/249/261 300/252/264
f 300/252/264 302/254/266 301/253/265
f 300/252/264 299/251/263 303/255/267
f 302/254/266 300/252/264 304/256/268
f 303/255/267 304/256/268 300/252/264
f 304/256/268 305/257/269 302/254/266
f 305/257/269 304/256/268 306/258/270
f 304/256/268 303/255/267 307/259/271
f 307/259/271 306/258/270 304/256/268
f 306/258/270 307/259/271 308/260/272
f 308/260/272 309/261/273 306/258/270
f 309/261/273 308/260/272 310/262/212
f 311/263/274 308/260/272 307/259/271
f 307/259/271 312/264/275 311/263/274
f 312/264/275 307/259/271 313/255/267
f 313/255/267 314/265/276 312/264/275
f 314/265/276 313/255/267 299/251/263
f 299/251/263 298/250/262 314/265/276
f 308/260/272 311/263/274 315/266/277
f 315/266/277 316/267/212 308/260/272
f 316/267/212 315/266/277 317/268/170
f 311/263/274 318/269/278 315/266/277
f 319/270/279 315/266/277 318/269/278
f 315/266/277 319/270/279 320/271/170
f 318/269/278 311/263/274 321/272/280
f 322/264/281 321/272/280 311/263/274
f 321/272/280 322/264/281 323/273/282
f 314/265/276 323/273/282 322/264/281
f 323/273/282 314/265/276 324/274/283
f 298/250/262 324/274/283 314/265/276
f 324/274/283 298/250/262 325/275/284
f 298/250/262 326/276/285 325/275/284
f 326/276/285 298/250/262 295/247/259
f 295/247/259 327/277/286 326/276/285
f 327/277/286 295/247/259 328/246/258
f 286/239/251 327/277/286 328/246/258
f 327/277/286 286/239/251 329/278/287
f 282/235/247 329/278/287 286/239/251
f 329/278/287 282/235/247 283/236/248
f 283/236/248 330/279/288 329/278/287
f 330/279/288 283/236/248 284/237/249
f 331/280/289 329/278/287 330/279/288
f 329/278/287 331/280/289 332/277/286
f 331/280/289 326/276/285 332/277/286
f 326/276/285 331/280/289 333/281/290
f 333/281/290 325/275/284 326/276/285
f 330/279/288 334/282/291 331/280/289
f 334/282/291 333/281/290 331/280/289
f 284/237/249 335/283/292 330/279/288
f 334/282/291 330/279/288 335/283/292
f 325/275/284 333/281/290 336/284/293
f 336/284/293 324/274/283 325/275/284
f 333/281/290 334/282/291 337/285/294
f 337/285/294 336/284/293 333/281/290
f 335/283/292 338/286/295 334/282/291
f 338/286/295 337/285/294 334/282/291
f 335/283/292 284/237/249 29/29/30
f 25/25/26 29/29/30 284/237/249
f 29/29/30 33/33/34 335/283/292
f 33/33/34 338/286/295 335/283/292
f 336/284/293 337/285/294 339/287/296
f 337/285/294 338/286/295 340/288/297
f 340/288/297 339/287/296 337/285/294
f 341/289/298 336/284/293 339/287/296
f 338/286/295 342/13/299 340/288/297
f 37/15/16 342/13/299 338/286/295
f 33/33/34 37/15/16 338/286/295
f 342/13/299 343/14/15 340/288/297
f 339/287/296 340/288/297 344/290/300
f 340/288/297 343/14/15 344/290/300
f 344/290/300 341/289/298 345/287/296
f 343/14/15 346/291/301 344/290/300
f 341/289/298 344/290/300 346/291/301
f 346/291/301 343/14/15 347/292/302
f 347/292/302 348/293/303 346/291/301
f 348/293/303 341/289/298 346/291/301
f 348/293/303 347/292/302 349/294/304
f 349/294/304 350/295/305 348/293/303
f 348/293/303 350/295/305 351/296/306
f 350/295/305 352/297/56 351/296/306
f 341/289/298 348/293/303 353/298/307
f 348/293/303 351/296/306 353/298/307
f 353/298/307 354/299/308 341/289/298
f 336/284/293 341/289/298 354/299/308
f 324/274/283 336/284/293 354/299/308
f 354/299/308 355/273/309 324/274/283
f 355/273/309 354/299/308 356/300/310
f 354/299/308 353/298/307 356/300/310
f 356/300/310 321/272/280 355/273/309
f 353/298/307 351/296/306 357/301/311
f 357/301/311 356/300/310 353/298/307
f 321/272/280 356/300/310 358/302/312
f 356/300/310 357/301/311 358/302/312
f 358/302/312 359/269/278 321/272/280
f 351/296/306 360/303/313 357/301/311
f 360/303/313 358/302/312 357/301/311
f 359/269/278 358/302/312 361/304/314
f 358/302/312 360/303/313 361/304/314
f 361/304/314 362/305/279 359/269/278
f 362/305/279 361/304/314 363/306/315
f 364/307/316 361/304/314 360/303/313
f 361/304/314 364/307/316 365/308/317
f 364/307/316 360/303/313 366/309/183
f 360/303/313 351/296/306 367/310/318
f 360/303/313 367/310/318 366/309/183
f 367/310/318 351/296/306 352/297/56
f 366/309/183 367/310/318 368/311/186
f 367/310/318 352/297/56 368/311/186
f 369/312/319 370/313/320 371/314/321
f 371/314/321 271/226/237 369/312/319
f 370/313/320 369/312/319 372/315/322
f 271/226/237 371/314/321 268/223/237
f 372/315/322 373/316/323 370/313/320
f 373/316/323 153/128/141 370/313/320
f 146/123/134 370/313/320 153/128/141
f 370/313/320 146/123/134 374/314/321
f 146/123/134 268/223/237 374/314/321
f 153/128/141 373/316/323 157/130/145
f 268/223/237 146/123/134 140/117/128
f 375/317/324 157/130/145 373/316/323
f 157/130/145 375/317/324 376/132/325
f 373/316/323 372/315/322 377/318/323
f 377/318/323 375/317/324 373/316/323
f 378/242/254 377/318/323 372/315/322
f 379/312/319 378/242/254 372/315/322
f 378/242/254 379/312/319 273/228/240
f 271/226/237 273/228/240 379/312/319
f 377/318/323 378/242/254 290/243/255
f 375/317/324 380/319/326 376/132/325
f 375/317/324 377/318/323 381/320/324
f 290/243/255 381/320/324 377/318/323
f 382/321/327 375/317/324 381/320/324
f 381/320/324 290/243/255 293/245/257
f 293/245/257 382/321/327 381/320/324
f 375/317/324 382/321/327 383/322/327
f 380/319/326 375/317/324 383/322/327
f 382/321/327 293/245/257 297/249/261
f 301/253/265 383/322/327 382/321/327
f 297/249/261 301/253/265 382/321/327
f 383/322/327 301/253/265 384/323/265
f 385/254/328 384/323/265 301/253/265
f 384/323/265 385/254/328 386/324/266
f 305/257/269 386/324/266 385/254/328
f 387/325/329 383/322/327 384/323/265
f 383/322/327 387/325/329 380/319/326
f 388/324/266 387/325/329 384/323/265
f 386/324/266 305/257/269 389/326/269
f 390/327/330 389/326/269 305/257/269
f 389/326/269 390/327/330 391/328/330
f 306/258/270 390/327/330 305/257/269
f 390/327/330 306/258/270 392/329/273
f 387/325/329 388/324/266 393/330/331
f 394/326/269 393/330/331 388/324/266
f 395/331/332 394/326/269 391/328/330
f 387/325/329 393/330/331 396/332/333
f 396/332/333 380/319/326 387/325/329
f 394/326/269 395/331/332 397/333/334
f 393/330/331 394/326/269 397/333/334
f 397/333/334 395/331/332 398/334/335
f 397/333/334 399/335/336 393/330/331
f 396/332/333 393/330/331 399/335/336
f 400/336/337 397/333/334 398/334/335
f 399/335/336 397/333/334 400/336/337
f 400/336/337 398/334/335 401/337/338
f 402/338/339 400/336/337 401/337/338
f 399/335/336 400/336/337 402/338/339
f 403/339/340 399/335/336 402/338/339
f 404/340/341 399/335/336 403/339/340
f 396/332/333 399/335/336 404/340/341
f 396/332/333 404/340/341 405/341/148
f 405/341/148 406/342/342 396/332/333
f 380/319/326 396/332/333 406/342/342
f 406/342/342 405/341/148 156/47/343
f 156/47/343 407/131/146 406/342/342
f 407/131/146 380/319/326 406/342/342
f 407/131/146 408/132/344 380/319/326
