# Blender 5.2.1 LTS
# www.blender.org
o RenderMesh_111525819308010
v 1.862421 0.145677 1.391368
v 1.871322 0.143169 1.421554
v 1.863139 0.144419 1.393367
v 1.870008 0.144485 1.417596
v 1.769064 0.240619 1.246445
v 1.783152 0.222583 1.255825
v 1.755044 0.259183 1.238290
v 1.746893 0.268675 1.232569
v 1.737431 0.281425 1.227247
v 1.738571 0.280429 1.228810
v 1.729997 0.291160 1.223191
v 1.890593 0.157787 1.525210
v 1.881692 0.160295 1.495023
v 1.883109 0.159997 1.501602
v 1.870220 0.162869 1.458584
v 1.888612 0.158190 1.516888
v 1.770601 0.239276 1.248552
v 1.917998 0.137169 1.593942
v 1.918049 0.137195 1.592860
v 1.918273 0.136081 1.592935
v 1.870008 0.144485 1.417596
v 1.871322 0.143169 1.421554
v 1.783152 0.222583 1.255825
v 1.769064 0.240619 1.246445
v 1.755044 0.259183 1.238290
v 1.749733 0.266194 1.236462
v 1.738571 0.280429 1.228810
v 1.855940 0.165519 1.413113
v 1.850384 0.147476 1.351231
v 1.746893 0.268675 1.232569
v 1.862421 0.145677 1.391368
v 1.863139 0.144419 1.393367
v 1.853153 0.145969 1.360109
v 1.859756 0.144109 1.382502
v 1.853439 0.145298 1.361307
v 1.866830 0.142843 1.407006
v 1.723723 0.299240 1.221395
v 1.716955 0.307905 1.216225
v 1.729997 0.291160 1.223191
v 1.712842 0.312878 1.213002
v 1.715189 0.309447 1.213803
v 1.737431 0.281425 1.227247
v 1.684732 0.317516 1.209878
v 1.688337 0.320258 1.209938
v 1.720013 0.302480 1.216308
v 1.746893 0.268675 1.232569
v 1.686010 0.317163 1.209123
v 0.344778 -0.171716 1.208121
v 1.835728 0.149609 1.303291
v 1.850384 0.147476 1.351231
v 1.691973 0.319252 1.207786
v 0.345919 -0.172608 1.207444
v 1.870220 0.162869 1.458584
v 1.770601 0.239276 1.248552
v 1.749733 0.266194 1.236462
v -2.004080 -0.242307 0.336362
v -2.001331 -0.243191 0.334599
v -2.003201 -0.243249 0.336762
v -2.009178 -0.242620 0.348744
v -2.008276 -0.243561 0.349091
v -2.003257 -0.221108 0.337300
v -1.979266 -0.215314 0.322423
v -2.004132 -0.222034 0.336855
v -2.008333 -0.221420 0.349629
v -2.009229 -0.222348 0.349236
v -1.945198 -0.209111 0.302242
v -1.978064 -0.235716 0.320718
v -2.002410 -0.223071 0.334334
v -1.938677 -0.206367 0.298848
v -2.002364 -0.241140 0.333895
v -1.998561 -0.221043 0.332496
v -1.924114 -0.201797 0.291434
v -1.979266 -0.215314 0.322423
v -1.975550 -0.236216 0.319576
v -2.002094 -0.242246 0.334064
v -1.964384 -0.234396 0.314072
v -2.001331 -0.243191 0.334599
v -1.771798 -0.178238 0.251089
v -1.795528 -0.194186 0.234665
v -1.858176 -0.187700 0.254870
v -1.854004 -0.185535 0.252754
v -1.770243 -0.177285 0.252395
v -1.846130 -0.182611 0.248981
v -1.768710 -0.176514 0.254110
v -1.891043 -0.214306 0.273346
v -1.890878 -0.215384 0.273483
v -1.796868 -0.195177 0.233967
v -1.886400 -0.215209 0.271619
v -1.797791 -0.196054 0.233984
v -1.945198 -0.209111 0.302242
v -1.978064 -0.235716 0.320718
v -1.938677 -0.206367 0.298848
v -1.975550 -0.236216 0.319576
v -1.854004 -0.185535 0.252754
v -1.924114 -0.201797 0.291434
v -1.846130 -0.182611 0.248981
v -1.890878 -0.215384 0.273483
v -1.964384 -0.234396 0.314072
v -1.886400 -0.215209 0.271619
v 0.034868 -0.213122 1.127270
v 0.077290 -0.214710 1.123422
v 0.311670 -0.191406 1.221931
v 0.247808 -0.160821 1.163868
v 0.601428 -0.301411 1.453441
v 0.606449 -0.300410 1.453182
v 0.314640 -0.193068 1.224362
v 0.079247 -0.215081 1.123059
v 0.315305 -0.194071 1.224199
v 0.607559 -0.300856 1.452460
v 1.915506 0.134438 1.594601
v 0.313564 -0.194262 1.221466
v 0.604389 -0.303358 1.452312
v -0.255956 -0.284087 1.025137
v -0.567324 -0.249519 0.923460
v -0.256071 -0.285064 1.024448
v 0.079640 -0.215941 1.122493
v -0.256346 -0.285759 1.023395
v 0.078411 -0.217161 1.121811
v -0.256737 -0.286064 1.022142
v 0.075747 -0.218554 1.121117
v 0.018937 -0.242343 1.107921
v -0.264517 -0.286305 0.999737
v 0.015653 -0.242667 1.105572
v -0.265000 -0.285966 0.998512
v 0.011941 -0.242645 1.103236
v -0.265466 -0.285238 0.997463
v 0.075747 -0.218554 1.121117
v 0.309682 -0.193611 1.216580
v 0.018937 -0.242343 1.107921
v 0.225903 -0.175221 1.116019
v 0.220470 -0.173827 1.109724
v 0.015653 -0.242667 1.105572
v 0.214315 -0.171904 1.102978
v 0.487655 -0.189646 1.188648
v 0.220470 -0.173827 1.109724
v 0.499002 -0.189949 1.187881
v 0.225903 -0.175221 1.116019
v 0.507722 -0.192245 1.192767
v 0.599434 -0.300862 1.443647
v 0.309682 -0.193611 1.216580
v 1.831955 0.147980 1.291930
v 0.499002 -0.189949 1.187881
v 1.838342 0.146335 1.313888
v 1.845755 0.146171 1.336303
v 0.507722 -0.192245 1.192767
v 1.851678 0.144733 1.356489
v 1.853439 0.145298 1.361307
v 1.859756 0.144109 1.382502
v 1.866830 0.142843 1.407006
v 1.857217 0.143555 1.376168
v 1.843945 0.145198 1.333731
v 1.915443 0.133559 1.592614
v 0.599434 -0.300862 1.443647
v 1.916863 0.134113 1.592802
v 1.917857 0.134999 1.592914
v 1.866830 0.142843 1.407006
v 1.915590 0.133810 1.593714
v 1.917034 0.134417 1.593931
v 1.917830 0.135133 1.593965
v 1.917857 0.134999 1.592914
v 1.916886 0.134908 1.594642
v 1.917542 0.135300 1.594499
v 1.916717 0.135667 1.595088
v 1.918180 0.136015 1.594039
v 1.917857 0.134999 1.592914
v 1.917626 0.135940 1.594712
v 1.917349 0.137009 1.594776
v 1.916199 0.136740 1.595233
v 1.917349 0.137009 1.594776
v 1.914724 0.136402 1.595245
v 1.886665 0.158235 1.514359
v 1.877429 0.159465 1.485989
v 1.864289 0.161290 1.444419
v 1.872413 0.161360 1.469735
v 1.886665 0.158235 1.514359
v 1.915201 0.135348 1.595139
v 0.601428 -0.301411 1.453441
v 0.530374 -0.205888 1.286290
v 1.880151 0.160269 1.493518
v 1.859220 0.163159 1.428070
v 1.866643 0.163009 1.450554
v 1.853020 0.165061 1.407340
v 1.874054 0.161759 1.473762
v 1.862186 0.164242 1.435049
v 1.853020 0.165061 1.407340
v 1.846632 0.166706 1.385381
v 1.873548 0.162129 1.471127
v 1.886665 0.158235 1.514359
v -2.006287 -0.242707 0.352604
v -1.187026 -0.247554 0.660740
v -2.006368 -0.241610 0.352819
v -2.007250 -0.243900 0.350573
v -2.007513 -0.243492 0.351330
v -2.008315 -0.243221 0.350747
v -2.008468 -0.243463 0.350055
v -2.006064 -0.243627 0.352045
v -2.008276 -0.243561 0.349091
v -2.006930 -0.244195 0.349629
v -2.001887 -0.243885 0.337380
v -2.003201 -0.243249 0.336762
v -1.994336 -0.242314 0.332052
v -1.187160 -0.248443 0.659942
v -2.005733 -0.244231 0.351228
v -2.005343 -0.244426 0.350277
v -1.186344 -0.249089 0.659450
v -1.167917 -0.250060 0.672561
v -1.983290 -0.239697 0.328323
v -1.184704 -0.249396 0.659339
v -1.797908 -0.196971 0.236039
v -1.166720 -0.248177 0.674343
v -1.185963 -0.246559 0.661724
v -1.167783 -0.249172 0.673359
v -1.162232 -0.230612 0.678148
v -0.566344 -0.248418 0.924106
v -1.142847 -0.232014 0.690207
v -1.140910 -0.230901 0.690803
v -0.545880 -0.230273 0.932876
v -0.544364 -0.229162 0.933301
v -0.542494 -0.228404 0.933332
v -0.259001 -0.263094 1.023894
v -0.259440 -0.262549 1.022811
v -0.258638 -0.263972 1.024631
v -0.545880 -0.230273 0.932876
v -0.258408 -0.265048 1.024909
v -0.256018 -0.282975 1.025360
v 0.077290 -0.214710 1.123422
v 0.034868 -0.213122 1.127270
v 0.031645 -0.213298 1.127376
v -1.766607 -0.175944 0.257702
v -1.972335 -0.212024 0.331852
v -1.153413 -0.228368 0.680996
v -1.155629 -0.228448 0.680708
v -1.117471 -0.228566 0.677814
v -1.133549 -0.229043 0.691172
v -1.097123 -0.228506 0.686085
v -1.115754 -0.228756 0.677401
v -1.095406 -0.228697 0.685673
v -1.135877 -0.229293 0.691325
v -0.538943 -0.227924 0.932485
v -0.514011 -0.230095 0.921009
v -1.097123 -0.228506 0.686085
v -0.540586 -0.227986 0.933036
v -0.512885 -0.230398 0.920285
v -1.114909 -0.229358 0.676793
v -0.512444 -0.231020 0.919500
v -1.138462 -0.229945 0.691195
v -0.268135 -0.262482 0.997978
v -0.514011 -0.230095 0.921009
v -1.094561 -0.229298 0.685064
v -1.158084 -0.228902 0.680066
v -1.978525 -0.214330 0.336724
v -1.160402 -0.229662 0.679167
v -1.975253 -0.212923 0.334246
v -1.981649 -0.216031 0.338907
v -2.006756 -0.220746 0.350063
v -1.939952 -0.204616 0.303961
v -1.824454 -0.176317 0.238929
v -1.984155 -0.217768 0.340466
v -1.185963 -0.246559 0.661724
v -2.007923 -0.223524 0.352416
v -2.007872 -0.222389 0.352200
v -2.007612 -0.221618 0.351818
v -1.978525 -0.214330 0.336724
v -2.008787 -0.222427 0.351314
v -2.008381 -0.221834 0.351268
v -1.978525 -0.214330 0.336724
v -2.007428 -0.221095 0.351144
v -2.008501 -0.221592 0.350632
v -2.009248 -0.222347 0.350363
v -2.008333 -0.221420 0.349629
v -2.009616 -0.223473 0.350155
v -2.009229 -0.222348 0.349236
v -1.974125 -0.213281 0.321959
v -2.003257 -0.221108 0.337300
v -1.920332 -0.199868 0.291817
v -1.951795 -0.207878 0.308138
v -1.979266 -0.215314 0.322423
v -1.880612 -0.190134 0.269500
v -1.903724 -0.196097 0.281128
v -1.979266 -0.215314 0.322423
v -1.924114 -0.201797 0.291434
v -2.004132 -0.222034 0.336855
v -1.998561 -0.221043 0.332496
v -2.004437 -0.223133 0.336679
v -2.002410 -0.223071 0.334334
v -2.002364 -0.241140 0.333895
v -2.004391 -0.241203 0.336241
v -2.002094 -0.242246 0.334064
v -2.004080 -0.242307 0.336362
v -2.001331 -0.243191 0.334599
v -2.009542 -0.223447 0.349080
v -2.004437 -0.223133 0.336679
v -2.009496 -0.241517 0.348641
v -2.004391 -0.241203 0.336241
v -2.009570 -0.241543 0.349717
v -2.009178 -0.242620 0.348744
v -2.009095 -0.242608 0.349846
v -2.009001 -0.241570 0.350888
v -2.009047 -0.223500 0.351327
v -2.007877 -0.241593 0.351978
v -2.008780 -0.242604 0.350831
v -2.009001 -0.241570 0.350888
v -2.007706 -0.242650 0.351701
v -1.963670 -0.234949 0.316180
v -1.867792 -0.211398 0.263291
v -1.923951 -0.225215 0.293862
v -1.946265 -0.230533 0.305042
v -2.001331 -0.243191 0.334599
v -1.964384 -0.234396 0.314072
v -1.878294 -0.213810 0.268041
v -1.964384 -0.234396 0.314072
v -1.886400 -0.215209 0.271619
v -1.797791 -0.196054 0.233984
v -1.886400 -0.215209 0.271619
v -1.798155 -0.196684 0.234712
v -1.145307 -0.250904 0.661868
v -1.797791 -0.196054 0.233984
v -1.147761 -0.251358 0.661226
v -1.125424 -0.251550 0.671968
v -1.149977 -0.251438 0.660938
v -1.128009 -0.252202 0.671838
v -0.538383 -0.249840 0.910607
v -0.540231 -0.250491 0.910777
v -1.130337 -0.252452 0.671991
v -0.541827 -0.250738 0.911227
v -1.165462 -0.251014 0.671958
v -0.566084 -0.251236 0.921253
v -1.167102 -0.250707 0.672069
v -0.265466 -0.285238 0.997463
v -0.540231 -0.250491 0.910777
v -0.265000 -0.285966 0.998512
v -0.541827 -0.250738 0.911227
v -0.264517 -0.286305 0.999737
v -0.256737 -0.286064 1.022142
v -0.567183 -0.251044 0.921916
v -0.567619 -0.250441 0.922691
v 1.841450 0.147614 1.321801
v 1.853153 0.145969 1.360109
v 1.853439 0.145298 1.361307
v 1.845755 0.146171 1.336303
v 1.831955 0.147980 1.291930
v 1.823731 0.155124 1.276440
v 0.487655 -0.189646 1.188648
v 0.476735 -0.189024 1.189615
v 1.814509 0.167752 1.270852
v 0.467905 -0.188179 1.190635
v 0.351314 -0.173548 1.206526
v 0.214315 -0.171904 1.102978
v 0.476735 -0.189024 1.189615
v 0.208374 -0.169743 1.096808
v 0.467905 -0.188179 1.190635
v 0.125737 -0.178032 1.095454
v 0.203550 -0.167673 1.092153
v 0.122093 -0.178348 1.095989
v 0.011941 -0.242645 1.103236
v 0.208374 -0.169743 1.096808
v 0.008367 -0.242281 1.101270
v -0.265466 -0.285238 0.997463
v 0.008367 -0.242281 1.101270
v -0.265848 -0.284232 0.996750
v 0.005473 -0.241630 1.099973
v -0.266085 -0.283101 0.996482
v -0.032723 -0.229431 1.085821
v 0.125737 -0.178032 1.095454
v -0.034493 -0.228592 1.085390
v -0.268508 -0.264963 0.996070
v -0.032723 -0.229431 1.085821
v -0.268565 -0.263879 0.996288
v -0.034872 -0.227694 1.085891
v -0.268435 -0.263008 0.996958
v 0.121329 -0.177638 1.096593
v 0.348066 -0.171008 1.208453
v 0.123558 -0.176012 1.097173
v 1.696274 0.324971 1.209292
v 0.355284 -0.170592 1.208390
v 1.841030 0.167843 1.365539
v 0.505723 -0.174880 1.223195
v 0.128446 -0.173715 1.097640
v 0.505723 -0.174880 1.223195
v 0.225456 -0.153274 1.140002
v 0.511684 -0.182079 1.239172
v 0.230889 -0.154667 1.146297
v 0.518462 -0.190499 1.256772
v 0.237043 -0.156591 1.153042
v 0.525025 -0.198859 1.273317
v 0.242985 -0.158752 1.159213
v 0.027649 -0.213994 1.127208
v 0.023488 -0.215104 1.126792
v 0.225456 -0.153274 1.140002
v 0.019792 -0.216459 1.126192
v -0.031443 -0.226252 1.089255
v 0.128446 -0.173715 1.097640
v -0.259891 -0.262420 1.021546
v -0.033801 -0.226872 1.087249
v -0.538943 -0.227924 0.932485
v -0.031443 -0.226252 1.089255
v -0.267712 -0.262381 0.999194
v -0.512757 -0.231867 0.918772
v -0.513778 -0.232809 0.918213
v -1.094718 -0.230220 0.684352
v -1.095851 -0.231321 0.683644
v -1.121039 -0.249481 0.672955
v -0.535024 -0.247866 0.911120
v -1.122976 -0.250594 0.672360
v -0.536562 -0.248887 0.910745
v -0.536562 -0.248887 0.910745
v -0.265848 -0.284232 0.996750
v -1.125424 -0.251550 0.671968
v -0.538383 -0.249840 0.910607
v -0.265466 -0.285238 0.997463
v -1.145307 -0.250904 0.661868
v -1.122976 -0.250594 0.672360
v -1.142988 -0.250144 0.662767
v -1.797791 -0.196054 0.233984
v -1.121039 -0.249481 0.672955
v -1.796868 -0.195177 0.233967
v -1.141157 -0.249194 0.663786
v -1.795528 -0.194186 0.234665
v -1.116197 -0.231380 0.675373
v -1.770243 -0.177285 0.252395
v -1.115064 -0.230279 0.676081
v -1.768710 -0.176514 0.254110
v -1.767434 -0.176043 0.255974
v -1.835753 -0.179374 0.244126
v -1.768710 -0.176514 0.254110
v -1.846130 -0.182611 0.248981
v -1.924114 -0.201797 0.291434
v -1.846130 -0.182611 0.248981
vn 0.2992 0.1966 -0.9337
vn 0.3670 -0.2565 -0.8942
vn 0.3332 -0.1872 -0.9241
vn 0.3056 0.3464 -0.8869
vn 0.2530 0.4295 -0.8669
vn 0.2207 0.6355 -0.7399
vn 0.2529 0.4296 -0.8669
vn 0.1798 0.6646 -0.7252
vn 0.2659 0.2622 -0.9277
vn 0.2193 0.4792 -0.8499
vn 0.0950 0.8389 -0.5359
vn 0.1563 0.6810 -0.7154
vn -0.0435 0.9782 0.2031
vn 0.0485 0.9542 -0.2953
vn -0.0827 0.9839 0.1584
vn -0.0309 0.9915 -0.1262
vn 0.1596 0.8434 -0.5131
vn 0.1184 0.8412 -0.5275
vn 0.0347 0.9294 0.3674
vn 0.3026 0.5700 -0.7639
vn 0.4194 -0.4150 -0.8074
vn 0.3056 0.3464 -0.8869
vn 0.2208 0.6355 -0.7399
vn 0.1798 0.6647 -0.7252
vn 0.0265 0.9473 -0.3191
vn -0.0891 0.9959 0.0119
vn 0.2529 0.4295 -0.8669
vn 0.2918 0.0847 -0.9527
vn 0.2991 0.1966 -0.9337
vn 0.3120 -0.1683 -0.9350
vn 0.3078 -0.6016 -0.7371
vn 0.3102 -0.4460 -0.8396
vn 0.3670 -0.2566 -0.8941
vn 0.2876 -0.7779 -0.5586
vn -0.0337 0.9829 -0.1809
vn 0.0466 0.8980 -0.4376
vn 0.1563 0.6811 -0.7153
vn 0.1429 0.6898 -0.7098
vn 0.2232 0.4046 -0.8868
vn 0.2193 0.4791 -0.8499
vn 0.1303 0.6979 -0.7043
vn 0.0140 0.9273 -0.3741
vn 0.2667 0.1602 -0.9504
vn 0.2659 0.2623 -0.9277
vn 0.2217 0.3622 -0.9054
vn 0.1280 0.6999 -0.7027
vn 0.2869 -0.0153 -0.9578
vn 0.2918 0.0847 -0.9527
vn 0.2647 0.0935 -0.9598
vn 0.2210 0.3566 -0.9078
vn 0.1184 0.8413 -0.5275
vn 0.0265 0.9473 -0.3192
vn 0.1105 -0.8843 -0.4536
vn 0.1748 -0.8782 -0.4453
vn 0.1003 -0.9768 -0.1891
vn -0.0690 -0.9877 0.1402
vn 0.0193 -0.9960 0.0874
vn -0.0755 0.9826 -0.1696
vn 0.0076 0.9121 -0.4099
vn -0.0580 0.9326 -0.3562
vn -0.1420 0.9885 0.0519
vn -0.1920 0.9793 0.0639
vn 0.2327 0.1847 -0.9549
vn 0.2569 -0.0570 -0.9648
vn 0.1738 0.3181 -0.9320
vn 0.1769 0.4989 -0.8484
vn 0.2181 -0.0802 -0.9726
vn 0.0898 0.7052 -0.7033
vn 0.0866 0.7932 -0.6027
vn 0.2647 -0.3999 -0.8775
vn 0.2215 -0.5836 -0.7812
vn 0.2302 -0.7434 -0.6280
vn 0.1748 -0.8781 -0.4454
vn 0.2713 0.1101 -0.9562
vn 0.2872 -0.0711 -0.9552
vn 0.2581 0.1322 -0.9570
vn 0.2148 0.4033 -0.8895
vn 0.2309 0.3735 -0.8985
vn 0.1308 0.7126 -0.6893
vn 0.1473 0.6889 -0.7098
vn 0.2759 -0.0607 -0.9593
vn 0.2832 -0.3406 -0.8966
vn 0.2931 -0.3358 -0.8952
vn 0.2563 -0.6695 -0.6972
vn 0.2659 -0.6573 -0.7051
vn 0.2327 0.1846 -0.9549
vn 0.2569 -0.0570 -0.9648
vn 0.1769 0.4990 -0.8483
vn 0.2647 -0.3998 -0.8776
vn 0.2148 0.4034 -0.8895
vn 0.1308 0.7127 -0.6892
vn 0.2562 -0.6696 -0.6972
vn -0.2851 0.0761 0.9555
vn -0.2683 -0.1060 0.9575
vn -0.2660 -0.0954 0.9593
vn -0.2828 0.0872 0.9552
vn -0.2643 -0.0794 0.9612
vn -0.2202 -0.3603 0.9065
vn -0.2227 -0.3690 0.9024
vn -0.2258 -0.3750 0.8991
vn -0.1340 -0.6960 0.7055
vn -0.1282 -0.6992 0.7033
vn -0.1192 -0.7052 0.6989
vn -0.0190 -0.9236 0.3830
vn -0.0100 -0.9295 0.3686
vn -0.2294 -0.3773 0.8972
vn -0.2331 -0.3733 0.8979
vn -0.1443 -0.6928 0.7066
vn -0.1395 -0.6936 0.7067
vn -0.0323 -0.9177 0.3960
vn -0.0267 -0.9193 0.3927
vn 0.0599 -0.9926 0.1059
vn 0.0653 -0.9928 0.1004
vn 0.1232 -0.9873 -0.1005
vn 0.1189 -0.9883 -0.0960
vn 0.1973 -0.9024 -0.3831
vn 0.1951 -0.9036 -0.3813
vn 0.2654 -0.6699 -0.6934
vn 0.2657 -0.6691 -0.6940
vn 0.0726 -0.9935 0.0877
vn 0.1292 -0.9852 -0.1122
vn 0.2006 -0.8984 -0.3907
vn 0.2648 -0.6707 -0.6928
vn 0.2642 -0.6728 -0.6911
vn 0.2040 -0.8939 -0.3993
vn 0.1364 -0.9822 -0.1292
vn 0.0814 -0.9943 0.0692
vn 0.2721 -0.6412 -0.7175
vn 0.2192 -0.8687 -0.4441
vn 0.2911 -0.5574 -0.7775
vn 0.2563 -0.7891 -0.5582
vn 0.3078 -0.6017 -0.7371
vn 0.2031 -0.9291 -0.3092
vn 0.1563 -0.9707 -0.1822
vn 0.1009 -0.9946 0.0239
vn 0.1475 -0.9853 -0.0861
vn 0.2452 -0.9135 -0.3247
vn 0.2876 -0.7780 -0.5586
vn 0.0087 -0.9430 0.3326
vn 0.0449 -0.9612 0.2722
vn 0.1170 -0.9781 0.1722
vn 0.2451 -0.9136 -0.3245
vn -0.1000 -0.7169 0.6900
vn -0.0637 -0.7369 0.6730
vn -0.2078 -0.3071 0.9287
vn 0.2418 -0.8492 0.4695
vn 0.2451 -0.9135 -0.3246
vn -0.1694 -0.2820 0.9443
vn -0.2255 0.2481 0.9421
vn -0.2548 0.0391 0.9662
vn -0.2255 0.2481 0.9421
vn -0.2619 -0.0457 0.9640
vn -0.2290 0.5248 0.8199
vn -0.2678 0.2614 0.9273
vn -0.2780 0.1501 0.9488
vn -0.2638 0.5245 0.8095
vn -0.2290 0.5248 0.8199
vn -0.2181 -0.3377 0.9156
vn -0.2643 -0.0794 0.9612
vn -0.2809 0.1040 0.9541
vn -0.2136 0.7392 0.6387
vn -0.2822 0.4068 0.8688
vn -0.2308 0.7727 0.5914
vn -0.2564 0.6976 0.6690
vn -0.1918 0.8588 0.4751
vn -0.1601 0.9462 0.2811
vn -0.2564 0.6977 0.6690
vn -0.1944 0.9071 0.3734
vn -0.1120 0.9801 0.1637
vn -0.2290 0.5249 0.8198
vn -0.2397 -0.3661 0.8992
vn -0.2343 -0.3725 0.8980
vn -0.2786 -0.1104 0.9540
vn -0.0434 -0.9280 0.3700
vn -0.1615 -0.6942 0.7014
vn -0.1754 -0.6959 0.6964
vn -0.0830 -0.9048 0.4177
vn -0.1526 -0.6929 0.7047
vn 0.0193 -0.9960 0.0875
vn 0.0421 -0.9942 0.0987
vn 0.0939 -0.9925 -0.0777
vn 0.1302 -0.9707 -0.2017
vn -0.1487 -0.6923 0.7061
vn -0.0365 -0.9230 0.3831
vn 0.0527 -0.9931 0.1052
vn -0.0348 -0.9194 0.3918
vn -0.1486 -0.6923 0.7061
vn 0.0900 -0.9958 -0.0183
vn 0.0582 -0.9931 0.1017
vn 0.1193 -0.9872 -0.1063
vn -0.2753 -0.1051 0.9556
vn -0.2753 -0.1051 0.9556
vn -0.2343 -0.3723 0.8980
vn -0.2910 0.0766 0.9537
vn -0.2742 -0.1069 0.9557
vn -0.2962 0.3435 0.8912
vn -0.2899 0.0743 0.9542
vn -0.2955 0.3403 0.8927
vn -0.2673 0.6619 0.7003
vn -0.2675 0.6584 0.7035
vn -0.1982 0.8977 0.3936
vn -0.2942 0.3351 0.8951
vn -0.2877 0.0719 0.9550
vn -0.2713 -0.1101 0.9562
vn -0.2923 0.3390 0.8942
vn -0.0568 0.9926 -0.1077
vn -0.1205 0.9881 0.0951
vn -0.1179 0.9880 0.1000
vn -0.1958 0.9008 0.3876
vn -0.0582 0.9931 -0.1018
vn -0.1178 0.9880 0.0997
vn -0.0582 0.9931 -0.1017
vn 0.0348 0.9193 -0.3921
vn 0.0348 0.9193 -0.3921
vn -0.1958 0.9009 0.3874
vn -0.1186 0.9878 0.1012
vn -0.0590 0.9932 -0.1007
vn -0.0582 0.9931 -0.1019
vn -0.1967 0.8991 0.3911
vn 0.0338 0.9197 -0.3912
vn 0.1487 0.6923 -0.7061
vn 0.1474 0.6933 -0.7054
vn -0.2672 0.6644 0.6980
vn 0.0307 0.9199 -0.3910
vn 0.1487 0.6923 -0.7062
vn -0.2672 0.6647 0.6977
vn -0.2694 0.6704 0.6914
vn -0.1971 0.9047 0.3777
vn -0.2994 0.3493 0.8879
vn -0.1267 0.9892 0.0741
vn -0.0872 0.9960 -0.0195
vn -0.0584 0.9926 -0.1066
vn -0.2950 0.0850 0.9517
vn -0.3073 0.1092 0.9453
vn -0.3089 0.3824 0.8708
vn -0.2757 0.6860 0.6733
vn -0.2694 0.6703 0.6914
vn -0.3221 0.4695 0.8221
vn -0.2838 0.7074 0.6473
vn -0.2057 0.9076 0.3660
vn -0.2273 0.8983 0.3761
vn -0.3040 0.7587 0.5762
vn -0.3837 0.3856 0.8391
vn -0.0831 0.9937 -0.0751
vn -0.0755 0.9826 -0.1696
vn -0.0776 0.9957 -0.0511
vn -0.0453 0.9800 -0.1940
vn 0.0076 0.9121 -0.4098
vn -0.0664 0.9941 -0.0853
vn -0.0019 0.9485 -0.3166
vn 0.0076 0.9121 -0.4099
vn 0.0866 0.7933 -0.6027
vn -0.0580 0.9326 -0.3563
vn 0.0897 0.7052 -0.7033
vn -0.0065 0.6625 -0.7490
vn 0.2181 -0.0802 -0.9726
vn 0.0865 -0.2055 -0.9748
vn 0.2215 -0.5837 -0.7812
vn 0.1105 -0.8843 -0.4537
vn -0.3651 0.9185 0.1519
vn -0.0066 0.6626 -0.7489
vn -0.5958 -0.6675 0.4466
vn 0.0865 -0.2055 -0.9748
vn 0.1105 -0.8844 -0.4534
vn -0.3641 -0.1862 0.9126
vn -0.0690 -0.9877 0.1402
vn -0.2206 -0.7009 0.6783
vn -0.3119 -0.1104 0.9437
vn 0.1748 -0.8782 -0.4452
vn -0.3316 0.1699 0.9280
vn -0.2896 -0.1085 0.9510
vn -0.2603 -0.4147 0.8719
vn -0.2510 -0.3587 0.8991
vn 0.0995 -0.9938 -0.0504
vn 0.1179 -0.9874 -0.1060
vn 0.1104 -0.9903 -0.0846
vn 0.1676 -0.9310 -0.3241
vn 0.2301 -0.7435 -0.6279
vn 0.1903 -0.9008 -0.3903
vn 0.2659 -0.6574 -0.7051
vn 0.1970 -0.8957 -0.3985
vn 0.2672 -0.6643 -0.6980
vn 0.1959 -0.9006 -0.3879
vn 0.1180 -0.9879 -0.1003
vn 0.2664 -0.6667 -0.6961
vn 0.1951 -0.9021 -0.3850
vn 0.1180 -0.9879 -0.1003
vn 0.1175 -0.9883 -0.0977
vn 0.0580 -0.9929 0.1043
vn -0.0347 -0.9194 0.3917
vn -0.0349 -0.9182 0.3947
vn -0.1480 -0.6915 0.7071
vn 0.3006 -0.2605 -0.9175
vn 0.2911 -0.5573 -0.7776
vn 0.2721 -0.6411 -0.7176
vn 0.2909 -0.3408 -0.8940
vn 0.2642 -0.6727 -0.6911
vn 0.2879 -0.3720 -0.8825
vn 0.2824 -0.0905 -0.9550
vn 0.2812 -0.1086 -0.9535
vn 0.2647 0.0756 -0.9614
vn 0.2649 -0.6706 -0.6929
vn 0.2900 -0.3595 -0.8870
vn 0.2663 0.0918 -0.9595
vn 0.2831 -0.0921 -0.9547
vn 0.2234 0.3653 -0.9037
vn 0.2654 -0.6698 -0.6935
vn 0.2920 -0.3520 -0.8893
vn 0.2657 -0.6690 -0.6941
vn 0.2940 -0.3473 -0.8905
vn 0.2854 -0.0814 -0.9549
vn 0.2854 -0.0815 -0.9549
vn 0.2880 -0.0771 -0.9545
vn 0.2688 0.1016 -0.9578
vn 0.2663 0.0918 -0.9595
vn 0.2266 0.3705 -0.9008
vn 0.2719 0.1056 -0.9565
vn 0.2306 0.3718 -0.8992
vn 0.1390 0.6949 -0.7056
vn 0.1445 0.6926 -0.7067
vn 0.1337 0.6965 -0.7050
vn 0.0079 0.9320 -0.3623
vn 0.0170 0.9261 -0.3769
vn -0.0727 0.9933 -0.0900
vn -0.0828 0.9945 -0.0642
vn -0.1281 0.9857 0.1093
vn -0.1380 0.9812 0.1351
vn -0.0740 0.9938 -0.0830
vn -0.1308 0.9844 0.1180
vn -0.2066 0.8881 0.4106
vn -0.2033 0.8927 0.4021
vn -0.2656 0.6635 0.6994
vn -0.2664 0.6610 0.7015
vn -0.2880 0.3617 0.8867
vn -0.2901 0.3483 0.8914
vn -0.2672 0.6588 0.7033
vn -0.2007 0.8956 0.3970
vn -0.1250 0.9864 0.1071
vn -0.0670 0.9933 -0.0947
vn -0.1205 0.9875 0.1016
vn 0.0244 0.9222 -0.3860
vn -0.1185 0.9878 0.1011
vn -0.0670 0.9932 -0.0947
vn -0.0613 0.9930 -0.1012
vn 0.2332 0.3733 -0.8979
vn 0.2743 0.1062 -0.9558
vn 0.2343 0.3725 -0.8980
vn 0.2753 0.1050 -0.9556
vn 0.2909 -0.0765 -0.9537
vn 0.2901 -0.0761 -0.9540
vn 0.2962 -0.3436 -0.8912
vn 0.2955 -0.3449 -0.8909
vn 0.2940 -0.3473 -0.8905
vn 0.2672 -0.6642 -0.6981
vn 0.2664 -0.6667 -0.6961
vn 0.2961 -0.3435 -0.8913
vn 0.2713 0.1101 -0.9562
vn 0.2753 0.1051 -0.9556
vn 0.2343 0.3725 -0.8980
vn 0.0363 0.9153 -0.4011
vn 0.0272 0.9213 -0.3879
vn 0.1473 0.6889 -0.7097
vt 1.000000 0.098813
vt 1.000000 0.074863
vt 1.000000 0.065135
vt 1.000000 0.106013
vt 1.000000 0.651185
vt 1.000000 0.643987
vt 1.000000 0.684860
vt 1.000000 0.659387
vt 1.000000 0.693124
vt 1.000000 0.732351
vt 0.999146 0.750294
vt 1.000000 0.478004
vt 1.000000 0.500286
vt 1.000000 0.491717
vt 1.000000 0.528116
vt 1.000000 0.485204
vt 1.000000 0.675135
vt 1.000000 0.271996
vt 1.000000 0.264796
vt 1.000000 0.249714
vt 1.000000 0.721882
vt 0.996308 0.528119
vt 1.000000 0.090606
vt 1.000000 0.056867
vt 1.000000 0.017647
vt 1.000000 0.038294
vt 1.000000 0.028116
vt 0.996284 0.721883
vt 0.996337 0.732914
vt 0.996199 0.750000
vt 0.996334 0.768354
vt 1.000000 0.768959
vt 0.993944 0.750000
vt 0.993968 0.732643
vt 0.996279 0.780203
vt 1.000000 0.780204
vt 0.993963 0.768645
vt 0.875000 0.750000
vt 0.996298 0.969795
vt 1.000000 0.969798
vt 0.993969 0.780204
vt 0.875047 0.768653
vt 0.000000 0.124673
vt 0.001006 0.051504
vt 0.000014 0.080837
vt 0.000000 0.248199
vt 0.000000 0.221884
vt 0.000014 0.669163
vt 0.001006 0.698496
vt 0.000000 0.625327
vt 0.000000 0.528116
vt 0.000000 0.501801
vt 0.000000 0.659394
vt 0.000000 0.090606
vt 0.000000 0.621553
vt 0.000000 0.693540
vt 0.000000 0.128448
vt 0.000000 0.652140
vt 0.000000 0.747408
vt 0.000000 0.702694
vt 0.000000 0.056460
vt 0.000000 0.097860
vt 0.000000 0.002592
vt 0.000000 0.047306
vt 0.027892 0.780202
vt 0.027892 0.969798
vt 0.017218 0.780202
vt 0.017362 0.768644
vt 0.027821 0.768644
vt 0.017772 0.750000
vt 0.027618 0.750000
vt 0.017218 0.969798
vt 0.017362 0.981356
vt 0.027821 0.981356
vt 0.017772 1.000000
vt 0.027617 1.000000
vt 0.000000 0.780202
vt 0.000000 0.969798
vt 0.000232 0.768644
vt 0.000232 0.981356
vt 0.016986 0.768644
vt 0.000894 0.750000
vt 0.016324 0.750000
vt 0.016986 0.981356
vt 0.000894 1.000000
vt 0.016324 1.000000
vt 0.625000 0.469772
vt 0.625000 0.280227
vt 0.750000 0.280221
vt 0.750000 0.469779
vt 0.875000 0.280221
vt 0.874966 0.268653
vt 0.749984 0.268652
vt 0.625018 0.268655
vt 0.749892 0.250000
vt 0.874768 0.250000
vt 0.994135 0.250000
vt 0.749987 0.232632
vt 0.874971 0.232631
vt 0.499997 0.268655
vt 0.375015 0.268645
vt 0.499982 0.250000
vt 0.625119 0.250000
vt 0.499997 0.232632
vt 0.625015 0.232628
vt 0.500000 0.221861
vt 0.625000 0.221852
vt 0.625000 0.028151
vt 0.500000 0.028140
vt 0.624906 0.017383
vt 0.500094 0.017375
vt 0.625000 0.000000
vt 0.500003 0.000000
vt 0.750000 0.221859
vt 0.750000 0.028141
vt 0.749882 0.017375
vt 0.625136 0.017382
vt 0.750000 0.000000
vt 0.875000 0.000000
vt 0.750081 0.017375
vt 0.874919 0.017375
vt 0.875000 0.028141
vt 0.875000 0.221859
vt 0.994030 0.000000
vt 0.875016 0.017374
vt 0.994052 0.017359
vt 0.996253 0.000000
vt 0.996388 0.017090
vt 1.000000 0.011883
vt 0.996336 0.028119
vt 0.994059 0.028119
vt 0.994107 0.221881
vt 0.996359 0.221883
vt 1.000000 0.221881
vt 0.994114 0.232642
vt 0.996420 0.232913
vt 1.000000 0.232350
vt 0.996318 0.250000
vt 0.999173 0.250294
vt 0.996423 0.268354
vt 1.000000 0.258284
vt 1.000000 0.268959
vt 1.000000 0.280205
vt 0.996363 0.280203
vt 0.994113 0.280204
vt 1.000000 0.469798
vt 0.996346 0.469795
vt 0.994077 0.469796
vt 0.996399 0.481642
vt 0.994119 0.268645
vt 0.875000 0.469779
vt 1.000000 0.481045
vt 0.994071 0.481353
vt 0.996268 0.500000
vt 0.994054 0.500000
vt 0.999162 0.499707
vt 0.996370 0.517090
vt 0.994032 0.517359
vt 1.000000 0.517647
vt 0.009702 0.268645
vt 0.125000 0.268645
vt 0.009702 0.280203
vt 0.006120 0.232264
vt 0.006211 0.250000
vt 0.001374 0.250296
vt 0.000000 0.231999
vt 0.009702 0.250000
vt 0.005989 0.221884
vt 0.005989 0.082539
vt 0.007765 0.056669
vt 0.125000 0.250000
vt 0.009702 0.232643
vt 0.009702 0.221884
vt 0.125000 0.232643
vt 0.250001 0.250000
vt 0.009702 0.083599
vt 0.125000 0.221884
vt 0.028848 0.028116
vt 0.250000 0.280203
vt 0.125000 0.280203
vt 0.250000 0.268645
vt 0.125000 0.469798
vt 0.375000 0.280205
vt 0.250000 0.469798
vt 0.250000 0.481355
vt 0.375000 0.469796
vt 0.375017 0.481354
vt 0.375036 0.500000
vt 0.500000 0.500000
vt 0.500003 0.517374
vt 0.499998 0.481336
vt 0.500000 0.469772
vt 0.500000 0.280226
vt 0.625000 0.280226
vt 0.625022 0.481335
vt 0.028849 0.721885
vt 0.009702 0.528116
vt 0.125000 0.528116
vt 0.125000 0.517356
vt 0.125000 0.721885
vt 0.250000 0.528116
vt 0.250000 0.721885
vt 0.125000 0.732644
vt 0.250000 0.732644
vt 0.250000 0.517356
vt 0.375000 0.528125
vt 0.375000 0.721876
vt 0.374994 0.517363
vt 0.374992 0.732640
vt 0.125000 0.750000
vt 0.375000 0.750000
vt 0.250000 0.500000
vt 0.500002 0.732632
vt 0.250001 0.750000
vt 0.125000 0.500000
vt 0.009702 0.500000
vt 0.125000 0.481356
vt 0.009702 0.517356
vt 0.009702 0.481356
vt 0.005989 0.528116
vt 0.009702 0.666401
vt 0.021004 0.717363
vt 0.009702 0.469798
vt 0.005989 0.469798
vt 0.005896 0.481645
vt 0.006089 0.500000
vt 0.000000 0.481044
vt 0.001367 0.499706
vt 0.005896 0.517087
vt 0.000000 0.517646
vt 0.000000 0.492870
vt 0.000000 0.479323
vt 0.005989 0.667461
vt 0.011262 0.689133
vt 0.007765 0.693331
vt 0.015164 0.706055
vt 0.012487 0.713813
vt 0.002437 0.701465
vt 0.007855 0.724964
vt 0.000000 0.651285
vt 0.000000 0.598094
vt 0.000000 0.151906
vt 0.000000 0.098715
vt 0.000000 0.487050
vt 0.000000 0.262950
vt 0.000000 0.270677
vt 0.000000 0.257443
vt 0.000000 0.280203
vt 0.000000 0.469798
vt 0.005989 0.280203
vt 0.000000 0.269337
vt 0.006120 0.269052
vt 0.011262 0.060867
vt 0.021004 0.032637
vt 0.015164 0.043945
vt 0.012487 0.036188
vt 0.002437 0.048535
vt 0.007855 0.025036
vt 0.019555 0.022502
vt 0.008639 0.022764
vt 0.016748 0.007063
vt 0.027617 0.000158
vt 0.017772 0.005833
vt 0.028482 0.017356
vt 0.125000 0.000000
vt 0.028172 0.000000
vt 0.125000 0.017356
vt 0.250000 0.000000
vt 0.125000 0.028116
vt 0.250000 0.017356
vt 0.375000 0.000000
vt 0.374988 0.017362
vt 0.250000 0.028116
vt 0.375000 0.028125
vt 0.250000 0.221883
vt 0.375000 0.221874
vt 0.250000 0.232643
vt 0.499996 0.000000
vt 0.375029 0.017364
vt 0.499901 0.017374
vt 0.375007 0.232638
vt 0.375088 0.250000
vt 0.996358 0.981642
vt 1.000000 0.981044
vt 0.997477 1.000000
vt 0.996253 1.000000
vt 0.994030 1.000000
vt 0.994013 0.981353
vt 0.875000 1.000000
vt 0.874981 0.981341
vt 0.994007 0.969796
vt 0.875000 0.969779
vt 0.875000 0.780221
vt 0.750000 1.000000
vt 0.875104 0.981340
vt 0.749896 0.981340
vt 0.750000 0.780221
vt 0.750000 0.969779
vt 0.750033 0.768652
vt 0.625000 1.000000
vt 0.750151 0.981340
vt 0.624817 0.981335
vt 0.500003 1.000000
vt 0.625124 0.981335
vt 0.499900 0.981335
vt 0.625000 0.969772
vt 0.500000 0.969771
vt 0.625000 0.780231
vt 0.624960 0.768657
vt 0.500000 0.780231
vt 0.500002 0.768658
vt 0.625000 0.750000
vt 0.500000 0.750000
vt 0.750000 0.750000
vt 0.875039 0.732631
vt 0.750028 0.732631
vt 0.993975 0.721882
vt 0.875000 0.721859
vt 0.994025 0.528119
vt 0.875000 0.528141
vt 0.750000 0.721859
vt 0.750000 0.528141
vt 0.875034 0.517375
vt 0.750018 0.517375
vt 0.874975 0.500000
vt 0.749987 0.500000
vt 0.874963 0.481341
vt 0.749980 0.481340
vt 0.625016 0.500000
vt 0.624978 0.517382
vt 0.625000 0.528150
vt 0.625000 0.721846
vt 0.500000 0.528139
vt 0.624967 0.732624
vt 0.500000 0.721859
vt 0.374980 0.768644
vt 0.375000 0.780203
vt 0.250000 0.768644
vt 0.250000 0.780202
vt 0.250000 0.969798
vt 0.375000 0.969796
vt 0.250000 0.981356
vt 0.374936 0.981354
vt 0.375029 0.981354
vt 0.500108 0.981336
vt 0.250000 1.000000
vt 0.375000 1.000000
vt 0.499996 1.000000
vt 0.125000 1.000000
vt 0.125000 0.981356
vt 0.028172 1.000000
vt 0.027965 0.981356
vt 0.125000 0.969798
vt 0.125000 0.780202
vt 0.027965 0.768644
vt 0.125000 0.768644
vt 0.028172 0.750000
vt 0.028483 0.732644
vt 0.019555 0.727498
vt 0.027618 0.749842
vt 0.017772 0.744167
vt 0.008639 0.727236
vt 0.016748 0.742937
s 1
f 1/1/1 2/2/2 3/3/3
f 2/2/2 1/1/1 4/4/4
f 1/1/1 5/5/5 4/4/4
f 6/6/6 5/5/7 7/7/8
f 8/8/9 7/7/8 5/5/7
f 7/7/8 8/8/9 9/9/10
f 9/9/10 10/10/11 7/7/8
f 10/10/11 9/9/10 11/11/12
f 12/12/13 13/13/14 14/14/15
f 15/15/16 14/14/15 13/13/14
f 13/13/14 12/12/13 16/16/17
f 17/17/18 15/15/16 13/13/14
f 16/16/17 17/17/18 13/13/14
f 12/12/13 18/18/19 16/16/17
f 19/19/20 16/16/17 18/18/19
f 18/18/19 20/20/21 19/19/20
f 20/20/21 21/4/22 19/19/20
f 21/4/22 20/20/21 22/2/2
f 16/16/17 19/19/20 23/6/23
f 23/6/23 19/19/20 21/4/22
f 17/17/18 16/16/17 23/6/23
f 23/6/23 21/4/22 24/5/5
f 25/7/24 17/17/18 23/6/23
f 25/7/24 26/21/25 17/17/18
f 26/21/25 25/7/24 27/10/11
f 26/21/25 28/22/26 15/15/16
f 24/5/27 29/23/28 30/8/9
f 29/23/28 24/5/27 31/1/29
f 32/3/3 29/23/28 31/1/29
f 29/23/28 32/3/3 33/24/30
f 34/25/31 33/24/30 32/3/3
f 33/24/30 34/25/31 35/26/32
f 32/3/3 22/2/33 34/25/31
f 22/2/33 36/27/34 34/25/31
f 28/22/26 26/21/25 37/28/35
f 27/10/11 37/28/35 26/21/25
f 37/28/35 27/10/11 38/29/36
f 39/11/37 38/29/36 27/10/11
f 38/29/36 39/11/37 40/30/38
f 39/11/37 41/31/39 40/30/38
f 41/31/39 39/11/37 42/32/40
f 43/33/41 38/29/36 40/30/38
f 41/31/39 43/33/41 40/30/38
f 44/34/42 37/28/35 38/29/36
f 38/29/36 43/33/41 44/34/42
f 42/32/40 45/35/43 41/31/39
f 45/35/43 42/32/40 46/36/44
f 43/33/41 41/31/39 47/37/45
f 45/35/43 47/37/45 41/31/39
f 43/33/41 48/38/46 44/34/42
f 47/37/45 48/38/46 43/33/41
f 46/36/44 49/39/47 45/35/43
f 49/39/47 46/36/44 50/40/48
f 47/37/45 45/35/43 51/41/49
f 45/35/43 49/39/47 51/41/49
f 48/38/46 47/37/45 52/42/50
f 51/41/49 52/42/50 47/37/45
f 53/15/16 54/17/51 55/21/52
f 56/43/53 57/44/54 58/45/55
f 59/46/56 58/45/55 60/47/57
f 61/48/58 62/49/59 63/50/60
f 64/51/61 61/48/58 65/52/62
f 66/53/63 67/54/64 68/55/65
f 66/53/63 68/55/65 69/56/66
f 68/55/65 67/54/64 70/57/67
f 71/58/68 69/56/66 68/55/65
f 69/56/66 71/58/68 72/59/69
f 73/60/59 72/59/69 71/58/68
f 74/61/70 70/57/67 67/54/64
f 70/57/67 74/61/70 75/62/71
f 76/63/72 75/62/71 74/61/70
f 75/62/71 76/63/72 77/64/73
f 78/65/74 79/66/75 80/67/76
f 81/68/77 78/65/74 80/67/76
f 78/65/74 81/68/77 82/69/78
f 83/70/79 82/69/78 81/68/77
f 82/69/78 83/70/79 84/71/80
f 80/67/76 79/66/75 85/72/81
f 79/66/75 86/73/82 85/72/81
f 86/73/82 79/66/75 87/74/83
f 87/74/83 88/75/84 86/73/82
f 88/75/84 87/74/83 89/76/85
f 80/67/76 85/72/81 90/77/86
f 90/77/86 85/72/81 91/78/87
f 92/79/88 80/67/76 90/77/86
f 85/72/81 93/80/89 91/78/87
f 80/67/76 92/79/88 94/81/90
f 95/82/69 94/81/90 92/79/88
f 94/81/90 95/82/69 96/83/91
f 93/80/89 85/72/81 97/84/82
f 93/80/89 97/84/82 98/85/72
f 98/85/72 97/84/82 99/86/92
f 100/87/93 101/88/94 102/89/95
f 100/87/93 102/89/95 103/90/96
f 103/90/96 102/89/95 104/91/97
f 104/91/97 102/89/95 105/92/98
f 102/89/95 101/88/94 106/93/99
f 106/93/99 105/92/98 102/89/95
f 107/94/100 106/93/99 101/88/94
f 106/93/99 107/94/100 108/95/101
f 105/92/98 106/93/99 109/96/102
f 108/95/101 109/96/102 106/93/99
f 109/96/102 110/97/103 105/92/98
f 111/98/104 109/96/102 108/95/101
f 112/99/105 110/97/103 109/96/102
f 109/96/102 111/98/104 112/99/105
f 113/100/106 114/101/107 115/102/108
f 115/102/108 116/103/109 113/100/106
f 107/94/100 113/100/106 116/103/109
f 117/104/110 116/103/109 115/102/108
f 116/103/109 117/104/110 118/105/111
f 119/106/112 118/105/111 117/104/110
f 118/105/111 119/106/112 120/107/113
f 119/106/112 121/108/114 120/107/113
f 121/108/114 119/106/112 122/109/115
f 122/109/115 123/110/116 121/108/114
f 123/110/116 122/109/115 124/111/117
f 124/111/117 125/112/118 123/110/116
f 125/112/118 124/111/117 126/113/119
f 118/105/111 108/95/101 116/103/109
f 116/103/109 108/95/101 107/94/100
f 108/95/101 118/105/111 111/98/104
f 127/107/113 111/98/104 118/105/111
f 111/98/104 127/107/113 128/114/120
f 129/108/114 128/114/120 127/107/113
f 128/114/120 129/108/114 130/115/121
f 129/108/114 131/116/122 130/115/121
f 131/116/122 129/108/114 132/117/116
f 132/117/116 133/118/123 131/116/122
f 133/118/123 132/117/116 125/112/118
f 134/119/124 135/120/122 133/118/123
f 135/120/122 134/119/124 136/121/125
f 136/121/125 137/115/121 135/120/122
f 137/115/121 136/121/125 138/122/126
f 139/123/127 137/115/121 138/122/126
f 137/115/121 139/123/127 140/114/120
f 112/99/105 140/114/120 139/123/127
f 140/114/120 112/99/105 111/98/104
f 134/119/124 141/124/128 142/125/125
f 142/125/125 141/124/128 143/126/129
f 141/124/128 144/127/130 143/126/129
f 143/126/129 145/122/126 142/125/125
f 143/126/129 144/127/130 146/128/131
f 144/127/130 147/129/32 146/128/131
f 148/25/132 146/128/131 147/129/32
f 149/27/34 146/128/131 148/25/132
f 146/128/131 149/27/34 150/130/133
f 146/128/131 151/131/134 143/126/129
f 145/122/126 143/126/129 151/131/134
f 151/131/134 146/128/131 150/130/133
f 152/132/135 145/122/126 151/131/134
f 145/122/126 152/132/135 153/123/127
f 150/130/133 154/133/136 151/131/134
f 152/132/135 151/131/134 154/133/136
f 150/130/133 155/134/137 154/133/136
f 155/134/137 150/130/133 156/27/138
f 156/27/138 20/20/21 155/134/137
f 20/20/21 156/27/138 22/2/2
f 157/135/139 153/123/127 152/132/135
f 153/123/127 157/135/139 112/99/105
f 152/132/135 154/133/136 158/136/140
f 157/135/139 152/132/135 158/136/140
f 154/133/136 159/137/141 158/136/140
f 159/137/141 154/133/136 160/134/142
f 157/135/139 158/136/140 161/138/143
f 110/97/103 112/99/105 157/135/139
f 110/97/103 157/135/139 161/138/143
f 158/136/140 162/139/144 161/138/143
f 162/139/144 158/136/140 159/137/141
f 162/139/144 163/140/145 161/138/143
f 163/140/145 110/97/103 161/138/143
f 164/141/146 162/139/144 159/137/141
f 165/134/147 164/141/146 159/137/141
f 164/141/146 165/134/147 20/20/21
f 162/139/144 164/141/146 166/142/148
f 163/140/145 162/139/144 166/142/148
f 164/141/146 167/143/149 166/142/148
f 167/143/149 164/141/146 18/18/19
f 20/20/21 18/18/19 164/141/146
f 168/144/150 163/140/145 166/142/148
f 169/143/151 168/144/150 166/142/148
f 170/145/152 163/140/145 168/144/150
f 18/18/19 171/146/153 169/143/151
f 172/147/154 169/143/151 171/146/153
f 169/143/151 172/147/154 168/144/150
f 171/146/153 18/18/19 12/12/13
f 173/148/155 168/144/150 172/147/154
f 168/144/150 173/148/155 170/145/152
f 173/148/155 172/147/154 174/149/156
f 175/146/157 174/149/156 172/147/154
f 170/145/152 176/150/158 163/140/145
f 110/97/103 163/140/145 176/150/158
f 170/145/152 177/91/159 176/150/158
f 105/92/98 176/150/158 177/91/159
f 176/150/158 105/92/98 110/97/103
f 177/91/159 170/145/152 178/151/160
f 178/151/160 170/145/152 173/148/155
f 174/149/156 175/146/157 179/152/161
f 180/153/162 178/151/160 173/148/155
f 180/153/162 173/148/155 174/149/156
f 180/153/162 174/149/156 181/154/163
f 182/155/164 180/153/162 181/154/163
f 174/149/156 183/156/165 181/154/163
f 174/149/156 179/152/161 183/156/165
f 184/157/166 181/154/163 183/156/165
f 184/157/166 185/155/167 181/154/163
f 185/155/167 184/157/166 186/158/168
f 183/156/165 187/159/169 184/157/166
f 179/152/161 187/159/169 183/156/165
f 187/159/169 28/22/26 184/157/166
f 28/22/26 186/158/168 184/157/166
f 187/159/169 179/152/161 14/14/15
f 179/152/161 12/12/13 14/14/15
f 12/12/13 179/152/161 188/146/170
f 14/14/15 15/15/16 187/159/169
f 28/22/26 187/159/169 15/15/16
f 189/160/171 190/161/172 191/162/173
f 192/163/174 193/164/175 194/165/176
f 195/166/177 192/163/174 194/165/176
f 189/160/171 193/164/175 196/167/178
f 197/47/179 198/168/180 195/166/177
f 198/168/180 192/163/174 195/166/177
f 197/47/179 199/169/181 198/168/180
f 199/169/181 197/47/179 200/45/55
f 200/45/55 201/170/182 199/169/181
f 196/167/178 202/171/183 189/160/171
f 190/161/172 189/160/171 202/171/183
f 203/172/184 196/167/178 193/164/175
f 192/163/174 203/172/184 193/164/175
f 203/172/184 202/171/183 196/167/178
f 204/173/185 203/172/184 192/163/174
f 198/168/180 204/173/185 192/163/174
f 202/171/183 203/172/184 205/174/186
f 204/173/185 205/174/186 203/172/184
f 190/161/172 202/171/183 206/175/187
f 205/174/186 206/175/187 202/171/183
f 198/168/180 207/176/188 204/173/185
f 207/176/188 198/168/180 199/169/181
f 205/174/186 204/173/185 208/177/189
f 209/178/190 204/173/185 207/176/188
f 209/178/190 208/177/189 204/173/185
f 210/179/191 211/180/192 212/181/193
f 213/182/194 211/180/192 210/179/191
f 214/183/195 212/181/193 114/101/107
f 212/181/193 214/183/195 210/179/191
f 210/179/191 215/184/194 213/182/194
f 216/185/196 213/182/194 215/184/194
f 217/186/197 210/179/191 214/183/195
f 210/179/191 217/186/197 215/184/194
f 218/187/198 215/184/194 217/186/197
f 215/184/194 218/187/198 216/185/196
f 219/188/199 216/185/196 218/187/198
f 218/187/198 220/189/200 219/188/199
f 221/190/201 219/188/199 220/189/200
f 220/189/200 218/187/198 222/191/202
f 223/186/197 222/191/202 218/187/198
f 214/183/195 224/192/203 223/186/197
f 222/191/202 223/186/197 224/192/203
f 224/192/203 214/183/195 225/193/204
f 114/101/107 225/193/204 214/183/195
f 224/192/203 225/193/204 226/194/94
f 224/192/203 226/194/94 227/87/93
f 228/195/205 224/192/203 227/87/93
f 224/192/203 228/195/205 222/191/202
f 226/194/94 225/193/204 107/94/100
f 225/193/204 114/101/107 113/100/106
f 113/100/106 107/94/100 225/193/204
f 229/196/206 230/197/207 231/198/208
f 230/197/207 232/199/209 231/198/208
f 229/196/206 231/198/208 233/200/210
f 234/201/211 233/200/210 231/198/208
f 233/200/210 234/201/211 235/202/212
f 235/202/212 236/203/213 233/200/210
f 236/203/213 229/196/206 233/200/210
f 236/203/213 235/202/212 237/204/214
f 231/198/208 238/205/215 234/201/211
f 238/205/215 231/198/208 232/199/209
f 238/205/215 239/206/216 234/201/211
f 240/207/217 234/201/211 239/206/216
f 234/201/211 240/207/217 241/202/218
f 239/206/216 238/205/215 242/208/219
f 243/209/220 241/202/218 240/207/217
f 241/202/218 243/209/220 237/204/214
f 237/204/214 244/210/221 236/203/213
f 245/211/222 237/204/214 243/209/220
f 246/212/223 242/208/219 238/205/215
f 232/199/209 246/212/223 238/205/215
f 247/213/224 245/211/222 243/209/220
f 248/207/217 247/213/224 243/209/220
f 237/204/214 245/211/222 249/214/225
f 244/210/221 237/204/214 249/214/225
f 246/212/223 232/199/209 250/215/226
f 232/199/209 251/216/227 250/215/226
f 252/217/196 246/212/223 250/215/226
f 250/215/226 251/216/227 252/217/196
f 251/216/227 232/199/209 253/218/228
f 232/199/209 230/197/207 253/218/228
f 254/219/229 252/217/196 251/216/227
f 255/220/230 253/218/228 230/197/207
f 246/212/223 252/217/196 216/185/196
f 230/197/207 256/221/231 255/220/230
f 229/196/206 256/221/231 230/197/207
f 256/221/231 229/196/206 257/222/232
f 216/185/196 219/188/199 246/212/223
f 242/208/219 246/212/223 219/188/199
f 213/182/194 216/185/196 252/217/196
f 219/188/199 221/190/201 242/208/219
f 252/217/196 258/223/233 213/182/194
f 258/223/233 252/217/196 254/219/229
f 213/182/194 258/223/233 259/180/192
f 191/162/173 259/180/192 258/223/233
f 254/219/229 260/224/234 258/223/233
f 260/224/234 191/162/173 258/223/233
f 259/180/192 191/162/173 190/161/172
f 260/224/234 254/219/229 261/225/235
f 254/219/229 262/226/236 261/225/235
f 262/226/236 254/219/229 263/216/237
f 264/227/238 260/224/234 261/225/235
f 265/228/239 261/225/235 262/226/236
f 261/225/235 265/228/239 264/227/238
f 262/226/236 266/216/227 253/218/228
f 262/226/236 253/218/228 267/229/240
f 265/228/239 262/226/236 267/229/240
f 253/218/228 255/220/230 267/229/240
f 267/229/240 268/230/241 265/228/239
f 268/230/241 267/229/240 255/220/230
f 269/231/242 264/227/238 265/228/239
f 265/228/239 268/230/241 269/231/242
f 255/220/230 270/51/61 268/230/241
f 264/227/238 269/231/242 271/232/243
f 268/230/241 272/52/62 269/231/242
f 268/230/241 270/51/61 272/52/62
f 272/52/62 271/232/243 269/231/242
f 255/220/230 273/233/244 270/51/61
f 255/220/230 256/221/231 273/233/244
f 270/51/61 273/233/244 274/48/245
f 275/234/246 273/233/244 256/221/231
f 257/222/232 275/234/246 256/221/231
f 276/235/247 274/48/245 273/233/244
f 273/233/244 275/234/246 276/235/247
f 274/48/245 276/235/247 277/49/248
f 278/236/249 276/235/247 275/234/246
f 275/234/246 257/222/232 278/236/249
f 276/235/247 278/236/249 279/237/250
f 257/222/232 279/237/250 278/236/249
f 279/237/250 280/238/251 276/235/247
f 280/238/251 279/237/250 281/239/252
f 282/50/253 272/52/62 274/48/58
f 283/240/254 282/50/253 277/49/248
f 282/50/253 283/240/254 284/241/255
f 285/55/65 284/241/255 283/240/254
f 285/55/65 286/57/256 284/241/255
f 284/241/255 286/57/256 287/242/257
f 288/243/258 287/242/257 286/57/256
f 287/242/257 288/243/258 289/43/259
f 290/44/54 289/43/259 288/243/258
f 272/52/62 282/50/253 291/244/260
f 292/241/261 291/244/260 282/50/253
f 271/232/243 272/52/62 291/244/260
f 291/244/260 292/241/261 293/245/262
f 292/241/261 294/242/263 293/245/262
f 289/43/264 293/245/262 294/242/263
f 295/246/265 291/244/260 293/245/262
f 291/244/260 295/246/265 271/232/243
f 293/245/262 289/43/264 296/46/266
f 200/45/55 296/46/266 289/43/264
f 295/246/265 293/245/262 297/247/267
f 293/245/262 296/46/266 297/247/267
f 298/248/268 271/232/243 295/246/265
f 201/170/182 200/45/55 290/44/269
f 271/232/243 298/248/268 299/249/270
f 271/232/243 299/249/270 264/227/238
f 260/224/234 264/227/238 299/249/270
f 300/250/271 299/249/270 298/248/268
f 299/249/270 300/250/271 260/224/234
f 298/248/268 295/246/265 301/251/272
f 295/246/265 297/247/267 301/251/272
f 302/248/268 301/251/272 300/250/271
f 191/162/173 260/224/234 300/250/271
f 300/250/271 301/251/272 303/252/273
f 303/252/273 191/162/173 300/250/271
f 301/251/272 297/247/267 194/165/176
f 301/251/272 194/165/176 303/252/273
f 297/247/267 195/166/177 194/165/176
f 297/247/267 296/46/266 195/166/177
f 296/46/266 197/47/179 195/166/177
f 191/162/173 303/252/273 189/160/171
f 303/252/273 194/165/176 193/164/175
f 303/252/273 193/164/175 189/160/171
f 199/169/181 304/253/274 207/176/188
f 304/253/274 199/169/181 201/170/182
f 305/254/275 207/176/188 304/253/274
f 207/176/188 305/254/275 209/178/190
f 201/170/182 306/255/276 304/253/274
f 305/254/275 304/253/274 306/255/276
f 306/255/276 201/170/182 307/256/277
f 307/256/277 305/254/275 306/255/276
f 308/257/269 307/256/277 201/170/182
f 307/256/277 308/257/269 309/258/278
f 305/254/275 307/256/277 310/259/279
f 311/260/278 310/259/279 307/256/277
f 310/259/279 311/260/278 312/261/92
f 313/262/280 310/259/279 314/263/84
f 310/259/279 313/262/280 315/264/281
f 315/264/281 305/254/275 310/259/279
f 305/254/275 315/264/281 209/178/190
f 316/265/282 315/264/281 317/266/280
f 315/264/281 316/265/282 318/267/283
f 318/267/283 209/178/190 315/264/281
f 319/268/282 318/267/283 316/265/282
f 209/178/190 318/267/283 320/269/284
f 318/267/283 319/268/282 321/270/283
f 321/270/283 320/269/284 318/267/283
f 322/271/285 321/270/283 319/268/282
f 208/177/189 209/178/190 320/269/284
f 321/270/283 322/271/285 323/272/286
f 323/272/286 324/273/287 321/270/283
f 320/269/284 321/270/283 324/273/287
f 324/273/287 323/272/286 325/274/288
f 326/275/189 320/269/284 324/273/287
f 325/274/288 326/275/189 324/273/287
f 320/269/284 326/275/189 208/177/189
f 326/275/189 325/274/288 327/276/289
f 328/277/290 208/177/189 326/275/189
f 327/276/289 328/277/290 326/275/189
f 208/177/189 328/277/290 205/174/186
f 206/175/187 205/174/186 328/277/290
f 329/278/119 330/279/286 322/271/285
f 330/279/286 329/278/119 331/280/117
f 331/280/117 332/274/288 330/279/286
f 332/274/288 331/280/117 333/109/115
f 333/109/115 327/276/289 332/274/288
f 327/276/289 333/109/115 334/106/112
f 117/104/110 327/276/289 334/106/112
f 328/277/290 327/276/289 335/281/291
f 335/281/291 206/175/187 328/277/290
f 327/276/289 117/104/110 335/281/291
f 206/175/187 335/281/291 336/282/292
f 206/175/187 336/282/292 212/181/193
f 212/181/193 190/161/172 206/175/187
f 335/281/291 115/102/108 336/282/292
f 115/102/108 335/281/291 117/104/110
f 211/180/192 190/161/172 212/181/193
f 336/282/292 115/102/108 114/101/107
f 114/101/107 212/181/193 336/282/292
f 50/40/48 337/283/293 49/39/47
f 337/283/293 50/40/48 338/284/30
f 337/283/293 338/284/30 339/285/32
f 340/286/294 337/283/293 339/285/32
f 341/287/295 337/283/293 340/286/294
f 337/283/293 341/287/295 342/288/296
f 342/288/296 49/39/47 337/283/293
f 343/289/297 342/288/296 341/287/295
f 344/290/298 342/288/296 343/289/297
f 49/39/47 342/288/296 345/291/299
f 344/290/298 345/291/299 342/288/296
f 51/41/49 49/39/47 345/291/299
f 345/291/299 344/290/298 346/292/300
f 347/293/301 345/291/299 346/292/300
f 345/291/299 347/293/301 51/41/49
f 52/42/50 51/41/49 347/293/301
f 348/294/302 349/295/298 343/289/297
f 349/295/298 348/294/302 350/296/303
f 350/296/303 351/292/300 349/295/298
f 351/292/300 352/297/304 347/293/301
f 351/292/300 350/296/303 353/298/305
f 352/297/304 351/292/300 353/298/305
f 354/299/306 347/293/301 352/297/304
f 347/293/301 354/299/306 52/42/50
f 355/300/307 356/301/303 348/294/302
f 356/301/303 355/300/307 357/302/308
f 357/302/308 353/298/305 356/301/303
f 358/303/309 359/304/308 355/300/307
f 359/304/308 358/303/309 360/305/310
f 360/305/310 361/306/311 359/304/308
f 353/298/305 357/302/308 361/306/312
f 361/306/311 360/305/310 362/307/313
f 363/308/314 353/298/305 361/306/312
f 353/298/305 363/308/314 364/297/315
f 365/309/316 364/297/315 363/308/314
f 364/297/315 365/309/316 354/299/306
f 366/310/317 361/306/311 362/307/313
f 361/306/311 366/310/317 367/308/314
f 367/308/314 368/311/318 365/309/316
f 368/311/318 367/308/314 366/310/317
f 369/312/319 354/299/306 365/309/316
f 370/313/320 365/309/316 368/311/318
f 365/309/316 370/313/320 369/312/319
f 368/311/318 245/211/222 370/313/320
f 354/299/306 369/312/319 371/314/321
f 371/314/321 52/42/50 354/299/306
f 52/42/50 371/314/321 48/38/46
f 48/38/46 371/314/321 372/315/322
f 44/34/42 48/38/46 372/315/322
f 371/314/321 369/312/319 373/316/323
f 372/315/322 371/314/321 373/316/323
f 44/34/42 372/315/322 374/317/324
f 37/28/35 44/34/42 374/317/324
f 374/317/324 28/22/26 37/28/35
f 374/317/324 372/315/322 375/318/325
f 372/315/322 373/316/323 375/318/325
f 28/22/26 374/317/324 376/319/326
f 374/317/324 375/318/325 376/319/326
f 186/158/168 28/22/26 376/319/326
f 376/319/326 375/318/325 377/320/327
f 375/318/325 373/316/323 378/321/328
f 378/321/328 379/320/327 375/318/325
f 379/320/327 378/321/328 380/322/329
f 381/323/330 376/319/326 377/320/327
f 376/319/326 381/323/330 186/158/168
f 382/324/331 379/320/327 380/322/329
f 379/320/327 382/324/331 381/323/330
f 383/325/332 186/158/168 381/323/330
f 186/158/168 383/325/332 182/155/164
f 384/326/333 381/323/330 382/324/331
f 381/323/330 384/326/333 383/325/332
f 385/327/334 182/155/164 383/325/332
f 182/155/164 385/327/334 180/153/162
f 178/151/160 180/153/162 385/327/334
f 383/325/332 386/328/335 385/327/334
f 386/328/335 383/325/332 384/326/333
f 385/327/334 103/90/96 178/151/160
f 103/90/96 385/327/334 386/328/335
f 103/90/96 104/91/97 178/151/160
f 384/326/333 228/195/205 386/328/335
f 386/328/335 100/87/93 103/90/96
f 100/87/93 386/328/335 228/195/205
f 228/195/205 384/326/333 387/329/336
f 382/324/331 387/329/336 384/326/333
f 387/329/336 222/191/202 228/195/205
f 222/191/202 387/329/336 220/189/200
f 387/329/336 382/324/331 388/330/337
f 388/330/337 220/189/200 387/329/336
f 389/322/329 388/330/337 382/324/331
f 220/189/200 388/330/337 221/190/201
f 388/330/337 389/322/329 390/331/338
f 390/331/338 221/190/201 388/330/337
f 389/322/329 391/332/339 390/331/338
f 391/332/339 389/322/329 392/321/328
f 221/190/201 390/331/338 393/333/340
f 392/321/328 394/334/341 391/332/339
f 393/333/340 242/208/219 221/190/201
f 373/316/323 394/334/341 392/321/328
f 373/316/323 369/312/319 394/334/341
f 242/208/219 393/333/340 395/206/342
f 369/312/319 370/313/320 394/334/341
f 396/332/343 393/333/340 390/331/338
f 397/335/344 395/206/342 393/333/340
f 393/333/340 396/332/343 397/335/344
f 395/206/342 397/335/344 248/207/217
f 247/213/224 248/207/217 397/335/344
f 396/332/343 247/213/224 397/335/344
f 394/334/341 247/213/224 396/332/343
f 394/334/341 370/313/320 247/213/224
f 245/211/222 247/213/224 370/313/320
f 245/211/222 368/311/318 398/336/345
f 398/336/345 249/214/225 245/211/222
f 368/311/318 399/337/346 398/336/345
f 399/337/346 368/311/318 366/310/317
f 249/214/225 398/336/345 400/338/347
f 400/338/347 244/210/221 249/214/225
f 401/339/348 398/336/345 399/337/346
f 398/336/345 401/339/348 400/338/347
f 399/337/346 402/340/349 401/339/348
f 366/310/317 403/341/350 399/337/346
f 402/340/349 399/337/346 403/341/350
f 403/341/350 366/310/317 362/307/313
f 403/341/350 404/342/351 402/340/349
f 362/307/313 405/343/352 403/341/350
f 404/342/351 403/341/350 406/344/352
f 405/343/352 362/307/313 407/345/353
f 406/344/352 408/346/354 404/342/351
f 407/345/353 409/347/355 405/343/352
f 408/346/354 406/344/352 409/347/355
f 409/347/355 407/345/353 410/348/309
f 411/349/354 412/342/356 408/346/354
f 412/342/356 411/349/354 413/350/356
f 414/351/85 413/350/356 411/349/354
f 413/350/356 415/340/349 412/342/356
f 413/350/356 414/351/85 416/352/83
f 416/352/83 417/353/349 413/350/356
f 415/340/349 413/350/356 417/353/349
f 417/353/349 416/352/83 418/66/75
f 78/65/357 417/353/349 418/66/75
f 419/354/358 415/340/349 417/353/349
f 417/353/349 78/65/357 419/354/358
f 415/340/349 419/354/358 401/339/348
f 420/355/78 419/354/358 78/65/357
f 421/356/359 401/339/348 419/354/358
f 419/354/358 420/355/78 421/356/359
f 401/339/348 421/356/359 400/338/347
f 422/357/80 421/356/359 420/355/78
f 244/210/221 400/338/347 421/356/359
f 421/356/359 422/357/80 244/210/221
f 423/358/360 244/210/221 422/357/80
f 244/210/221 423/358/360 236/203/213
f 229/196/206 236/203/213 423/358/360
f 423/358/360 257/222/232 229/196/206
f 257/222/232 423/358/360 424/359/361
f 425/360/362 424/359/361 423/358/360
f 424/359/361 425/360/362 426/361/91
f 424/359/361 279/237/250 257/222/232
f 424/359/361 427/362/252 279/237/250
f 428/363/91 427/362/252 424/359/361
